M48
; DRILL file {KiCad (5.1.5)-2} date 2020/09/25 22:00:04
; FORMAT={-:-/ absolute / metric / decimal}
; #@! TF.CreationDate,2020-09-25T22:00:04+09:00
; #@! TF.GenerationSoftware,Kicad,Pcbnew,(5.1.5)-2
; #@! TF.FileFunction,NonPlated,1,2,NPTH
FMAT,2
METRIC
T1C1.700
T2C3.000
T3C3.048
T4C3.988
T5C4.000
%
G90
G05
T1
X309.626Y-168.91
X319.786Y-168.91
X138.176Y-130.81
X148.336Y-130.81
X328.676Y-168.91
X338.836Y-168.91
X233.426Y-130.81
X243.586Y-130.81
X271.526Y-111.76
X281.686Y-111.76
X214.376Y-187.96
X224.536Y-187.956
X347.726Y-111.76
X357.886Y-111.76
X271.526Y-149.86
X281.686Y-149.86
X290.576Y-168.91
X300.736Y-168.91
X328.676Y-187.96
X338.836Y-187.96
X119.126Y-149.86
X129.286Y-149.86
X138.176Y-187.96
X148.336Y-187.96
X100.076Y-149.86
X110.236Y-149.86
X252.476Y-111.76
X262.636Y-111.76
X81.026Y-168.91
X91.186Y-168.91
X119.126Y-130.81
X129.286Y-130.81
X157.226Y-187.96
X172.148Y-187.96
X172.148Y-187.96
X157.226Y-149.86
X167.386Y-149.86
X100.076Y-111.76
X110.236Y-111.76
X252.476Y-168.91
X262.636Y-168.91
X176.276Y-130.81
X186.436Y-130.81
X157.226Y-168.91
X167.386Y-168.91
X328.676Y-130.81
X338.836Y-130.81
X100.076Y-187.96
X110.236Y-187.96
X81.026Y-149.86
X91.186Y-149.86
X233.426Y-111.76
X243.586Y-111.76
X176.276Y-187.96
X186.436Y-187.956
X214.376Y-168.91
X219.452Y-173.355
X219.456Y-183.515
X224.536Y-168.906
X266.763Y-187.96
X266.763Y-187.96
X281.686Y-187.96
X214.376Y-149.86
X224.536Y-149.86
X252.476Y-149.86
X262.636Y-149.86
X81.026Y-187.96
X91.186Y-187.96
X157.226Y-130.81
X167.386Y-130.81
X138.176Y-168.91
X148.336Y-168.91
X271.526Y-130.81
X281.686Y-130.81
X309.626Y-149.86
X319.786Y-149.86
X195.326Y-130.81
X205.486Y-130.81
X138.176Y-111.76
X148.336Y-111.76
X252.476Y-187.96
X262.636Y-187.956
X233.426Y-187.96
X248.349Y-187.96
X248.349Y-187.96
X195.326Y-149.86
X205.486Y-149.86
X233.426Y-149.86
X243.586Y-149.86
X347.726Y-168.91
X357.886Y-168.91
X100.076Y-130.81
X110.236Y-130.81
X328.676Y-149.86
X338.836Y-149.86
X347.726Y-130.81
X357.886Y-130.81
X271.526Y-168.91
X281.686Y-168.91
X157.226Y-111.76
X167.386Y-111.76
X347.726Y-187.96
X357.886Y-187.96
X214.376Y-130.81
X224.536Y-130.81
X214.376Y-111.76
X224.536Y-111.76
X252.476Y-130.81
X262.636Y-130.81
X290.576Y-149.86
X300.736Y-149.86
X119.126Y-111.76
X129.286Y-111.76
X347.726Y-149.86
X357.886Y-149.86
X309.626Y-111.76
X319.786Y-111.76
X309.626Y-187.96
X319.786Y-187.96
X309.626Y-130.81
X319.786Y-130.81
X176.276Y-168.91
X186.436Y-168.91
X176.276Y-111.76
X186.436Y-111.76
X81.026Y-111.76
X91.186Y-111.76
X81.026Y-130.81
X91.186Y-130.81
X195.326Y-111.76
X205.486Y-111.76
X119.126Y-187.96
X129.286Y-187.96
X190.564Y-187.96
X190.564Y-187.96
X205.486Y-187.96
X176.276Y-149.86
X186.436Y-149.86
X119.126Y-168.91
X129.286Y-168.91
X328.676Y-111.76
X338.836Y-111.76
X290.576Y-187.96
X300.736Y-187.96
X290.576Y-130.81
X300.736Y-130.81
X290.576Y-111.76
X300.736Y-111.76
X100.076Y-168.91
X110.236Y-168.91
X138.176Y-149.86
X148.336Y-149.86
T2
X291.846Y-147.32
X298.196Y-144.78
X120.396Y-109.22
X126.746Y-106.68
X348.996Y-147.32
X355.346Y-144.78
X310.896Y-109.22
X317.246Y-106.68
X310.896Y-185.42
X317.246Y-182.88
X310.896Y-128.27
X317.246Y-125.73
X177.546Y-166.37
X183.896Y-163.83
X177.546Y-109.22
X183.896Y-106.68
X82.296Y-109.22
X88.646Y-106.68
X82.296Y-128.27
X88.646Y-125.73
X196.596Y-109.22
X202.946Y-106.68
X120.396Y-185.42
X126.746Y-182.88
X177.546Y-147.32
X183.896Y-144.78
X120.396Y-166.37
X126.746Y-163.83
X329.946Y-109.22
X336.296Y-106.68
X291.846Y-185.42
X298.196Y-182.88
X291.846Y-128.27
X298.196Y-125.73
X291.846Y-109.22
X298.196Y-106.68
X101.346Y-166.37
X107.696Y-163.83
X139.446Y-147.32
X145.796Y-144.78
X310.896Y-166.37
X317.246Y-163.83
X139.446Y-128.27
X145.796Y-125.73
X329.946Y-166.37
X336.296Y-163.83
X234.696Y-128.27
X241.046Y-125.73
X272.796Y-109.22
X279.146Y-106.68
X348.996Y-109.22
X355.346Y-106.68
X272.796Y-147.32
X279.146Y-144.78
X291.846Y-166.37
X298.196Y-163.83
X329.946Y-185.42
X336.296Y-182.88
X120.396Y-147.32
X126.746Y-144.78
X139.446Y-185.42
X145.796Y-182.88
X101.346Y-147.32
X107.696Y-144.78
X253.746Y-109.22
X260.096Y-106.68
X82.296Y-166.37
X88.646Y-163.83
X120.396Y-128.27
X126.746Y-125.73
X158.496Y-147.32
X164.846Y-144.78
X101.346Y-109.22
X107.696Y-106.68
X253.746Y-166.37
X260.096Y-163.83
X177.546Y-128.27
X183.896Y-125.73
X158.496Y-166.37
X164.846Y-163.83
X329.946Y-128.27
X336.296Y-125.73
X101.346Y-185.42
X107.696Y-182.88
X82.296Y-147.32
X88.646Y-144.78
X234.696Y-109.22
X241.046Y-106.68
X215.646Y-147.32
X221.996Y-144.78
X253.746Y-147.32
X260.096Y-144.78
X82.296Y-185.42
X88.646Y-182.88
X158.496Y-128.27
X164.846Y-125.73
X139.446Y-166.37
X145.796Y-163.83
X272.796Y-128.27
X279.146Y-125.73
X310.896Y-147.32
X317.246Y-144.78
X196.596Y-128.27
X202.946Y-125.73
X139.446Y-109.22
X145.796Y-106.68
X196.596Y-147.32
X202.946Y-144.78
X234.696Y-147.32
X241.046Y-144.78
X348.996Y-166.37
X355.346Y-163.83
X101.346Y-128.27
X107.696Y-125.73
X329.946Y-147.32
X336.296Y-144.78
X348.996Y-128.27
X355.346Y-125.73
X272.796Y-166.37
X279.146Y-163.83
X158.496Y-109.22
X164.846Y-106.68
X348.996Y-185.42
X355.346Y-182.88
X215.646Y-128.27
X221.996Y-125.73
X215.646Y-109.22
X221.996Y-106.68
X253.746Y-128.27
X260.096Y-125.73
T3
X226.441Y-166.497
X226.441Y-190.373
T4
X211.201Y-166.497
X211.201Y-190.373
T5
X219.456Y-149.86
X257.556Y-149.86
X86.106Y-187.96
X162.306Y-130.81
X143.256Y-168.91
X276.606Y-130.81
X314.706Y-149.86
X200.406Y-130.81
X143.256Y-111.76
X257.556Y-187.96
X238.506Y-187.96
X243.268Y-187.96
X243.268Y-187.96
X200.406Y-149.86
X238.506Y-149.86
X352.806Y-168.91
X105.156Y-130.81
X333.756Y-149.86
X352.806Y-130.81
X276.606Y-168.91
X162.306Y-111.76
X352.806Y-187.96
X219.456Y-130.81
X219.456Y-111.76
X257.556Y-130.81
X295.656Y-149.86
X124.206Y-111.76
X352.806Y-149.86
X314.706Y-111.76
X314.706Y-187.96
X314.706Y-130.81
X181.356Y-168.91
X181.356Y-111.76
X86.106Y-111.76
X86.106Y-130.81
X200.406Y-111.76
X124.206Y-187.96
X195.643Y-187.96
X195.643Y-187.96
X200.406Y-187.96
X181.356Y-149.86
X124.206Y-168.91
X333.756Y-111.76
X295.656Y-187.96
X200.406Y-168.91
X295.656Y-130.81
X295.656Y-111.76
X105.156Y-168.91
X143.256Y-149.86
X314.706Y-168.91
X143.256Y-130.81
X333.756Y-168.91
X238.506Y-130.81
X276.606Y-111.76
X219.456Y-187.96
X352.806Y-111.76
X276.606Y-149.86
X295.656Y-168.91
X333.756Y-187.96
X124.206Y-149.86
X143.256Y-187.96
X105.156Y-149.86
X257.556Y-111.76
X86.106Y-168.91
X124.206Y-130.81
X162.306Y-187.96
X167.069Y-187.96
X167.069Y-187.96
X162.306Y-149.86
X105.156Y-111.76
X257.556Y-168.91
X181.356Y-130.81
X162.306Y-168.91
X333.756Y-130.81
X105.156Y-187.96
X238.506Y-168.91
X86.106Y-149.86
X238.506Y-111.76
X181.356Y-187.96
X219.456Y-168.91
X219.456Y-178.435
X271.844Y-187.96
X271.844Y-187.96
X276.606Y-187.96
T0
M30
