M48
; DRILL file {KiCad (5.1.5)-2} date 2020/09/25 22:00:04
; FORMAT={-:-/ absolute / metric / decimal}
; #@! TF.CreationDate,2020-09-25T22:00:04+09:00
; #@! TF.GenerationSoftware,Kicad,Pcbnew,(5.1.5)-2
; #@! TF.FileFunction,Plated,1,2,PTH
FMAT,2
METRIC
T1C0.400
T2C0.600
T3C0.800
T4C0.813
T5C1.000
T6C1.300
T7C1.500
T8C2.200
%
G90
G05
T1
X191.643Y-127.381
X191.643Y-129.159
X207.899Y-124.841
X207.899Y-126.619
X134.493Y-108.331
X134.493Y-110.109
X150.749Y-105.791
X150.749Y-107.569
X191.643Y-146.431
X191.643Y-148.209
X207.899Y-143.891
X207.899Y-145.669
X229.743Y-146.431
X229.743Y-148.209
X245.999Y-143.891
X245.999Y-145.669
X344.043Y-165.481
X344.043Y-167.259
X360.299Y-162.941
X360.299Y-164.719
X96.393Y-127.381
X96.393Y-129.159
X112.649Y-124.841
X112.649Y-126.619
X324.993Y-146.431
X324.993Y-148.209
X341.249Y-143.891
X341.249Y-145.669
X344.043Y-127.381
X344.043Y-129.159
X360.299Y-124.841
X360.299Y-126.619
X267.843Y-165.481
X267.843Y-167.259
X284.099Y-162.941
X284.099Y-164.719
X153.543Y-108.331
X153.543Y-110.109
X169.799Y-105.791
X169.799Y-107.569
X344.043Y-184.531
X344.043Y-186.309
X360.299Y-181.991
X360.299Y-183.769
X210.693Y-127.381
X210.693Y-129.159
X226.949Y-124.841
X226.949Y-126.619
X210.693Y-108.331
X210.693Y-110.109
X226.949Y-105.791
X226.949Y-107.569
X248.793Y-127.381
X248.793Y-129.159
X265.049Y-124.841
X265.049Y-126.619
X286.893Y-146.431
X286.893Y-148.209
X303.149Y-143.891
X303.149Y-145.669
X115.443Y-108.331
X115.443Y-110.109
X131.699Y-105.791
X131.699Y-107.569
X344.043Y-146.431
X344.043Y-148.209
X360.299Y-143.891
X360.299Y-145.669
X305.943Y-108.331
X305.943Y-110.109
X322.199Y-105.791
X322.199Y-107.569
X305.943Y-184.531
X305.943Y-186.309
X322.199Y-181.991
X322.199Y-183.769
X305.943Y-127.381
X305.943Y-129.159
X322.199Y-124.841
X322.199Y-126.619
X172.593Y-165.481
X172.593Y-167.259
X188.849Y-162.941
X188.849Y-164.719
X172.593Y-108.331
X172.593Y-110.109
X188.849Y-105.791
X188.849Y-107.569
X77.343Y-108.331
X77.343Y-110.109
X93.599Y-105.791
X93.599Y-107.569
X77.343Y-127.381
X77.343Y-129.159
X93.599Y-124.841
X93.599Y-126.619
X191.643Y-108.331
X191.643Y-110.109
X207.899Y-105.791
X207.899Y-107.569
X115.443Y-184.531
X115.443Y-186.309
X131.699Y-181.991
X131.699Y-183.769
X172.593Y-146.431
X172.593Y-148.209
X188.849Y-143.891
X188.849Y-145.669
X115.443Y-165.481
X115.443Y-167.259
X131.699Y-162.941
X131.699Y-164.719
X324.993Y-108.331
X324.993Y-110.109
X341.249Y-105.791
X341.249Y-107.569
X286.893Y-184.531
X286.893Y-186.309
X303.149Y-181.991
X303.149Y-183.769
X286.893Y-127.381
X286.893Y-129.159
X303.149Y-124.841
X303.149Y-126.619
X286.893Y-108.331
X286.893Y-110.109
X303.149Y-105.791
X303.149Y-107.569
X96.393Y-165.481
X96.393Y-167.259
X112.649Y-162.941
X112.649Y-164.719
X134.493Y-146.431
X134.493Y-148.209
X150.749Y-143.891
X150.749Y-145.669
X305.943Y-165.481
X305.943Y-167.259
X322.199Y-162.941
X322.199Y-164.719
X134.493Y-127.381
X134.493Y-129.159
X150.749Y-124.841
X150.749Y-126.619
X324.993Y-165.481
X324.993Y-167.259
X341.249Y-162.941
X341.249Y-164.719
X229.743Y-127.381
X229.743Y-129.159
X245.999Y-124.841
X245.999Y-126.619
X267.843Y-108.331
X267.843Y-110.109
X284.099Y-105.791
X284.099Y-107.569
X344.043Y-108.331
X344.043Y-110.109
X360.299Y-105.791
X360.299Y-107.569
X267.843Y-146.431
X267.843Y-148.209
X284.099Y-143.891
X284.099Y-145.669
X286.893Y-165.481
X286.893Y-167.259
X303.149Y-162.941
X303.149Y-164.719
X324.993Y-184.531
X324.993Y-186.309
X341.249Y-181.991
X341.249Y-183.769
X115.443Y-146.431
X115.443Y-148.209
X131.699Y-143.891
X131.699Y-145.669
X134.493Y-184.531
X134.493Y-186.309
X150.749Y-181.991
X150.749Y-183.769
X96.393Y-146.431
X96.393Y-148.209
X112.649Y-143.891
X112.649Y-145.669
X248.793Y-108.331
X248.793Y-110.109
X265.049Y-105.791
X265.049Y-107.569
X77.343Y-165.481
X77.343Y-167.259
X93.599Y-162.941
X93.599Y-164.719
X115.443Y-127.381
X115.443Y-129.159
X131.699Y-124.841
X131.699Y-126.619
X153.543Y-146.431
X153.543Y-148.209
X169.799Y-143.891
X169.799Y-145.669
X96.393Y-108.331
X96.393Y-110.109
X112.649Y-105.791
X112.649Y-107.569
X248.793Y-165.481
X248.793Y-167.259
X265.049Y-162.941
X265.049Y-164.719
X172.593Y-127.381
X172.593Y-129.159
X188.849Y-124.841
X188.849Y-126.619
X153.543Y-165.481
X153.543Y-167.259
X169.799Y-162.941
X169.799Y-164.719
X324.993Y-127.381
X324.993Y-129.159
X341.249Y-124.841
X341.249Y-126.619
X96.393Y-184.531
X96.393Y-186.309
X112.649Y-181.991
X112.649Y-183.769
X77.343Y-146.431
X77.343Y-148.209
X93.599Y-143.891
X93.599Y-145.669
X229.743Y-108.331
X229.743Y-110.109
X245.999Y-105.791
X245.999Y-107.569
X210.693Y-146.431
X210.693Y-148.209
X226.949Y-143.891
X226.949Y-145.669
X248.793Y-146.431
X248.793Y-148.209
X265.049Y-143.891
X265.049Y-145.669
X77.343Y-184.531
X77.343Y-186.309
X93.599Y-181.991
X93.599Y-183.769
X153.543Y-127.381
X153.543Y-129.159
X169.799Y-124.841
X169.799Y-126.619
X134.493Y-165.481
X134.493Y-167.259
X150.749Y-162.941
X150.749Y-164.719
X267.843Y-127.381
X267.843Y-129.159
X284.099Y-124.841
X284.099Y-126.619
X305.943Y-146.431
X305.943Y-148.209
X322.199Y-143.891
X322.199Y-145.669
T2
X76.581Y-102.235
X76.581Y-121.285
X76.581Y-140.335
X76.581Y-159.385
X76.581Y-178.435
X76.581Y-197.485
X86.995Y-80.391
X89.535Y-122.555
X89.535Y-141.605
X89.789Y-152.527
X90.297Y-128.143
X90.805Y-159.385
X90.805Y-178.435
X91.567Y-91.567
X92.837Y-84.455
X93.091Y-189.865
X94.361Y-136.271
X95.377Y-135.255
X95.631Y-102.235
X96.393Y-151.765
X97.409Y-150.495
X98.171Y-119.253
X99.441Y-118.491
X100.33Y-140.335
X100.457Y-159.385
X100.965Y-133.985
X101.981Y-113.411
X101.981Y-117.475
X103.759Y-118.745
X105.156Y-102.235
X105.283Y-118.745
X109.855Y-140.335
X109.982Y-159.385
X110.617Y-115.443
X111.125Y-140.335
X111.379Y-123.063
X112.014Y-138.43
X114.681Y-102.235
X114.681Y-124.587
X114.681Y-197.485
X115.443Y-169.037
X120.015Y-133.985
X120.523Y-81.915
X124.206Y-159.385
X127.889Y-123.063
X129.921Y-89.535
X133.223Y-82.677
X134.493Y-169.037
X139.065Y-133.985
X142.494Y-105.41
X143.256Y-159.385
X145.161Y-91.567
X146.431Y-110.109
X146.939Y-123.063
X152.781Y-197.485
X152.908Y-104.648
X153.543Y-169.037
X158.115Y-133.985
X161.417Y-105.41
X162.306Y-159.385
X165.989Y-123.063
X171.831Y-116.459
X172.593Y-169.037
X176.403Y-100.203
X177.165Y-133.985
X177.927Y-113.157
X180.721Y-106.045
X181.356Y-159.385
X181.737Y-122.428
X184.277Y-97.917
X185.039Y-123.063
X190.881Y-197.485
X195.199Y-175.387
X196.215Y-133.985
X199.517Y-107.315
X201.422Y-181.737
X204.089Y-123.317
X205.359Y-177.165
X209.931Y-163.449
X209.931Y-185.039
X212.471Y-159.385
X212.598Y-171.577
X213.487Y-136.779
X213.995Y-113.919
X214.757Y-100.711
X214.757Y-159.385
X215.265Y-133.985
X215.519Y-105.283
X218.059Y-125.095
X220.599Y-122.301
X221.615Y-136.779
X224.282Y-140.335
X224.282Y-159.385
X225.933Y-99.441
X226.568Y-121.158
X231.521Y-118.745
X234.315Y-133.985
X238.125Y-184.277
X242.189Y-121.285
X243.459Y-177.038
X248.031Y-197.485
X251.333Y-120.015
X252.857Y-139.446
X253.365Y-133.985
X257.429Y-125.984
X261.493Y-121.285
X264.795Y-99.441
X271.907Y-121.158
X272.161Y-114.427
X286.131Y-197.485
X292.608Y-99.695
X295.275Y-106.045
X324.231Y-197.485
X348.107Y-159.385
X348.742Y-115.443
X349.25Y-104.648
X352.933Y-100.965
X352.933Y-104.013
X355.219Y-103.759
X355.473Y-140.335
X356.743Y-108.839
X356.743Y-113.411
X356.743Y-146.939
X360.553Y-188.849
X362.331Y-102.235
X362.331Y-121.285
X362.331Y-140.335
X362.331Y-159.385
X362.331Y-178.435
X362.331Y-197.485
T3
X89.281Y-118.237
X89.662Y-147.193
X91.405Y-139.227
X91.567Y-115.951
X91.567Y-132.969
X93.091Y-151.765
X94.742Y-140.335
X117.221Y-91.059
X133.731Y-188.595
X154.559Y-82.677
X174.117Y-189.103
X206.629Y-183.261
X209.931Y-116.459
X215.011Y-191.389
X221.615Y-172.847
X269.875Y-193.421
X317.881Y-193.294
X357.759Y-94.615
X358.775Y-116.713
X358.775Y-152.019
X227.71Y-90.296
X227.71Y-96.646
X190.627Y-91.567
X190.627Y-97.917
X183.007Y-87.757
X183.007Y-94.107
X169.799Y-87.757
X169.799Y-94.107
X312.039Y-92.837
X312.039Y-99.187
X328.041Y-87.757
X328.041Y-94.107
X217.042Y-91.566
X217.042Y-97.916
X225.17Y-89.026
X225.17Y-95.376
X245.998Y-92.836
X245.998Y-99.186
X306.959Y-90.297
X306.959Y-96.647
X177.419Y-91.567
X177.419Y-97.917
X264.795Y-89.027
X264.795Y-95.377
X259.207Y-92.837
X259.207Y-99.187
X256.667Y-91.567
X256.667Y-97.917
X341.249Y-87.757
X341.249Y-94.107
X232.79Y-92.836
X232.79Y-99.186
X201.294Y-90.296
X201.294Y-96.646
X346.329Y-90.297
X346.329Y-96.647
X209.422Y-87.757
X209.422Y-94.107
X315.087Y-87.757
X315.087Y-94.107
X172.339Y-89.027
X172.339Y-95.377
X330.581Y-89.027
X330.581Y-95.377
X179.959Y-92.837
X179.959Y-99.187
X198.755Y-89.027
X198.755Y-95.377
X206.374Y-92.836
X206.374Y-99.186
X214.502Y-90.296
X214.502Y-96.646
X254.127Y-90.297
X254.127Y-96.647
X164.211Y-91.567
X164.211Y-97.917
X156.591Y-87.757
X156.591Y-94.107
X301.879Y-87.757
X301.879Y-94.107
X161.671Y-90.297
X161.671Y-96.647
X322.707Y-91.567
X322.707Y-97.917
X317.627Y-89.027
X317.627Y-95.377
X296.291Y-91.567
X296.291Y-97.917
X251.587Y-89.027
X251.587Y-95.377
X219.582Y-92.836
X219.582Y-99.186
X188.087Y-90.297
X188.087Y-96.647
X240.918Y-90.296
X240.918Y-96.646
X275.463Y-87.757
X275.463Y-94.107
X333.121Y-90.297
X333.121Y-96.647
X196.215Y-87.757
X196.215Y-94.107
X351.409Y-92.837
X351.409Y-99.187
X304.419Y-89.027
X304.419Y-95.377
X335.661Y-91.567
X335.661Y-97.917
X291.211Y-89.027
X291.211Y-95.377
X269.875Y-91.567
X269.875Y-97.917
X159.131Y-89.027
X159.131Y-95.377
X193.167Y-92.837
X193.167Y-99.187
X280.543Y-90.297
X280.543Y-96.647
X174.879Y-90.297
X174.879Y-96.647
X249.047Y-87.756
X249.047Y-94.106
X320.167Y-90.297
X320.167Y-96.647
X222.63Y-87.756
X222.63Y-94.106
X288.671Y-87.757
X288.671Y-94.107
X325.247Y-92.837
X325.247Y-99.187
X211.962Y-89.026
X211.962Y-95.376
X309.499Y-91.567
X309.499Y-97.917
X238.378Y-89.026
X238.378Y-95.376
X243.458Y-91.566
X243.458Y-97.916
X278.003Y-89.027
X278.003Y-95.377
X272.415Y-92.837
X272.415Y-99.187
X166.751Y-92.837
X166.751Y-99.187
X267.335Y-90.297
X267.335Y-96.647
X203.834Y-91.566
X203.834Y-97.916
X235.838Y-87.756
X235.838Y-94.106
X293.751Y-90.297
X293.751Y-96.647
X262.255Y-87.757
X262.255Y-94.107
X298.831Y-92.837
X298.831Y-99.187
X343.789Y-89.027
X343.789Y-95.377
X338.201Y-92.837
X338.201Y-99.187
X230.25Y-91.566
X230.25Y-97.916
X185.547Y-89.027
X185.547Y-95.377
X283.083Y-91.567
X283.083Y-97.917
X285.623Y-92.837
X285.623Y-99.187
X348.869Y-91.567
X348.869Y-97.917
T4
X88.999Y-81.917
X88.999Y-97.155
X90.269Y-80.647
X90.269Y-98.425
X91.539Y-81.917
X91.539Y-97.155
X92.809Y-80.647
X92.809Y-98.425
X94.079Y-81.917
X94.079Y-81.917
X94.079Y-97.155
X95.349Y-80.647
X95.349Y-98.425
X96.619Y-81.917
X96.619Y-97.155
X97.889Y-80.647
X97.889Y-98.425
X99.159Y-81.917
X99.159Y-97.155
X100.429Y-80.647
X100.429Y-98.425
X101.699Y-81.917
X101.699Y-97.155
X102.969Y-80.647
X102.969Y-98.425
X104.239Y-81.917
X104.239Y-97.155
X105.509Y-80.647
X105.509Y-98.425
X106.779Y-81.917
X106.779Y-97.155
X108.049Y-80.647
X108.049Y-98.425
X109.319Y-81.917
X109.319Y-97.155
X110.589Y-80.647
X110.589Y-98.425
X111.859Y-81.917
X111.859Y-97.155
X113.129Y-80.647
X113.129Y-98.425
X114.399Y-81.917
X114.399Y-97.157
X115.669Y-80.647
X115.669Y-98.427
X116.939Y-81.917
X116.939Y-97.157
X118.209Y-80.647
X118.209Y-98.427
T5
X236.006Y-161.91
X236.006Y-176.41
X238.506Y-176.41
X241.006Y-161.91
X241.006Y-176.41
X160.401Y-81.407
X162.941Y-81.407
X165.481Y-81.407
X197.906Y-161.91
X197.906Y-176.41
X200.406Y-176.41
X202.906Y-161.91
X202.906Y-176.41
T6
X123.115Y-79.411
X123.115Y-83.911
X129.615Y-79.411
X129.615Y-83.911
T7
X234.696Y-166.37
X241.046Y-163.83
X177.546Y-185.42
X183.896Y-182.88
X214.376Y-175.895
X215.646Y-166.37
X216.916Y-182.245
X221.996Y-163.83
X268.034Y-185.42
X274.066Y-193.04
X274.383Y-182.88
X280.416Y-190.5
X253.746Y-185.42
X260.096Y-182.88
X234.696Y-185.42
X240.728Y-193.04
X241.046Y-182.88
X247.078Y-190.5
X191.833Y-185.42
X197.866Y-193.04
X198.183Y-182.88
X204.216Y-190.5
X196.596Y-166.37
X202.946Y-163.83
X215.646Y-185.42
X221.996Y-182.88
X158.496Y-185.42
X164.528Y-193.04
X164.846Y-182.88
X170.879Y-190.5
T8
X359.791Y-80.645
X79.121Y-80.645
X359.791Y-98.425
X343.281Y-178.435
X248.031Y-178.435
X248.031Y-121.285
X95.631Y-121.285
X343.281Y-121.285
X79.121Y-98.425
X190.881Y-121.285
X190.881Y-178.435
X95.631Y-178.435
T7
G00X232.906Y-169.56
M15
G01X232.906Y-168.26
M16
G05
G00X244.106Y-169.56
M15
G01X244.106Y-168.26
M16
G05
G00X194.806Y-169.56
M15
G01X194.806Y-168.26
M16
G05
G00X206.006Y-169.56
M15
G01X206.006Y-168.26
M16
G05
T0
M30
