G04 #@! TF.GenerationSoftware,KiCad,Pcbnew,(5.1.5)-2*
G04 #@! TF.CreationDate,2020-11-13T23:18:45+09:00*
G04 #@! TF.ProjectId,astra515_swplate,61737472-6135-4313-955f-7377706c6174,rev?*
G04 #@! TF.SameCoordinates,Original*
G04 #@! TF.FileFunction,Legend,Top*
G04 #@! TF.FilePolarity,Positive*
%FSLAX46Y46*%
G04 Gerber Fmt 4.6, Leading zero omitted, Abs format (unit mm)*
G04 Created by KiCad (PCBNEW (5.1.5)-2) date 2020-11-13 23:18:45*
%MOMM*%
%LPD*%
G04 APERTURE LIST*
%ADD10C,0.120000*%
G04 APERTURE END LIST*
D10*
X211836000Y-135001000D02*
X211582000Y-135001000D01*
X213360000Y-135001000D02*
X213106000Y-135001000D01*
X214884000Y-135001000D02*
X214630000Y-135001000D01*
X216408000Y-135001000D02*
X216154000Y-135001000D01*
X217170000Y-135001000D02*
X216916000Y-135001000D01*
X176022000Y-135001000D02*
X175768000Y-135001000D01*
X175260000Y-135001000D02*
X175006000Y-135001000D01*
X174498000Y-135001000D02*
X174244000Y-135001000D01*
X178308000Y-135001000D02*
X178054000Y-135001000D01*
X173736000Y-135001000D02*
X173482000Y-135001000D01*
X179705000Y-135001000D02*
X179451000Y-135001000D01*
X179705000Y-135636000D02*
X179705000Y-135890000D01*
X179070000Y-135001000D02*
X178816000Y-135001000D01*
X172974000Y-135001000D02*
X172720000Y-135001000D01*
X179705000Y-135001000D02*
X179705000Y-135255000D01*
X177546000Y-135001000D02*
X177292000Y-135001000D01*
X172339000Y-135001000D02*
X172085000Y-135001000D01*
X172085000Y-135255000D02*
X172085000Y-135001000D01*
X172085000Y-135890000D02*
X172085000Y-135636000D01*
X175768000Y-150749000D02*
X176022000Y-150749000D01*
X176530000Y-150749000D02*
X176784000Y-150749000D01*
X177292000Y-150749000D02*
X177546000Y-150749000D01*
X173482000Y-150749000D02*
X173736000Y-150749000D01*
X178054000Y-150749000D02*
X178308000Y-150749000D01*
X172085000Y-150749000D02*
X172339000Y-150749000D01*
X172085000Y-150114000D02*
X172085000Y-149860000D01*
X172720000Y-150749000D02*
X172974000Y-150749000D01*
X178816000Y-150749000D02*
X179070000Y-150749000D01*
X175006000Y-150749000D02*
X175260000Y-150749000D01*
X172085000Y-150749000D02*
X172085000Y-150495000D01*
X174244000Y-150749000D02*
X174498000Y-150749000D01*
X179451000Y-150749000D02*
X179705000Y-150749000D01*
X179705000Y-150495000D02*
X179705000Y-150749000D01*
X179705000Y-149860000D02*
X179705000Y-150114000D01*
X213868000Y-150749000D02*
X214122000Y-150749000D01*
X214630000Y-150749000D02*
X214884000Y-150749000D01*
X215392000Y-150749000D02*
X215646000Y-150749000D01*
X211582000Y-150749000D02*
X211836000Y-150749000D01*
X216154000Y-150749000D02*
X216408000Y-150749000D01*
X210820000Y-150749000D02*
X211074000Y-150749000D01*
X216916000Y-150749000D02*
X217170000Y-150749000D01*
X213106000Y-150749000D02*
X213360000Y-150749000D01*
X212344000Y-150749000D02*
X212598000Y-150749000D01*
X217551000Y-150749000D02*
X217805000Y-150749000D01*
X217805000Y-150495000D02*
X217805000Y-150749000D01*
X217805000Y-149860000D02*
X217805000Y-150114000D01*
X175768000Y-150749000D02*
X176022000Y-150749000D01*
X176530000Y-150749000D02*
X176784000Y-150749000D01*
X177292000Y-150749000D02*
X177546000Y-150749000D01*
X173482000Y-150749000D02*
X173736000Y-150749000D01*
X178054000Y-150749000D02*
X178308000Y-150749000D01*
X172085000Y-150749000D02*
X172339000Y-150749000D01*
X172085000Y-150114000D02*
X172085000Y-149860000D01*
X172720000Y-150749000D02*
X172974000Y-150749000D01*
X178816000Y-150749000D02*
X179070000Y-150749000D01*
X175006000Y-150749000D02*
X175260000Y-150749000D01*
X172085000Y-150749000D02*
X172085000Y-150495000D01*
X174244000Y-150749000D02*
X174498000Y-150749000D01*
X179451000Y-150749000D02*
X179705000Y-150749000D01*
X179705000Y-150495000D02*
X179705000Y-150749000D01*
X179705000Y-149860000D02*
X179705000Y-150114000D01*
X176022000Y-135001000D02*
X175768000Y-135001000D01*
X175260000Y-135001000D02*
X175006000Y-135001000D01*
X174498000Y-135001000D02*
X174244000Y-135001000D01*
X178308000Y-135001000D02*
X178054000Y-135001000D01*
X173736000Y-135001000D02*
X173482000Y-135001000D01*
X179705000Y-135001000D02*
X179451000Y-135001000D01*
X179705000Y-135636000D02*
X179705000Y-135890000D01*
X179070000Y-135001000D02*
X178816000Y-135001000D01*
X172974000Y-135001000D02*
X172720000Y-135001000D01*
X176784000Y-135001000D02*
X176530000Y-135001000D01*
X179705000Y-135001000D02*
X179705000Y-135255000D01*
X177546000Y-135001000D02*
X177292000Y-135001000D01*
X172339000Y-135001000D02*
X172085000Y-135001000D01*
X172085000Y-135255000D02*
X172085000Y-135001000D01*
X172085000Y-135890000D02*
X172085000Y-135636000D01*
X213868000Y-150749000D02*
X214122000Y-150749000D01*
X214630000Y-150749000D02*
X214884000Y-150749000D01*
X215392000Y-150749000D02*
X215646000Y-150749000D01*
X211582000Y-150749000D02*
X211836000Y-150749000D01*
X216154000Y-150749000D02*
X216408000Y-150749000D01*
X210185000Y-150749000D02*
X210439000Y-150749000D01*
X210185000Y-150114000D02*
X210185000Y-149860000D01*
X210820000Y-150749000D02*
X211074000Y-150749000D01*
X216916000Y-150749000D02*
X217170000Y-150749000D01*
X213106000Y-150749000D02*
X213360000Y-150749000D01*
X210185000Y-150749000D02*
X210185000Y-150495000D01*
X212344000Y-150749000D02*
X212598000Y-150749000D01*
X217551000Y-150749000D02*
X217805000Y-150749000D01*
X217805000Y-150495000D02*
X217805000Y-150749000D01*
X217805000Y-149860000D02*
X217805000Y-150114000D01*
X217805000Y-135636000D02*
X217805000Y-135890000D01*
X217805000Y-135001000D02*
X217805000Y-135255000D01*
X217805000Y-135001000D02*
X217551000Y-135001000D01*
X215646000Y-135001000D02*
X215392000Y-135001000D01*
X214122000Y-135001000D02*
X213868000Y-135001000D01*
X212598000Y-135001000D02*
X212344000Y-135001000D01*
X211074000Y-135001000D02*
X210820000Y-135001000D01*
X210439000Y-135001000D02*
X210185000Y-135001000D01*
X210185000Y-135890000D02*
X210185000Y-135636000D01*
X210185000Y-135255000D02*
X210185000Y-135001000D01*
M02*
