G04 #@! TF.GenerationSoftware,KiCad,Pcbnew,(5.1.5)-2*
G04 #@! TF.CreationDate,2020-11-13T23:18:45+09:00*
G04 #@! TF.ProjectId,astra515_swplate,61737472-6135-4313-955f-7377706c6174,rev?*
G04 #@! TF.SameCoordinates,Original*
G04 #@! TF.FileFunction,Soldermask,Top*
G04 #@! TF.FilePolarity,Negative*
%FSLAX46Y46*%
G04 Gerber Fmt 4.6, Leading zero omitted, Abs format (unit mm)*
G04 Created by KiCad (PCBNEW (5.1.5)-2) date 2020-11-13 23:18:45*
%MOMM*%
%LPD*%
G04 APERTURE LIST*
%ADD10C,0.150000*%
%ADD11C,0.100000*%
G04 APERTURE END LIST*
D10*
X185893142Y-152937354D02*
X185836000Y-152882592D01*
X185778857Y-152780211D01*
X185778857Y-152542116D01*
X185836000Y-152454020D01*
X185893142Y-152413544D01*
X186007428Y-152380211D01*
X186121714Y-152394497D01*
X186293142Y-152463544D01*
X186978857Y-153120687D01*
X186978857Y-152501639D01*
X185778857Y-151923068D02*
X186750285Y-152044497D01*
X186864571Y-152011163D01*
X186921714Y-151970687D01*
X186978857Y-151882592D01*
X186978857Y-151692116D01*
X186921714Y-151589735D01*
X186864571Y-151534973D01*
X186750285Y-151473068D01*
X185778857Y-151351639D01*
X246072074Y-153958857D02*
X245500645Y-153958857D01*
X245786360Y-153958857D02*
X245936360Y-152758857D01*
X245819693Y-152930285D01*
X245710169Y-153044571D01*
X245607788Y-153101714D01*
X246514931Y-153844571D02*
X246555407Y-153901714D01*
X246500645Y-153958857D01*
X246460169Y-153901714D01*
X246514931Y-153844571D01*
X246500645Y-153958857D01*
X247603026Y-152758857D02*
X247126836Y-152758857D01*
X247007788Y-153330285D01*
X247062550Y-153273142D01*
X247164931Y-153216000D01*
X247403026Y-153216000D01*
X247491122Y-153273142D01*
X247531598Y-153330285D01*
X247564931Y-153444571D01*
X247529217Y-153730285D01*
X247467312Y-153844571D01*
X247412550Y-153901714D01*
X247310169Y-153958857D01*
X247072074Y-153958857D01*
X246983979Y-153901714D01*
X246943502Y-153844571D01*
X248079217Y-152758857D02*
X247957788Y-153730285D01*
X247991122Y-153844571D01*
X248031598Y-153901714D01*
X248119693Y-153958857D01*
X248310169Y-153958857D01*
X248412550Y-153901714D01*
X248467312Y-153844571D01*
X248529217Y-153730285D01*
X248650645Y-152758857D01*
X219763925Y-169891142D02*
X220335354Y-169891142D01*
X220049639Y-169891142D02*
X219899639Y-171091142D01*
X220016306Y-170919714D01*
X220125830Y-170805428D01*
X220228211Y-170748285D01*
X219321068Y-170005428D02*
X219280592Y-169948285D01*
X219335354Y-169891142D01*
X219375830Y-169948285D01*
X219321068Y-170005428D01*
X219335354Y-169891142D01*
X218232973Y-171091142D02*
X218709163Y-171091142D01*
X218828211Y-170519714D01*
X218773449Y-170576857D01*
X218671068Y-170634000D01*
X218432973Y-170634000D01*
X218344877Y-170576857D01*
X218304401Y-170519714D01*
X218271068Y-170405428D01*
X218306782Y-170119714D01*
X218368687Y-170005428D01*
X218423449Y-169948285D01*
X218525830Y-169891142D01*
X218763925Y-169891142D01*
X218852020Y-169948285D01*
X218892497Y-170005428D01*
X217756782Y-171091142D02*
X217878211Y-170119714D01*
X217844877Y-170005428D01*
X217804401Y-169948285D01*
X217716306Y-169891142D01*
X217525830Y-169891142D01*
X217423449Y-169948285D01*
X217368687Y-170005428D01*
X217306782Y-170119714D01*
X217185354Y-171091142D01*
X169872074Y-153958857D02*
X169300645Y-153958857D01*
X169586360Y-153958857D02*
X169736360Y-152758857D01*
X169619693Y-152930285D01*
X169510169Y-153044571D01*
X169407788Y-153101714D01*
X170314931Y-153844571D02*
X170355407Y-153901714D01*
X170300645Y-153958857D01*
X170260169Y-153901714D01*
X170314931Y-153844571D01*
X170300645Y-153958857D01*
X171403026Y-152758857D02*
X170926836Y-152758857D01*
X170807788Y-153330285D01*
X170862550Y-153273142D01*
X170964931Y-153216000D01*
X171203026Y-153216000D01*
X171291122Y-153273142D01*
X171331598Y-153330285D01*
X171364931Y-153444571D01*
X171329217Y-153730285D01*
X171267312Y-153844571D01*
X171212550Y-153901714D01*
X171110169Y-153958857D01*
X170872074Y-153958857D01*
X170783979Y-153901714D01*
X170743502Y-153844571D01*
X171879217Y-152758857D02*
X171757788Y-153730285D01*
X171791122Y-153844571D01*
X171831598Y-153901714D01*
X171919693Y-153958857D01*
X172110169Y-153958857D01*
X172212550Y-153901714D01*
X172267312Y-153844571D01*
X172329217Y-153730285D01*
X172450645Y-152758857D01*
X143817925Y-169891142D02*
X144389354Y-169891142D01*
X144103639Y-169891142D02*
X143953639Y-171091142D01*
X144070306Y-170919714D01*
X144179830Y-170805428D01*
X144282211Y-170748285D01*
X143375068Y-170005428D02*
X143334592Y-169948285D01*
X143389354Y-169891142D01*
X143429830Y-169948285D01*
X143375068Y-170005428D01*
X143389354Y-169891142D01*
X142286973Y-171091142D02*
X142763163Y-171091142D01*
X142882211Y-170519714D01*
X142827449Y-170576857D01*
X142725068Y-170634000D01*
X142486973Y-170634000D01*
X142398877Y-170576857D01*
X142358401Y-170519714D01*
X142325068Y-170405428D01*
X142360782Y-170119714D01*
X142422687Y-170005428D01*
X142477449Y-169948285D01*
X142579830Y-169891142D01*
X142817925Y-169891142D01*
X142906020Y-169948285D01*
X142946497Y-170005428D01*
X141810782Y-171091142D02*
X141932211Y-170119714D01*
X141898877Y-170005428D01*
X141858401Y-169948285D01*
X141770306Y-169891142D01*
X141579830Y-169891142D01*
X141477449Y-169948285D01*
X141422687Y-170005428D01*
X141360782Y-170119714D01*
X141239354Y-171091142D01*
X252450639Y-169891142D02*
X253022068Y-169891142D01*
X252736354Y-169891142D02*
X252586354Y-171091142D01*
X252703020Y-170919714D01*
X252812544Y-170805428D01*
X252914925Y-170748285D01*
X251872068Y-171091142D02*
X251993497Y-170119714D01*
X251960163Y-170005428D01*
X251919687Y-169948285D01*
X251831592Y-169891142D01*
X251641116Y-169891142D01*
X251538735Y-169948285D01*
X251483973Y-170005428D01*
X251422068Y-170119714D01*
X251300639Y-171091142D01*
X232689360Y-153958857D02*
X232117931Y-153958857D01*
X232403645Y-153958857D02*
X232553645Y-152758857D01*
X232436979Y-152930285D01*
X232327455Y-153044571D01*
X232225074Y-153101714D01*
X233267931Y-152758857D02*
X233146502Y-153730285D01*
X233179836Y-153844571D01*
X233220312Y-153901714D01*
X233308407Y-153958857D01*
X233498883Y-153958857D01*
X233601264Y-153901714D01*
X233656026Y-153844571D01*
X233717931Y-153730285D01*
X233839360Y-152758857D01*
X213639360Y-153958857D02*
X213067931Y-153958857D01*
X213353645Y-153958857D02*
X213503645Y-152758857D01*
X213386979Y-152930285D01*
X213277455Y-153044571D01*
X213175074Y-153101714D01*
X214217931Y-152758857D02*
X214096502Y-153730285D01*
X214129836Y-153844571D01*
X214170312Y-153901714D01*
X214258407Y-153958857D01*
X214448883Y-153958857D01*
X214551264Y-153901714D01*
X214606026Y-153844571D01*
X214667931Y-153730285D01*
X214789360Y-152758857D01*
X176123639Y-169891142D02*
X176695068Y-169891142D01*
X176409354Y-169891142D02*
X176259354Y-171091142D01*
X176376020Y-170919714D01*
X176485544Y-170805428D01*
X176587925Y-170748285D01*
X175545068Y-171091142D02*
X175666497Y-170119714D01*
X175633163Y-170005428D01*
X175592687Y-169948285D01*
X175504592Y-169891142D01*
X175314116Y-169891142D01*
X175211735Y-169948285D01*
X175156973Y-170005428D01*
X175095068Y-170119714D01*
X174973639Y-171091142D01*
X156489360Y-153958857D02*
X155917931Y-153958857D01*
X156203645Y-153958857D02*
X156353645Y-152758857D01*
X156236979Y-152930285D01*
X156127455Y-153044571D01*
X156025074Y-153101714D01*
X157067931Y-152758857D02*
X156946502Y-153730285D01*
X156979836Y-153844571D01*
X157020312Y-153901714D01*
X157108407Y-153958857D01*
X157298883Y-153958857D01*
X157401264Y-153901714D01*
X157456026Y-153844571D01*
X157517931Y-153730285D01*
X157639360Y-152758857D01*
X137439360Y-153958857D02*
X136867931Y-153958857D01*
X137153645Y-153958857D02*
X137303645Y-152758857D01*
X137186979Y-152930285D01*
X137077455Y-153044571D01*
X136975074Y-153101714D01*
X138017931Y-152758857D02*
X137896502Y-153730285D01*
X137929836Y-153844571D01*
X137970312Y-153901714D01*
X138058407Y-153958857D01*
X138248883Y-153958857D01*
X138351264Y-153901714D01*
X138406026Y-153844571D01*
X138467931Y-153730285D01*
X138589360Y-152758857D01*
D11*
G36*
X319131112Y-150584566D02*
G01*
X319309917Y-150620133D01*
X319449448Y-150677929D01*
X319646776Y-150759664D01*
X319949943Y-150962234D01*
X320207766Y-151220057D01*
X320410336Y-151523224D01*
X320549867Y-151860084D01*
X320621000Y-152217691D01*
X320621000Y-152582309D01*
X320549867Y-152939916D01*
X320410336Y-153276776D01*
X320207766Y-153579943D01*
X319949943Y-153837766D01*
X319646776Y-154040336D01*
X319449448Y-154122071D01*
X319309917Y-154179867D01*
X319131112Y-154215434D01*
X318952309Y-154251000D01*
X318587691Y-154251000D01*
X318408887Y-154215433D01*
X318230083Y-154179867D01*
X318090552Y-154122071D01*
X317893224Y-154040336D01*
X317590057Y-153837766D01*
X317332234Y-153579943D01*
X317129664Y-153276776D01*
X316990133Y-152939916D01*
X316919000Y-152582309D01*
X316919000Y-152217691D01*
X316990133Y-151860084D01*
X317129664Y-151523224D01*
X317332234Y-151220057D01*
X317590057Y-150962234D01*
X317893224Y-150759664D01*
X318090552Y-150677929D01*
X318230083Y-150620133D01*
X318408888Y-150584566D01*
X318587691Y-150549000D01*
X318952309Y-150549000D01*
X319131112Y-150584566D01*
G37*
G36*
X223881112Y-150584566D02*
G01*
X224059917Y-150620133D01*
X224199448Y-150677929D01*
X224396776Y-150759664D01*
X224699943Y-150962234D01*
X224957766Y-151220057D01*
X225160336Y-151523224D01*
X225299867Y-151860084D01*
X225371000Y-152217691D01*
X225371000Y-152582309D01*
X225299867Y-152939916D01*
X225160336Y-153276776D01*
X224957766Y-153579943D01*
X224699943Y-153837766D01*
X224396776Y-154040336D01*
X224199448Y-154122071D01*
X224059917Y-154179867D01*
X223881113Y-154215433D01*
X223702309Y-154251000D01*
X223337691Y-154251000D01*
X223158887Y-154215433D01*
X222980083Y-154179867D01*
X222840552Y-154122071D01*
X222643224Y-154040336D01*
X222340057Y-153837766D01*
X222082234Y-153579943D01*
X221879664Y-153276776D01*
X221740133Y-152939916D01*
X221669000Y-152582309D01*
X221669000Y-152217691D01*
X221740133Y-151860084D01*
X221879664Y-151523224D01*
X222082234Y-151220057D01*
X222340057Y-150962234D01*
X222643224Y-150759664D01*
X222840552Y-150677929D01*
X222980083Y-150620133D01*
X223158888Y-150584566D01*
X223337691Y-150549000D01*
X223702309Y-150549000D01*
X223881112Y-150584566D01*
G37*
G36*
X166731112Y-150584566D02*
G01*
X166909917Y-150620133D01*
X167049448Y-150677929D01*
X167246776Y-150759664D01*
X167549943Y-150962234D01*
X167807766Y-151220057D01*
X168010336Y-151523224D01*
X168149867Y-151860084D01*
X168221000Y-152217691D01*
X168221000Y-152582309D01*
X168149867Y-152939916D01*
X168010336Y-153276776D01*
X167807766Y-153579943D01*
X167549943Y-153837766D01*
X167246776Y-154040336D01*
X167049448Y-154122071D01*
X166909917Y-154179867D01*
X166731113Y-154215433D01*
X166552309Y-154251000D01*
X166187691Y-154251000D01*
X166008887Y-154215433D01*
X165830083Y-154179867D01*
X165690552Y-154122071D01*
X165493224Y-154040336D01*
X165190057Y-153837766D01*
X164932234Y-153579943D01*
X164729664Y-153276776D01*
X164590133Y-152939916D01*
X164519000Y-152582309D01*
X164519000Y-152217691D01*
X164590133Y-151860084D01*
X164729664Y-151523224D01*
X164932234Y-151220057D01*
X165190057Y-150962234D01*
X165493224Y-150759664D01*
X165690552Y-150677929D01*
X165830083Y-150620133D01*
X166008888Y-150584566D01*
X166187691Y-150549000D01*
X166552309Y-150549000D01*
X166731112Y-150584566D01*
G37*
G36*
X71481112Y-150584566D02*
G01*
X71659917Y-150620133D01*
X71799448Y-150677929D01*
X71996776Y-150759664D01*
X72299943Y-150962234D01*
X72557766Y-151220057D01*
X72760336Y-151523224D01*
X72899867Y-151860084D01*
X72971000Y-152217691D01*
X72971000Y-152582309D01*
X72899867Y-152939916D01*
X72760336Y-153276776D01*
X72557766Y-153579943D01*
X72299943Y-153837766D01*
X71996776Y-154040336D01*
X71799448Y-154122071D01*
X71659917Y-154179867D01*
X71481113Y-154215433D01*
X71302309Y-154251000D01*
X70937691Y-154251000D01*
X70758887Y-154215433D01*
X70580083Y-154179867D01*
X70440552Y-154122071D01*
X70243224Y-154040336D01*
X69940057Y-153837766D01*
X69682234Y-153579943D01*
X69479664Y-153276776D01*
X69340133Y-152939916D01*
X69269000Y-152582309D01*
X69269000Y-152217691D01*
X69340133Y-151860084D01*
X69479664Y-151523224D01*
X69682234Y-151220057D01*
X69940057Y-150962234D01*
X70243224Y-150759664D01*
X70440552Y-150677929D01*
X70580083Y-150620133D01*
X70758888Y-150584566D01*
X70937691Y-150549000D01*
X71302309Y-150549000D01*
X71481112Y-150584566D01*
G37*
G36*
X319131113Y-93434567D02*
G01*
X319309917Y-93470133D01*
X319449448Y-93527929D01*
X319646776Y-93609664D01*
X319949943Y-93812234D01*
X320207766Y-94070057D01*
X320410336Y-94373224D01*
X320549867Y-94710084D01*
X320621000Y-95067691D01*
X320621000Y-95432309D01*
X320549867Y-95789916D01*
X320410336Y-96126776D01*
X320207766Y-96429943D01*
X319949943Y-96687766D01*
X319646776Y-96890336D01*
X319449448Y-96972071D01*
X319309917Y-97029867D01*
X319131113Y-97065433D01*
X318952309Y-97101000D01*
X318587691Y-97101000D01*
X318408887Y-97065433D01*
X318230083Y-97029867D01*
X318090552Y-96972071D01*
X317893224Y-96890336D01*
X317590057Y-96687766D01*
X317332234Y-96429943D01*
X317129664Y-96126776D01*
X316990133Y-95789916D01*
X316919000Y-95432309D01*
X316919000Y-95067691D01*
X316990133Y-94710084D01*
X317129664Y-94373224D01*
X317332234Y-94070057D01*
X317590057Y-93812234D01*
X317893224Y-93609664D01*
X318090552Y-93527929D01*
X318230083Y-93470133D01*
X318408888Y-93434566D01*
X318587691Y-93399000D01*
X318952309Y-93399000D01*
X319131113Y-93434567D01*
G37*
G36*
X223881113Y-93434567D02*
G01*
X224059917Y-93470133D01*
X224199448Y-93527929D01*
X224396776Y-93609664D01*
X224699943Y-93812234D01*
X224957766Y-94070057D01*
X225160336Y-94373224D01*
X225299867Y-94710084D01*
X225371000Y-95067691D01*
X225371000Y-95432309D01*
X225299867Y-95789916D01*
X225160336Y-96126776D01*
X224957766Y-96429943D01*
X224699943Y-96687766D01*
X224396776Y-96890336D01*
X224199448Y-96972071D01*
X224059917Y-97029867D01*
X223881113Y-97065433D01*
X223702309Y-97101000D01*
X223337691Y-97101000D01*
X223158887Y-97065433D01*
X222980083Y-97029867D01*
X222840552Y-96972071D01*
X222643224Y-96890336D01*
X222340057Y-96687766D01*
X222082234Y-96429943D01*
X221879664Y-96126776D01*
X221740133Y-95789916D01*
X221669000Y-95432309D01*
X221669000Y-95067691D01*
X221740133Y-94710084D01*
X221879664Y-94373224D01*
X222082234Y-94070057D01*
X222340057Y-93812234D01*
X222643224Y-93609664D01*
X222840552Y-93527929D01*
X222980083Y-93470133D01*
X223158888Y-93434566D01*
X223337691Y-93399000D01*
X223702309Y-93399000D01*
X223881113Y-93434567D01*
G37*
G36*
X166731113Y-93434567D02*
G01*
X166909917Y-93470133D01*
X167049448Y-93527929D01*
X167246776Y-93609664D01*
X167549943Y-93812234D01*
X167807766Y-94070057D01*
X168010336Y-94373224D01*
X168149867Y-94710084D01*
X168221000Y-95067691D01*
X168221000Y-95432309D01*
X168149867Y-95789916D01*
X168010336Y-96126776D01*
X167807766Y-96429943D01*
X167549943Y-96687766D01*
X167246776Y-96890336D01*
X167049448Y-96972071D01*
X166909917Y-97029867D01*
X166731113Y-97065433D01*
X166552309Y-97101000D01*
X166187691Y-97101000D01*
X166008887Y-97065433D01*
X165830083Y-97029867D01*
X165690552Y-96972071D01*
X165493224Y-96890336D01*
X165190057Y-96687766D01*
X164932234Y-96429943D01*
X164729664Y-96126776D01*
X164590133Y-95789916D01*
X164519000Y-95432309D01*
X164519000Y-95067691D01*
X164590133Y-94710084D01*
X164729664Y-94373224D01*
X164932234Y-94070057D01*
X165190057Y-93812234D01*
X165493224Y-93609664D01*
X165690552Y-93527929D01*
X165830083Y-93470133D01*
X166008888Y-93434566D01*
X166187691Y-93399000D01*
X166552309Y-93399000D01*
X166731113Y-93434567D01*
G37*
G36*
X71481113Y-93434567D02*
G01*
X71659917Y-93470133D01*
X71799448Y-93527929D01*
X71996776Y-93609664D01*
X72299943Y-93812234D01*
X72557766Y-94070057D01*
X72760336Y-94373224D01*
X72899867Y-94710084D01*
X72971000Y-95067691D01*
X72971000Y-95432309D01*
X72899867Y-95789916D01*
X72760336Y-96126776D01*
X72557766Y-96429943D01*
X72299943Y-96687766D01*
X71996776Y-96890336D01*
X71799448Y-96972071D01*
X71659917Y-97029867D01*
X71481113Y-97065433D01*
X71302309Y-97101000D01*
X70937691Y-97101000D01*
X70758887Y-97065433D01*
X70580083Y-97029867D01*
X70440552Y-96972071D01*
X70243224Y-96890336D01*
X69940057Y-96687766D01*
X69682234Y-96429943D01*
X69479664Y-96126776D01*
X69340133Y-95789916D01*
X69269000Y-95432309D01*
X69269000Y-95067691D01*
X69340133Y-94710084D01*
X69479664Y-94373224D01*
X69682234Y-94070057D01*
X69940057Y-93812234D01*
X70243224Y-93609664D01*
X70440552Y-93527929D01*
X70580083Y-93470133D01*
X70758888Y-93434566D01*
X70937691Y-93399000D01*
X71302309Y-93399000D01*
X71481113Y-93434567D01*
G37*
M02*
