G04 #@! TF.GenerationSoftware,KiCad,Pcbnew,(5.1.5)-2*
G04 #@! TF.CreationDate,2020-11-13T23:18:45+09:00*
G04 #@! TF.ProjectId,astra515_swplate,61737472-6135-4313-955f-7377706c6174,rev?*
G04 #@! TF.SameCoordinates,Original*
G04 #@! TF.FileFunction,Profile,NP*
%FSLAX46Y46*%
G04 Gerber Fmt 4.6, Leading zero omitted, Abs format (unit mm)*
G04 Created by KiCad (PCBNEW (5.1.5)-2) date 2020-11-13 23:18:45*
%MOMM*%
%LPD*%
G04 APERTURE LIST*
%ADD10C,0.100000*%
G04 APERTURE END LIST*
D10*
X187945000Y-143875000D02*
X187945000Y-154925000D01*
X187945000Y-135875000D02*
X187945000Y-136875000D01*
X187945000Y-154925000D02*
X187945000Y-160925000D01*
X185945000Y-160925000D02*
X187945000Y-160925000D01*
X185945000Y-167925000D02*
X185945000Y-160925000D01*
X187945000Y-167925000D02*
X185945000Y-167925000D01*
X185945000Y-143875000D02*
X187945000Y-143875000D01*
X185945000Y-136875000D02*
X185945000Y-143875000D01*
X187945000Y-136875000D02*
X185945000Y-136875000D01*
X321295000Y-154925000D02*
X321295000Y-168925000D01*
X335295000Y-168925000D02*
X321295000Y-168925000D01*
X335295000Y-135875000D02*
X335295000Y-149875000D01*
X335295000Y-154925000D02*
X335295000Y-168925000D01*
X335295000Y-149875000D02*
X321295000Y-149875000D01*
X335295000Y-154925000D02*
X321295000Y-154925000D01*
X335295000Y-135875000D02*
X321295000Y-135875000D01*
X321295000Y-135875000D02*
X321295000Y-149875000D01*
X321295000Y-116825000D02*
X321295000Y-130825000D01*
X335295000Y-130825000D02*
X321295000Y-130825000D01*
X335295000Y-116825000D02*
X321295000Y-116825000D01*
X335295000Y-116825000D02*
X335295000Y-130825000D01*
X321295000Y-78725000D02*
X321295000Y-92725000D01*
X335295000Y-92725000D02*
X321295000Y-92725000D01*
X335295000Y-78725000D02*
X321295000Y-78725000D01*
X335295000Y-78725000D02*
X335295000Y-92725000D01*
X335295000Y-97775000D02*
X321295000Y-97775000D01*
X321295000Y-97775000D02*
X321295000Y-111775000D01*
X335295000Y-111775000D02*
X321295000Y-111775000D01*
X335295000Y-97775000D02*
X335295000Y-111775000D01*
X302245000Y-154925000D02*
X302245000Y-168925000D01*
X316245000Y-168925000D02*
X302245000Y-168925000D01*
X316245000Y-135875000D02*
X316245000Y-149875000D01*
X316245000Y-154925000D02*
X316245000Y-168925000D01*
X316245000Y-149875000D02*
X302245000Y-149875000D01*
X316245000Y-154925000D02*
X302245000Y-154925000D01*
X316245000Y-135875000D02*
X302245000Y-135875000D01*
X302245000Y-135875000D02*
X302245000Y-149875000D01*
X302245000Y-116825000D02*
X302245000Y-130825000D01*
X316245000Y-130825000D02*
X302245000Y-130825000D01*
X316245000Y-116825000D02*
X302245000Y-116825000D01*
X316245000Y-116825000D02*
X316245000Y-130825000D01*
X302245000Y-78725000D02*
X302245000Y-92725000D01*
X316245000Y-92725000D02*
X302245000Y-92725000D01*
X316245000Y-78725000D02*
X302245000Y-78725000D01*
X316245000Y-78725000D02*
X316245000Y-92725000D01*
X316245000Y-97775000D02*
X302245000Y-97775000D01*
X302245000Y-97775000D02*
X302245000Y-111775000D01*
X316245000Y-111775000D02*
X302245000Y-111775000D01*
X316245000Y-97775000D02*
X316245000Y-111775000D01*
X283195000Y-154925000D02*
X283195000Y-168925000D01*
X297195000Y-168925000D02*
X283195000Y-168925000D01*
X297195000Y-135875000D02*
X297195000Y-149875000D01*
X297195000Y-154925000D02*
X297195000Y-168925000D01*
X297195000Y-149875000D02*
X283195000Y-149875000D01*
X297195000Y-154925000D02*
X283195000Y-154925000D01*
X297195000Y-135875000D02*
X283195000Y-135875000D01*
X283195000Y-135875000D02*
X283195000Y-149875000D01*
X283195000Y-116825000D02*
X283195000Y-130825000D01*
X297195000Y-130825000D02*
X283195000Y-130825000D01*
X297195000Y-116825000D02*
X283195000Y-116825000D01*
X297195000Y-116825000D02*
X297195000Y-130825000D01*
X283195000Y-78725000D02*
X283195000Y-92725000D01*
X297195000Y-92725000D02*
X283195000Y-92725000D01*
X297195000Y-78725000D02*
X283195000Y-78725000D01*
X297195000Y-78725000D02*
X297195000Y-92725000D01*
X297195000Y-97775000D02*
X283195000Y-97775000D01*
X283195000Y-97775000D02*
X283195000Y-111775000D01*
X297195000Y-111775000D02*
X283195000Y-111775000D01*
X297195000Y-97775000D02*
X297195000Y-111775000D01*
X264145000Y-154925000D02*
X264145000Y-168925000D01*
X278145000Y-168925000D02*
X264145000Y-168925000D01*
X278145000Y-135875000D02*
X278145000Y-149875000D01*
X278145000Y-154925000D02*
X278145000Y-168925000D01*
X278145000Y-149875000D02*
X264145000Y-149875000D01*
X278145000Y-154925000D02*
X264145000Y-154925000D01*
X278145000Y-135875000D02*
X264145000Y-135875000D01*
X264145000Y-135875000D02*
X264145000Y-149875000D01*
X264145000Y-116825000D02*
X264145000Y-130825000D01*
X278145000Y-130825000D02*
X264145000Y-130825000D01*
X278145000Y-116825000D02*
X264145000Y-116825000D01*
X278145000Y-116825000D02*
X278145000Y-130825000D01*
X264145000Y-78725000D02*
X264145000Y-92725000D01*
X278145000Y-92725000D02*
X264145000Y-92725000D01*
X278145000Y-78725000D02*
X264145000Y-78725000D01*
X278145000Y-78725000D02*
X278145000Y-92725000D01*
X278145000Y-97775000D02*
X264145000Y-97775000D01*
X264145000Y-97775000D02*
X264145000Y-111775000D01*
X278145000Y-111775000D02*
X264145000Y-111775000D01*
X278145000Y-97775000D02*
X278145000Y-111775000D01*
X259095000Y-168925000D02*
X245095000Y-168925000D01*
X259095000Y-135875000D02*
X259095000Y-149875000D01*
X259095000Y-154925000D02*
X259095000Y-168925000D01*
X259095000Y-149875000D02*
X245095000Y-149875000D01*
X259095000Y-154925000D02*
X245095000Y-154925000D01*
X259095000Y-135875000D02*
X245095000Y-135875000D01*
X245095000Y-135875000D02*
X245095000Y-149875000D01*
X245095000Y-116825000D02*
X245095000Y-130825000D01*
X259095000Y-130825000D02*
X245095000Y-130825000D01*
X259095000Y-116825000D02*
X245095000Y-116825000D01*
X259095000Y-116825000D02*
X259095000Y-130825000D01*
X245095000Y-78725000D02*
X245095000Y-92725000D01*
X259095000Y-92725000D02*
X245095000Y-92725000D01*
X259095000Y-78725000D02*
X245095000Y-78725000D01*
X259095000Y-78725000D02*
X259095000Y-92725000D01*
X259095000Y-97775000D02*
X245095000Y-97775000D01*
X245095000Y-97775000D02*
X245095000Y-111775000D01*
X259095000Y-111775000D02*
X245095000Y-111775000D01*
X259095000Y-97775000D02*
X259095000Y-111775000D01*
X245095000Y-168925000D02*
X226045000Y-168925000D01*
X240045000Y-135875000D02*
X240045000Y-149875000D01*
X240045000Y-149875000D02*
X226045000Y-149875000D01*
X245095000Y-154925000D02*
X226045000Y-154925000D01*
X240045000Y-135875000D02*
X226045000Y-135875000D01*
X226045000Y-135875000D02*
X226045000Y-149875000D01*
X226045000Y-116825000D02*
X226045000Y-130825000D01*
X240045000Y-130825000D02*
X226045000Y-130825000D01*
X240045000Y-116825000D02*
X226045000Y-116825000D01*
X240045000Y-116825000D02*
X240045000Y-130825000D01*
X226045000Y-78725000D02*
X226045000Y-92725000D01*
X240045000Y-92725000D02*
X226045000Y-92725000D01*
X240045000Y-78725000D02*
X226045000Y-78725000D01*
X240045000Y-78725000D02*
X240045000Y-92725000D01*
X240045000Y-97775000D02*
X226045000Y-97775000D01*
X226045000Y-97775000D02*
X226045000Y-111775000D01*
X240045000Y-111775000D02*
X226045000Y-111775000D01*
X240045000Y-97775000D02*
X240045000Y-111775000D01*
X206995000Y-154925000D02*
X206995000Y-168925000D01*
X226045000Y-168925000D02*
X206995000Y-168925000D01*
X220995000Y-135875000D02*
X220995000Y-149875000D01*
X220995000Y-149875000D02*
X206995000Y-149875000D01*
X226045000Y-154925000D02*
X206995000Y-154925000D01*
X220995000Y-135875000D02*
X206995000Y-135875000D01*
X206995000Y-135875000D02*
X206995000Y-149875000D01*
X206995000Y-116825000D02*
X206995000Y-130825000D01*
X220995000Y-130825000D02*
X206995000Y-130825000D01*
X220995000Y-116825000D02*
X206995000Y-116825000D01*
X220995000Y-116825000D02*
X220995000Y-130825000D01*
X206995000Y-78725000D02*
X206995000Y-92725000D01*
X220995000Y-92725000D02*
X206995000Y-92725000D01*
X220995000Y-78725000D02*
X206995000Y-78725000D01*
X220995000Y-78725000D02*
X220995000Y-92725000D01*
X220995000Y-97775000D02*
X206995000Y-97775000D01*
X206995000Y-97775000D02*
X206995000Y-111775000D01*
X220995000Y-111775000D02*
X206995000Y-111775000D01*
X220995000Y-97775000D02*
X220995000Y-111775000D01*
X187945000Y-167925000D02*
X187945000Y-168925000D01*
X201945000Y-168925000D02*
X187945000Y-168925000D01*
X201945000Y-135875000D02*
X201945000Y-154925000D01*
X201945000Y-154925000D02*
X201945000Y-168925000D01*
X201945000Y-135875000D02*
X187945000Y-135875000D01*
X187945000Y-116825000D02*
X187945000Y-130825000D01*
X201945000Y-130825000D02*
X187945000Y-130825000D01*
X201945000Y-116825000D02*
X187945000Y-116825000D01*
X201945000Y-116825000D02*
X201945000Y-130825000D01*
X187945000Y-78725000D02*
X187945000Y-92725000D01*
X201945000Y-92725000D02*
X187945000Y-92725000D01*
X201945000Y-78725000D02*
X187945000Y-78725000D01*
X201945000Y-78725000D02*
X201945000Y-92725000D01*
X201945000Y-97775000D02*
X187945000Y-97775000D01*
X187945000Y-97775000D02*
X187945000Y-111775000D01*
X201945000Y-111775000D02*
X187945000Y-111775000D01*
X201945000Y-97775000D02*
X201945000Y-111775000D01*
X182895000Y-168925000D02*
X168895000Y-168925000D01*
X182895000Y-135875000D02*
X182895000Y-149875000D01*
X182895000Y-154925000D02*
X182895000Y-168925000D01*
X182895000Y-149875000D02*
X168895000Y-149875000D01*
X182895000Y-154925000D02*
X168895000Y-154925000D01*
X182895000Y-135875000D02*
X168895000Y-135875000D01*
X168895000Y-135875000D02*
X168895000Y-149875000D01*
X168895000Y-116825000D02*
X168895000Y-130825000D01*
X182895000Y-130825000D02*
X168895000Y-130825000D01*
X182895000Y-116825000D02*
X168895000Y-116825000D01*
X182895000Y-116825000D02*
X182895000Y-130825000D01*
X168895000Y-78725000D02*
X168895000Y-92725000D01*
X182895000Y-92725000D02*
X168895000Y-92725000D01*
X182895000Y-78725000D02*
X168895000Y-78725000D01*
X182895000Y-78725000D02*
X182895000Y-92725000D01*
X182895000Y-97775000D02*
X168895000Y-97775000D01*
X168895000Y-97775000D02*
X168895000Y-111775000D01*
X182895000Y-111775000D02*
X168895000Y-111775000D01*
X182895000Y-97775000D02*
X182895000Y-111775000D01*
X168895000Y-168925000D02*
X149845000Y-168925000D01*
X163845000Y-135875000D02*
X163845000Y-149875000D01*
X163845000Y-149875000D02*
X149845000Y-149875000D01*
X168895000Y-154925000D02*
X149845000Y-154925000D01*
X163845000Y-135875000D02*
X149845000Y-135875000D01*
X149845000Y-135875000D02*
X149845000Y-149875000D01*
X149845000Y-116825000D02*
X149845000Y-130825000D01*
X163845000Y-130825000D02*
X149845000Y-130825000D01*
X163845000Y-116825000D02*
X149845000Y-116825000D01*
X163845000Y-116825000D02*
X163845000Y-130825000D01*
X149845000Y-78725000D02*
X149845000Y-92725000D01*
X163845000Y-92725000D02*
X149845000Y-92725000D01*
X163845000Y-78725000D02*
X149845000Y-78725000D01*
X163845000Y-78725000D02*
X163845000Y-92725000D01*
X163845000Y-97775000D02*
X149845000Y-97775000D01*
X149845000Y-97775000D02*
X149845000Y-111775000D01*
X163845000Y-111775000D02*
X149845000Y-111775000D01*
X163845000Y-97775000D02*
X163845000Y-111775000D01*
X130795000Y-154925000D02*
X130795000Y-168925000D01*
X149845000Y-168925000D02*
X130795000Y-168925000D01*
X144795000Y-135875000D02*
X144795000Y-149875000D01*
X144795000Y-149875000D02*
X130795000Y-149875000D01*
X149845000Y-154925000D02*
X130795000Y-154925000D01*
X144795000Y-135875000D02*
X130795000Y-135875000D01*
X130795000Y-135875000D02*
X130795000Y-149875000D01*
X130795000Y-116825000D02*
X130795000Y-130825000D01*
X144795000Y-130825000D02*
X130795000Y-130825000D01*
X144795000Y-116825000D02*
X130795000Y-116825000D01*
X144795000Y-116825000D02*
X144795000Y-130825000D01*
X130795000Y-78725000D02*
X130795000Y-92725000D01*
X144795000Y-92725000D02*
X130795000Y-92725000D01*
X144795000Y-78725000D02*
X130795000Y-78725000D01*
X144795000Y-78725000D02*
X144795000Y-92725000D01*
X144795000Y-97775000D02*
X130795000Y-97775000D01*
X130795000Y-97775000D02*
X130795000Y-111775000D01*
X144795000Y-111775000D02*
X130795000Y-111775000D01*
X144795000Y-97775000D02*
X144795000Y-111775000D01*
X111745000Y-154925000D02*
X111745000Y-168925000D01*
X125745000Y-168925000D02*
X111745000Y-168925000D01*
X125745000Y-135875000D02*
X125745000Y-149875000D01*
X125745000Y-154925000D02*
X125745000Y-168925000D01*
X125745000Y-149875000D02*
X111745000Y-149875000D01*
X125745000Y-154925000D02*
X111745000Y-154925000D01*
X125745000Y-135875000D02*
X111745000Y-135875000D01*
X111745000Y-135875000D02*
X111745000Y-149875000D01*
X111745000Y-116825000D02*
X111745000Y-130825000D01*
X125745000Y-130825000D02*
X111745000Y-130825000D01*
X125745000Y-116825000D02*
X111745000Y-116825000D01*
X125745000Y-116825000D02*
X125745000Y-130825000D01*
X111745000Y-78725000D02*
X111745000Y-92725000D01*
X125745000Y-92725000D02*
X111745000Y-92725000D01*
X125745000Y-78725000D02*
X111745000Y-78725000D01*
X125745000Y-78725000D02*
X125745000Y-92725000D01*
X125745000Y-97775000D02*
X111745000Y-97775000D01*
X111745000Y-97775000D02*
X111745000Y-111775000D01*
X125745000Y-111775000D02*
X111745000Y-111775000D01*
X125745000Y-97775000D02*
X125745000Y-111775000D01*
X92695000Y-154925000D02*
X92695000Y-168925000D01*
X106695000Y-168925000D02*
X92695000Y-168925000D01*
X106695000Y-135875000D02*
X106695000Y-149875000D01*
X106695000Y-154925000D02*
X106695000Y-168925000D01*
X106695000Y-149875000D02*
X92695000Y-149875000D01*
X106695000Y-154925000D02*
X92695000Y-154925000D01*
X106695000Y-135875000D02*
X92695000Y-135875000D01*
X92695000Y-135875000D02*
X92695000Y-149875000D01*
X92695000Y-116825000D02*
X92695000Y-130825000D01*
X106695000Y-130825000D02*
X92695000Y-130825000D01*
X106695000Y-116825000D02*
X92695000Y-116825000D01*
X106695000Y-116825000D02*
X106695000Y-130825000D01*
X92695000Y-78725000D02*
X92695000Y-92725000D01*
X106695000Y-92725000D02*
X92695000Y-92725000D01*
X106695000Y-78725000D02*
X92695000Y-78725000D01*
X106695000Y-78725000D02*
X106695000Y-92725000D01*
X106695000Y-97775000D02*
X92695000Y-97775000D01*
X92695000Y-97775000D02*
X92695000Y-111775000D01*
X106695000Y-111775000D02*
X92695000Y-111775000D01*
X106695000Y-97775000D02*
X106695000Y-111775000D01*
X73645000Y-154925000D02*
X73645000Y-168925000D01*
X87645000Y-168925000D02*
X73645000Y-168925000D01*
X87645000Y-135875000D02*
X87645000Y-149875000D01*
X87645000Y-154925000D02*
X87645000Y-168925000D01*
X87645000Y-149875000D02*
X73645000Y-149875000D01*
X87645000Y-154925000D02*
X73645000Y-154925000D01*
X87645000Y-135875000D02*
X73645000Y-135875000D01*
X73645000Y-135875000D02*
X73645000Y-149875000D01*
X73645000Y-116825000D02*
X73645000Y-130825000D01*
X87645000Y-130825000D02*
X73645000Y-130825000D01*
X87645000Y-116825000D02*
X73645000Y-116825000D01*
X87645000Y-116825000D02*
X87645000Y-130825000D01*
X73645000Y-78725000D02*
X73645000Y-92725000D01*
X87645000Y-92725000D02*
X73645000Y-92725000D01*
X87645000Y-78725000D02*
X73645000Y-78725000D01*
X87645000Y-78725000D02*
X87645000Y-92725000D01*
X87645000Y-97775000D02*
X73645000Y-97775000D01*
X73645000Y-97775000D02*
X73645000Y-111775000D01*
X87645000Y-111775000D02*
X73645000Y-111775000D01*
X87645000Y-97775000D02*
X87645000Y-111775000D01*
X54595000Y-154925000D02*
X54595000Y-168925000D01*
X68595000Y-168925000D02*
X54595000Y-168925000D01*
X68595000Y-154925000D02*
X54595000Y-154925000D01*
X68595000Y-154925000D02*
X68595000Y-168925000D01*
X54595000Y-135875000D02*
X54595000Y-149875000D01*
X68595000Y-149875000D02*
X54595000Y-149875000D01*
X68595000Y-135875000D02*
X54595000Y-135875000D01*
X68595000Y-135875000D02*
X68595000Y-149875000D01*
X54595000Y-116825000D02*
X54595000Y-130825000D01*
X68595000Y-130825000D02*
X54595000Y-130825000D01*
X68595000Y-116825000D02*
X54595000Y-116825000D01*
X68595000Y-116825000D02*
X68595000Y-130825000D01*
X54595000Y-97775000D02*
X54595000Y-111775000D01*
X68595000Y-111775000D02*
X54595000Y-111775000D01*
X68595000Y-97775000D02*
X54595000Y-97775000D01*
X68595000Y-97775000D02*
X68595000Y-111775000D01*
X68595000Y-78725000D02*
X68595000Y-92725000D01*
X54595000Y-78725000D02*
X54595000Y-92725000D01*
X68595000Y-92725000D02*
X54595000Y-92725000D01*
X68595000Y-78725000D02*
X54595000Y-78725000D01*
X337820000Y-76200000D02*
X52070000Y-76200000D01*
X336550000Y-173990000D02*
X53340000Y-173990000D01*
X339090000Y-171450000D02*
X339090000Y-77470000D01*
X50800000Y-171450000D02*
X50800000Y-77470000D01*
X53340000Y-173990000D02*
G75*
G02X50800000Y-171450000I0J2540000D01*
G01*
X339090000Y-171450000D02*
G75*
G02X336550000Y-173990000I-2540000J0D01*
G01*
X337820000Y-76200000D02*
G75*
G02X339090000Y-77470000I0J-1270000D01*
G01*
X50800000Y-77470000D02*
G75*
G02X52070000Y-76200000I1270000J0D01*
G01*
M02*
