G04 #@! TF.GenerationSoftware,KiCad,Pcbnew,(5.1.5)-2*
G04 #@! TF.CreationDate,2020-11-13T23:18:45+09:00*
G04 #@! TF.ProjectId,astra515_swplate,61737472-6135-4313-955f-7377706c6174,rev?*
G04 #@! TF.SameCoordinates,Original*
G04 #@! TF.FileFunction,Soldermask,Bot*
G04 #@! TF.FilePolarity,Negative*
%FSLAX46Y46*%
G04 Gerber Fmt 4.6, Leading zero omitted, Abs format (unit mm)*
G04 Created by KiCad (PCBNEW (5.1.5)-2) date 2020-11-13 23:18:45*
%MOMM*%
%LPD*%
G04 APERTURE LIST*
%ADD10C,0.100000*%
G04 APERTURE END LIST*
D10*
G36*
X319131112Y-150584566D02*
G01*
X319309917Y-150620133D01*
X319449448Y-150677929D01*
X319646776Y-150759664D01*
X319949943Y-150962234D01*
X320207766Y-151220057D01*
X320410336Y-151523224D01*
X320549867Y-151860084D01*
X320621000Y-152217691D01*
X320621000Y-152582309D01*
X320549867Y-152939916D01*
X320410336Y-153276776D01*
X320207766Y-153579943D01*
X319949943Y-153837766D01*
X319646776Y-154040336D01*
X319449448Y-154122071D01*
X319309917Y-154179867D01*
X319131112Y-154215434D01*
X318952309Y-154251000D01*
X318587691Y-154251000D01*
X318408887Y-154215433D01*
X318230083Y-154179867D01*
X318090552Y-154122071D01*
X317893224Y-154040336D01*
X317590057Y-153837766D01*
X317332234Y-153579943D01*
X317129664Y-153276776D01*
X316990133Y-152939916D01*
X316919000Y-152582309D01*
X316919000Y-152217691D01*
X316990133Y-151860084D01*
X317129664Y-151523224D01*
X317332234Y-151220057D01*
X317590057Y-150962234D01*
X317893224Y-150759664D01*
X318090552Y-150677929D01*
X318230083Y-150620133D01*
X318408888Y-150584566D01*
X318587691Y-150549000D01*
X318952309Y-150549000D01*
X319131112Y-150584566D01*
G37*
G36*
X223881112Y-150584566D02*
G01*
X224059917Y-150620133D01*
X224199448Y-150677929D01*
X224396776Y-150759664D01*
X224699943Y-150962234D01*
X224957766Y-151220057D01*
X225160336Y-151523224D01*
X225299867Y-151860084D01*
X225371000Y-152217691D01*
X225371000Y-152582309D01*
X225299867Y-152939916D01*
X225160336Y-153276776D01*
X224957766Y-153579943D01*
X224699943Y-153837766D01*
X224396776Y-154040336D01*
X224199448Y-154122071D01*
X224059917Y-154179867D01*
X223881113Y-154215433D01*
X223702309Y-154251000D01*
X223337691Y-154251000D01*
X223158887Y-154215433D01*
X222980083Y-154179867D01*
X222840552Y-154122071D01*
X222643224Y-154040336D01*
X222340057Y-153837766D01*
X222082234Y-153579943D01*
X221879664Y-153276776D01*
X221740133Y-152939916D01*
X221669000Y-152582309D01*
X221669000Y-152217691D01*
X221740133Y-151860084D01*
X221879664Y-151523224D01*
X222082234Y-151220057D01*
X222340057Y-150962234D01*
X222643224Y-150759664D01*
X222840552Y-150677929D01*
X222980083Y-150620133D01*
X223158888Y-150584566D01*
X223337691Y-150549000D01*
X223702309Y-150549000D01*
X223881112Y-150584566D01*
G37*
G36*
X166731112Y-150584566D02*
G01*
X166909917Y-150620133D01*
X167049448Y-150677929D01*
X167246776Y-150759664D01*
X167549943Y-150962234D01*
X167807766Y-151220057D01*
X168010336Y-151523224D01*
X168149867Y-151860084D01*
X168221000Y-152217691D01*
X168221000Y-152582309D01*
X168149867Y-152939916D01*
X168010336Y-153276776D01*
X167807766Y-153579943D01*
X167549943Y-153837766D01*
X167246776Y-154040336D01*
X167049448Y-154122071D01*
X166909917Y-154179867D01*
X166731113Y-154215433D01*
X166552309Y-154251000D01*
X166187691Y-154251000D01*
X166008887Y-154215433D01*
X165830083Y-154179867D01*
X165690552Y-154122071D01*
X165493224Y-154040336D01*
X165190057Y-153837766D01*
X164932234Y-153579943D01*
X164729664Y-153276776D01*
X164590133Y-152939916D01*
X164519000Y-152582309D01*
X164519000Y-152217691D01*
X164590133Y-151860084D01*
X164729664Y-151523224D01*
X164932234Y-151220057D01*
X165190057Y-150962234D01*
X165493224Y-150759664D01*
X165690552Y-150677929D01*
X165830083Y-150620133D01*
X166008888Y-150584566D01*
X166187691Y-150549000D01*
X166552309Y-150549000D01*
X166731112Y-150584566D01*
G37*
G36*
X71481112Y-150584566D02*
G01*
X71659917Y-150620133D01*
X71799448Y-150677929D01*
X71996776Y-150759664D01*
X72299943Y-150962234D01*
X72557766Y-151220057D01*
X72760336Y-151523224D01*
X72899867Y-151860084D01*
X72971000Y-152217691D01*
X72971000Y-152582309D01*
X72899867Y-152939916D01*
X72760336Y-153276776D01*
X72557766Y-153579943D01*
X72299943Y-153837766D01*
X71996776Y-154040336D01*
X71799448Y-154122071D01*
X71659917Y-154179867D01*
X71481113Y-154215433D01*
X71302309Y-154251000D01*
X70937691Y-154251000D01*
X70758887Y-154215433D01*
X70580083Y-154179867D01*
X70440552Y-154122071D01*
X70243224Y-154040336D01*
X69940057Y-153837766D01*
X69682234Y-153579943D01*
X69479664Y-153276776D01*
X69340133Y-152939916D01*
X69269000Y-152582309D01*
X69269000Y-152217691D01*
X69340133Y-151860084D01*
X69479664Y-151523224D01*
X69682234Y-151220057D01*
X69940057Y-150962234D01*
X70243224Y-150759664D01*
X70440552Y-150677929D01*
X70580083Y-150620133D01*
X70758888Y-150584566D01*
X70937691Y-150549000D01*
X71302309Y-150549000D01*
X71481112Y-150584566D01*
G37*
G36*
X319131113Y-93434567D02*
G01*
X319309917Y-93470133D01*
X319449448Y-93527929D01*
X319646776Y-93609664D01*
X319949943Y-93812234D01*
X320207766Y-94070057D01*
X320410336Y-94373224D01*
X320549867Y-94710084D01*
X320621000Y-95067691D01*
X320621000Y-95432309D01*
X320549867Y-95789916D01*
X320410336Y-96126776D01*
X320207766Y-96429943D01*
X319949943Y-96687766D01*
X319646776Y-96890336D01*
X319449448Y-96972071D01*
X319309917Y-97029867D01*
X319131113Y-97065433D01*
X318952309Y-97101000D01*
X318587691Y-97101000D01*
X318408887Y-97065433D01*
X318230083Y-97029867D01*
X318090552Y-96972071D01*
X317893224Y-96890336D01*
X317590057Y-96687766D01*
X317332234Y-96429943D01*
X317129664Y-96126776D01*
X316990133Y-95789916D01*
X316919000Y-95432309D01*
X316919000Y-95067691D01*
X316990133Y-94710084D01*
X317129664Y-94373224D01*
X317332234Y-94070057D01*
X317590057Y-93812234D01*
X317893224Y-93609664D01*
X318090552Y-93527929D01*
X318230083Y-93470133D01*
X318408888Y-93434566D01*
X318587691Y-93399000D01*
X318952309Y-93399000D01*
X319131113Y-93434567D01*
G37*
G36*
X223881113Y-93434567D02*
G01*
X224059917Y-93470133D01*
X224199448Y-93527929D01*
X224396776Y-93609664D01*
X224699943Y-93812234D01*
X224957766Y-94070057D01*
X225160336Y-94373224D01*
X225299867Y-94710084D01*
X225371000Y-95067691D01*
X225371000Y-95432309D01*
X225299867Y-95789916D01*
X225160336Y-96126776D01*
X224957766Y-96429943D01*
X224699943Y-96687766D01*
X224396776Y-96890336D01*
X224199448Y-96972071D01*
X224059917Y-97029867D01*
X223881113Y-97065433D01*
X223702309Y-97101000D01*
X223337691Y-97101000D01*
X223158887Y-97065433D01*
X222980083Y-97029867D01*
X222840552Y-96972071D01*
X222643224Y-96890336D01*
X222340057Y-96687766D01*
X222082234Y-96429943D01*
X221879664Y-96126776D01*
X221740133Y-95789916D01*
X221669000Y-95432309D01*
X221669000Y-95067691D01*
X221740133Y-94710084D01*
X221879664Y-94373224D01*
X222082234Y-94070057D01*
X222340057Y-93812234D01*
X222643224Y-93609664D01*
X222840552Y-93527929D01*
X222980083Y-93470133D01*
X223158888Y-93434566D01*
X223337691Y-93399000D01*
X223702309Y-93399000D01*
X223881113Y-93434567D01*
G37*
G36*
X166731113Y-93434567D02*
G01*
X166909917Y-93470133D01*
X167049448Y-93527929D01*
X167246776Y-93609664D01*
X167549943Y-93812234D01*
X167807766Y-94070057D01*
X168010336Y-94373224D01*
X168149867Y-94710084D01*
X168221000Y-95067691D01*
X168221000Y-95432309D01*
X168149867Y-95789916D01*
X168010336Y-96126776D01*
X167807766Y-96429943D01*
X167549943Y-96687766D01*
X167246776Y-96890336D01*
X167049448Y-96972071D01*
X166909917Y-97029867D01*
X166731113Y-97065433D01*
X166552309Y-97101000D01*
X166187691Y-97101000D01*
X166008887Y-97065433D01*
X165830083Y-97029867D01*
X165690552Y-96972071D01*
X165493224Y-96890336D01*
X165190057Y-96687766D01*
X164932234Y-96429943D01*
X164729664Y-96126776D01*
X164590133Y-95789916D01*
X164519000Y-95432309D01*
X164519000Y-95067691D01*
X164590133Y-94710084D01*
X164729664Y-94373224D01*
X164932234Y-94070057D01*
X165190057Y-93812234D01*
X165493224Y-93609664D01*
X165690552Y-93527929D01*
X165830083Y-93470133D01*
X166008888Y-93434566D01*
X166187691Y-93399000D01*
X166552309Y-93399000D01*
X166731113Y-93434567D01*
G37*
G36*
X71481113Y-93434567D02*
G01*
X71659917Y-93470133D01*
X71799448Y-93527929D01*
X71996776Y-93609664D01*
X72299943Y-93812234D01*
X72557766Y-94070057D01*
X72760336Y-94373224D01*
X72899867Y-94710084D01*
X72971000Y-95067691D01*
X72971000Y-95432309D01*
X72899867Y-95789916D01*
X72760336Y-96126776D01*
X72557766Y-96429943D01*
X72299943Y-96687766D01*
X71996776Y-96890336D01*
X71799448Y-96972071D01*
X71659917Y-97029867D01*
X71481113Y-97065433D01*
X71302309Y-97101000D01*
X70937691Y-97101000D01*
X70758887Y-97065433D01*
X70580083Y-97029867D01*
X70440552Y-96972071D01*
X70243224Y-96890336D01*
X69940057Y-96687766D01*
X69682234Y-96429943D01*
X69479664Y-96126776D01*
X69340133Y-95789916D01*
X69269000Y-95432309D01*
X69269000Y-95067691D01*
X69340133Y-94710084D01*
X69479664Y-94373224D01*
X69682234Y-94070057D01*
X69940057Y-93812234D01*
X70243224Y-93609664D01*
X70440552Y-93527929D01*
X70580083Y-93470133D01*
X70758888Y-93434566D01*
X70937691Y-93399000D01*
X71302309Y-93399000D01*
X71481113Y-93434567D01*
G37*
M02*
