G04 #@! TF.GenerationSoftware,KiCad,Pcbnew,(5.1.5)-2*
G04 #@! TF.CreationDate,2020-10-19T23:10:20+09:00*
G04 #@! TF.ProjectId,astra515_bottom,61737472-6135-4313-955f-626f74746f6d,rev?*
G04 #@! TF.SameCoordinates,Original*
G04 #@! TF.FileFunction,Soldermask,Bot*
G04 #@! TF.FilePolarity,Negative*
%FSLAX46Y46*%
G04 Gerber Fmt 4.6, Leading zero omitted, Abs format (unit mm)*
G04 Created by KiCad (PCBNEW (5.1.5)-2) date 2020-10-19 23:10:20*
%MOMM*%
%LPD*%
G04 APERTURE LIST*
%ADD10C,0.010000*%
%ADD11C,0.100000*%
G04 APERTURE END LIST*
D10*
G36*
X150598960Y-104361566D02*
G01*
X150573340Y-104403522D01*
X150510226Y-104512494D01*
X150413478Y-104681617D01*
X150286957Y-104904028D01*
X150134524Y-105172864D01*
X149960040Y-105481261D01*
X149767366Y-105822354D01*
X149560364Y-106189281D01*
X149342893Y-106575177D01*
X149118815Y-106973179D01*
X148891992Y-107376423D01*
X148666283Y-107778045D01*
X148445550Y-108171182D01*
X148233654Y-108548970D01*
X148034456Y-108904545D01*
X147851817Y-109231044D01*
X147689598Y-109521602D01*
X147551659Y-109769357D01*
X147441862Y-109967444D01*
X147364068Y-110108999D01*
X147324247Y-110183083D01*
X147274688Y-110278333D01*
X150620511Y-110278333D01*
X151144494Y-110277969D01*
X151643287Y-110276914D01*
X152110514Y-110275225D01*
X152539802Y-110272958D01*
X152924775Y-110270170D01*
X153259056Y-110266915D01*
X153536273Y-110263251D01*
X153750048Y-110259234D01*
X153894008Y-110254920D01*
X153961777Y-110250366D01*
X153966333Y-110248822D01*
X153946092Y-110208173D01*
X153887441Y-110099328D01*
X153793489Y-109927879D01*
X153667344Y-109699419D01*
X153550501Y-109488751D01*
X152654000Y-109488751D01*
X152654000Y-109488778D01*
X152613030Y-109494278D01*
X152495572Y-109499413D01*
X152309804Y-109504071D01*
X152063905Y-109508141D01*
X151766052Y-109511514D01*
X151424425Y-109514076D01*
X151047201Y-109515719D01*
X150642558Y-109516331D01*
X150620913Y-109516333D01*
X148587826Y-109516333D01*
X148651999Y-109392235D01*
X148694575Y-109313122D01*
X148771188Y-109174092D01*
X148876835Y-108984025D01*
X149006508Y-108751802D01*
X149155203Y-108486304D01*
X149317914Y-108196414D01*
X149489636Y-107891011D01*
X149665362Y-107578977D01*
X149840088Y-107269194D01*
X150008807Y-106970541D01*
X150166514Y-106691901D01*
X150308204Y-106442155D01*
X150428870Y-106230183D01*
X150523508Y-106064867D01*
X150587111Y-105955088D01*
X150614674Y-105909728D01*
X150615097Y-105909223D01*
X150639367Y-105940114D01*
X150700025Y-106036352D01*
X150792184Y-106189361D01*
X150910959Y-106390561D01*
X151051464Y-106631375D01*
X151208813Y-106903226D01*
X151378120Y-107197536D01*
X151554500Y-107505726D01*
X151733066Y-107819220D01*
X151908932Y-108129439D01*
X152077214Y-108427806D01*
X152233024Y-108705743D01*
X152371476Y-108954671D01*
X152487686Y-109166014D01*
X152576768Y-109331194D01*
X152633834Y-109441632D01*
X152654000Y-109488751D01*
X153550501Y-109488751D01*
X153512114Y-109419541D01*
X153330909Y-109093835D01*
X153126837Y-108727895D01*
X152903007Y-108327313D01*
X152662527Y-107897680D01*
X152408505Y-107444590D01*
X152306945Y-107263639D01*
X151991626Y-106702748D01*
X151714964Y-106212331D01*
X151474783Y-105788693D01*
X151268910Y-105428138D01*
X151095168Y-105126969D01*
X150951383Y-104881492D01*
X150835380Y-104688011D01*
X150744983Y-104542830D01*
X150678017Y-104442252D01*
X150632308Y-104382584D01*
X150605681Y-104360127D01*
X150598960Y-104361566D01*
G37*
X150598960Y-104361566D02*
X150573340Y-104403522D01*
X150510226Y-104512494D01*
X150413478Y-104681617D01*
X150286957Y-104904028D01*
X150134524Y-105172864D01*
X149960040Y-105481261D01*
X149767366Y-105822354D01*
X149560364Y-106189281D01*
X149342893Y-106575177D01*
X149118815Y-106973179D01*
X148891992Y-107376423D01*
X148666283Y-107778045D01*
X148445550Y-108171182D01*
X148233654Y-108548970D01*
X148034456Y-108904545D01*
X147851817Y-109231044D01*
X147689598Y-109521602D01*
X147551659Y-109769357D01*
X147441862Y-109967444D01*
X147364068Y-110108999D01*
X147324247Y-110183083D01*
X147274688Y-110278333D01*
X150620511Y-110278333D01*
X151144494Y-110277969D01*
X151643287Y-110276914D01*
X152110514Y-110275225D01*
X152539802Y-110272958D01*
X152924775Y-110270170D01*
X153259056Y-110266915D01*
X153536273Y-110263251D01*
X153750048Y-110259234D01*
X153894008Y-110254920D01*
X153961777Y-110250366D01*
X153966333Y-110248822D01*
X153946092Y-110208173D01*
X153887441Y-110099328D01*
X153793489Y-109927879D01*
X153667344Y-109699419D01*
X153550501Y-109488751D01*
X152654000Y-109488751D01*
X152654000Y-109488778D01*
X152613030Y-109494278D01*
X152495572Y-109499413D01*
X152309804Y-109504071D01*
X152063905Y-109508141D01*
X151766052Y-109511514D01*
X151424425Y-109514076D01*
X151047201Y-109515719D01*
X150642558Y-109516331D01*
X150620913Y-109516333D01*
X148587826Y-109516333D01*
X148651999Y-109392235D01*
X148694575Y-109313122D01*
X148771188Y-109174092D01*
X148876835Y-108984025D01*
X149006508Y-108751802D01*
X149155203Y-108486304D01*
X149317914Y-108196414D01*
X149489636Y-107891011D01*
X149665362Y-107578977D01*
X149840088Y-107269194D01*
X150008807Y-106970541D01*
X150166514Y-106691901D01*
X150308204Y-106442155D01*
X150428870Y-106230183D01*
X150523508Y-106064867D01*
X150587111Y-105955088D01*
X150614674Y-105909728D01*
X150615097Y-105909223D01*
X150639367Y-105940114D01*
X150700025Y-106036352D01*
X150792184Y-106189361D01*
X150910959Y-106390561D01*
X151051464Y-106631375D01*
X151208813Y-106903226D01*
X151378120Y-107197536D01*
X151554500Y-107505726D01*
X151733066Y-107819220D01*
X151908932Y-108129439D01*
X152077214Y-108427806D01*
X152233024Y-108705743D01*
X152371476Y-108954671D01*
X152487686Y-109166014D01*
X152576768Y-109331194D01*
X152633834Y-109441632D01*
X152654000Y-109488751D01*
X153550501Y-109488751D01*
X153512114Y-109419541D01*
X153330909Y-109093835D01*
X153126837Y-108727895D01*
X152903007Y-108327313D01*
X152662527Y-107897680D01*
X152408505Y-107444590D01*
X152306945Y-107263639D01*
X151991626Y-106702748D01*
X151714964Y-106212331D01*
X151474783Y-105788693D01*
X151268910Y-105428138D01*
X151095168Y-105126969D01*
X150951383Y-104881492D01*
X150835380Y-104688011D01*
X150744983Y-104542830D01*
X150678017Y-104442252D01*
X150632308Y-104382584D01*
X150605681Y-104360127D01*
X150598960Y-104361566D01*
G36*
X211497744Y-103684014D02*
G01*
X205930500Y-103695790D01*
X205525211Y-103807730D01*
X204917908Y-104011331D01*
X204372507Y-104270488D01*
X203887200Y-104587090D01*
X203460179Y-104963022D01*
X203089639Y-105400173D01*
X202773771Y-105900430D01*
X202510770Y-106465679D01*
X202298828Y-107097809D01*
X202268508Y-107209166D01*
X202217435Y-107405189D01*
X202173311Y-107583806D01*
X202135579Y-107752864D01*
X202103683Y-107920209D01*
X202077066Y-108093688D01*
X202055171Y-108281148D01*
X202037442Y-108490435D01*
X202023322Y-108729398D01*
X202012253Y-109005881D01*
X202003681Y-109327733D01*
X201997047Y-109702800D01*
X201991795Y-110138929D01*
X201987368Y-110643966D01*
X201983210Y-111225759D01*
X201983175Y-111230833D01*
X201979409Y-111936124D01*
X201978214Y-112557252D01*
X201979595Y-113094682D01*
X201983555Y-113548881D01*
X201990099Y-113920313D01*
X201999232Y-114209442D01*
X202010957Y-114416735D01*
X202013172Y-114443447D01*
X202113448Y-115218956D01*
X202273312Y-115936117D01*
X202494018Y-116597944D01*
X202776820Y-117207452D01*
X203122971Y-117767658D01*
X203533726Y-118281577D01*
X203669893Y-118427337D01*
X204123319Y-118847440D01*
X204597675Y-119189523D01*
X205102175Y-119459418D01*
X205598545Y-119648249D01*
X205777439Y-119702767D01*
X205943094Y-119747656D01*
X206105739Y-119783665D01*
X206275603Y-119811542D01*
X206462916Y-119832036D01*
X206677906Y-119845895D01*
X206930803Y-119853867D01*
X207231836Y-119856702D01*
X207591235Y-119855147D01*
X208019227Y-119849951D01*
X208296623Y-119845666D01*
X209604412Y-119824500D01*
X212255610Y-115252500D01*
X210024388Y-115230547D01*
X209528020Y-115225470D01*
X209108950Y-115220613D01*
X208759812Y-115215672D01*
X208473240Y-115210345D01*
X208241868Y-115204328D01*
X208058329Y-115197319D01*
X207915256Y-115189014D01*
X207805283Y-115179110D01*
X207721045Y-115167305D01*
X207655174Y-115153294D01*
X207600303Y-115136775D01*
X207581500Y-115130036D01*
X207274032Y-114979910D01*
X207027370Y-114777198D01*
X206834769Y-114514697D01*
X206689486Y-114185205D01*
X206685384Y-114173000D01*
X206667973Y-114115366D01*
X206653362Y-114050874D01*
X206641310Y-113971971D01*
X206631573Y-113871100D01*
X206623908Y-113740709D01*
X206618073Y-113573241D01*
X206613825Y-113361144D01*
X206610922Y-113096861D01*
X206609120Y-112772840D01*
X206608176Y-112381524D01*
X206607848Y-111915360D01*
X206607833Y-111760000D01*
X206607905Y-111274542D01*
X206608312Y-110866303D01*
X206609345Y-110527832D01*
X206611293Y-110251680D01*
X206614446Y-110030399D01*
X206619094Y-109856540D01*
X206625526Y-109722653D01*
X206634031Y-109621290D01*
X206644899Y-109545002D01*
X206658421Y-109486338D01*
X206674885Y-109437852D01*
X206694581Y-109392092D01*
X206700391Y-109379455D01*
X206860005Y-109097148D01*
X207056576Y-108874667D01*
X207306365Y-108696846D01*
X207565517Y-108572401D01*
X207793167Y-108479166D01*
X213808627Y-108458000D01*
X219824087Y-108436833D01*
X218444537Y-106054535D01*
X217064987Y-103672238D01*
X211497744Y-103684014D01*
G37*
X211497744Y-103684014D02*
X205930500Y-103695790D01*
X205525211Y-103807730D01*
X204917908Y-104011331D01*
X204372507Y-104270488D01*
X203887200Y-104587090D01*
X203460179Y-104963022D01*
X203089639Y-105400173D01*
X202773771Y-105900430D01*
X202510770Y-106465679D01*
X202298828Y-107097809D01*
X202268508Y-107209166D01*
X202217435Y-107405189D01*
X202173311Y-107583806D01*
X202135579Y-107752864D01*
X202103683Y-107920209D01*
X202077066Y-108093688D01*
X202055171Y-108281148D01*
X202037442Y-108490435D01*
X202023322Y-108729398D01*
X202012253Y-109005881D01*
X202003681Y-109327733D01*
X201997047Y-109702800D01*
X201991795Y-110138929D01*
X201987368Y-110643966D01*
X201983210Y-111225759D01*
X201983175Y-111230833D01*
X201979409Y-111936124D01*
X201978214Y-112557252D01*
X201979595Y-113094682D01*
X201983555Y-113548881D01*
X201990099Y-113920313D01*
X201999232Y-114209442D01*
X202010957Y-114416735D01*
X202013172Y-114443447D01*
X202113448Y-115218956D01*
X202273312Y-115936117D01*
X202494018Y-116597944D01*
X202776820Y-117207452D01*
X203122971Y-117767658D01*
X203533726Y-118281577D01*
X203669893Y-118427337D01*
X204123319Y-118847440D01*
X204597675Y-119189523D01*
X205102175Y-119459418D01*
X205598545Y-119648249D01*
X205777439Y-119702767D01*
X205943094Y-119747656D01*
X206105739Y-119783665D01*
X206275603Y-119811542D01*
X206462916Y-119832036D01*
X206677906Y-119845895D01*
X206930803Y-119853867D01*
X207231836Y-119856702D01*
X207591235Y-119855147D01*
X208019227Y-119849951D01*
X208296623Y-119845666D01*
X209604412Y-119824500D01*
X212255610Y-115252500D01*
X210024388Y-115230547D01*
X209528020Y-115225470D01*
X209108950Y-115220613D01*
X208759812Y-115215672D01*
X208473240Y-115210345D01*
X208241868Y-115204328D01*
X208058329Y-115197319D01*
X207915256Y-115189014D01*
X207805283Y-115179110D01*
X207721045Y-115167305D01*
X207655174Y-115153294D01*
X207600303Y-115136775D01*
X207581500Y-115130036D01*
X207274032Y-114979910D01*
X207027370Y-114777198D01*
X206834769Y-114514697D01*
X206689486Y-114185205D01*
X206685384Y-114173000D01*
X206667973Y-114115366D01*
X206653362Y-114050874D01*
X206641310Y-113971971D01*
X206631573Y-113871100D01*
X206623908Y-113740709D01*
X206618073Y-113573241D01*
X206613825Y-113361144D01*
X206610922Y-113096861D01*
X206609120Y-112772840D01*
X206608176Y-112381524D01*
X206607848Y-111915360D01*
X206607833Y-111760000D01*
X206607905Y-111274542D01*
X206608312Y-110866303D01*
X206609345Y-110527832D01*
X206611293Y-110251680D01*
X206614446Y-110030399D01*
X206619094Y-109856540D01*
X206625526Y-109722653D01*
X206634031Y-109621290D01*
X206644899Y-109545002D01*
X206658421Y-109486338D01*
X206674885Y-109437852D01*
X206694581Y-109392092D01*
X206700391Y-109379455D01*
X206860005Y-109097148D01*
X207056576Y-108874667D01*
X207306365Y-108696846D01*
X207565517Y-108572401D01*
X207793167Y-108479166D01*
X213808627Y-108458000D01*
X219824087Y-108436833D01*
X218444537Y-106054535D01*
X217064987Y-103672238D01*
X211497744Y-103684014D01*
G36*
X193789665Y-103639411D02*
G01*
X193369672Y-103641313D01*
X193242426Y-103642107D01*
X191549276Y-103653166D01*
X182954915Y-118575666D01*
X182354447Y-119618308D01*
X181764683Y-120642448D01*
X181187029Y-121645640D01*
X180622894Y-122625437D01*
X180073684Y-123579393D01*
X179540807Y-124505061D01*
X179025670Y-125399996D01*
X178529680Y-126261750D01*
X178054246Y-127087878D01*
X177600773Y-127875932D01*
X177170669Y-128623467D01*
X176765342Y-129328037D01*
X176386200Y-129987193D01*
X176034648Y-130598492D01*
X175712096Y-131159485D01*
X175419949Y-131667727D01*
X175159615Y-132120771D01*
X174932503Y-132516171D01*
X174740018Y-132851480D01*
X174583568Y-133124252D01*
X174464561Y-133332041D01*
X174384404Y-133472400D01*
X174344504Y-133542883D01*
X174340081Y-133551083D01*
X174351469Y-133562296D01*
X174398422Y-133571901D01*
X174486134Y-133580002D01*
X174619803Y-133586703D01*
X174804622Y-133592109D01*
X175045787Y-133596325D01*
X175348493Y-133599455D01*
X175717935Y-133601603D01*
X176159308Y-133602874D01*
X176677808Y-133603374D01*
X176938221Y-133603374D01*
X179556833Y-133602749D01*
X181319823Y-130481291D01*
X183082812Y-127359833D01*
X189775909Y-127338666D01*
X190521857Y-127336149D01*
X191244601Y-127333402D01*
X191939623Y-127330455D01*
X192602408Y-127327341D01*
X193228437Y-127324090D01*
X193813194Y-127320733D01*
X194352162Y-127317304D01*
X194840824Y-127313831D01*
X195274664Y-127310348D01*
X195649164Y-127306885D01*
X195959807Y-127303474D01*
X196202076Y-127300146D01*
X196371455Y-127296933D01*
X196463427Y-127293866D01*
X196479586Y-127292088D01*
X196466287Y-127249181D01*
X196424239Y-127134782D01*
X196356205Y-126955983D01*
X196264950Y-126719877D01*
X196153237Y-126433554D01*
X196023830Y-126104108D01*
X195879495Y-125738629D01*
X195722994Y-125344209D01*
X195601167Y-125038353D01*
X194712167Y-122810029D01*
X190214250Y-122809514D01*
X189604899Y-122809267D01*
X189019861Y-122808685D01*
X188464635Y-122807790D01*
X187944719Y-122806608D01*
X187465611Y-122805163D01*
X187032810Y-122803479D01*
X186651814Y-122801579D01*
X186328122Y-122799488D01*
X186067231Y-122797231D01*
X185874642Y-122794831D01*
X185755851Y-122792313D01*
X185716333Y-122789762D01*
X185737441Y-122750986D01*
X185798898Y-122644104D01*
X185897904Y-122473855D01*
X186031660Y-122244979D01*
X186197365Y-121962218D01*
X186392220Y-121630310D01*
X186613425Y-121253996D01*
X186858180Y-120838016D01*
X187123686Y-120387110D01*
X187407143Y-119906019D01*
X187705750Y-119399481D01*
X188016708Y-118872237D01*
X188337218Y-118329028D01*
X188664479Y-117774593D01*
X188995692Y-117213673D01*
X189328057Y-116651007D01*
X189658774Y-116091335D01*
X189985043Y-115539398D01*
X190304065Y-114999936D01*
X190613040Y-114477689D01*
X190909167Y-113977396D01*
X191189648Y-113503799D01*
X191451682Y-113061636D01*
X191692469Y-112655649D01*
X191909211Y-112290576D01*
X192099106Y-111971159D01*
X192259355Y-111702137D01*
X192387159Y-111488251D01*
X192479718Y-111334240D01*
X192534231Y-111244844D01*
X192548293Y-111223209D01*
X192561566Y-111238595D01*
X192591577Y-111296883D01*
X192639072Y-111399909D01*
X192704799Y-111549510D01*
X192789504Y-111747520D01*
X192893935Y-111995776D01*
X193018838Y-112296114D01*
X193164960Y-112650370D01*
X193333050Y-113060379D01*
X193523852Y-113527977D01*
X193738116Y-114055000D01*
X193976587Y-114643283D01*
X194240012Y-115294664D01*
X194529139Y-116010977D01*
X194844715Y-116794058D01*
X195187486Y-117645744D01*
X195558200Y-118567869D01*
X195957604Y-119562271D01*
X196386444Y-120630784D01*
X196845468Y-121775244D01*
X197078655Y-122356876D01*
X197452543Y-123289451D01*
X197818354Y-124201636D01*
X198174829Y-125090302D01*
X198520709Y-125952318D01*
X198854735Y-126784554D01*
X199175649Y-127583879D01*
X199482191Y-128347165D01*
X199773103Y-129071280D01*
X200047127Y-129753094D01*
X200303003Y-130389477D01*
X200539472Y-130977298D01*
X200755276Y-131513428D01*
X200949157Y-131994737D01*
X201119855Y-132418094D01*
X201266111Y-132780368D01*
X201386668Y-133078431D01*
X201480265Y-133309150D01*
X201545644Y-133469397D01*
X201581547Y-133556041D01*
X201588406Y-133571384D01*
X201613101Y-133540572D01*
X201676236Y-133441733D01*
X201774505Y-133280498D01*
X201904604Y-133062501D01*
X202063230Y-132793374D01*
X202247077Y-132478751D01*
X202452841Y-132124265D01*
X202677219Y-131735549D01*
X202916905Y-131318234D01*
X203168596Y-130877956D01*
X203176557Y-130863998D01*
X203428640Y-130421332D01*
X203668065Y-129999683D01*
X203891569Y-129604870D01*
X204095890Y-129242714D01*
X204277765Y-128919036D01*
X204433930Y-128639657D01*
X204561124Y-128410398D01*
X204656084Y-128237079D01*
X204715546Y-128125522D01*
X204736249Y-128081547D01*
X204736249Y-128081447D01*
X204720516Y-128039089D01*
X204674421Y-127921174D01*
X204599165Y-127730706D01*
X204495952Y-127470690D01*
X204365984Y-127144130D01*
X204210463Y-126754032D01*
X204030591Y-126303401D01*
X203827573Y-125795241D01*
X203602609Y-125232558D01*
X203356902Y-124618355D01*
X203091655Y-123955638D01*
X202808071Y-123247412D01*
X202507351Y-122496682D01*
X202190699Y-121706452D01*
X201859316Y-120879728D01*
X201514406Y-120019513D01*
X201157171Y-119128814D01*
X200788813Y-118210635D01*
X200410536Y-117267980D01*
X200023540Y-116303855D01*
X199856386Y-115887500D01*
X199465929Y-114914986D01*
X199083558Y-113962611D01*
X198710481Y-113033386D01*
X198347907Y-112130316D01*
X197997041Y-111256411D01*
X197659093Y-110414680D01*
X197335271Y-109608130D01*
X197026781Y-108839769D01*
X196734832Y-108112607D01*
X196460632Y-107429650D01*
X196205388Y-106793909D01*
X195970309Y-106208390D01*
X195756601Y-105676102D01*
X195565474Y-105200054D01*
X195398134Y-104783254D01*
X195255789Y-104428710D01*
X195139648Y-104139430D01*
X195050918Y-103918423D01*
X194990806Y-103768697D01*
X194960521Y-103693260D01*
X194956981Y-103684440D01*
X194934453Y-103670628D01*
X194874727Y-103659545D01*
X194771275Y-103651028D01*
X194617571Y-103644918D01*
X194407086Y-103641052D01*
X194133293Y-103639270D01*
X193789665Y-103639411D01*
G37*
X193789665Y-103639411D02*
X193369672Y-103641313D01*
X193242426Y-103642107D01*
X191549276Y-103653166D01*
X182954915Y-118575666D01*
X182354447Y-119618308D01*
X181764683Y-120642448D01*
X181187029Y-121645640D01*
X180622894Y-122625437D01*
X180073684Y-123579393D01*
X179540807Y-124505061D01*
X179025670Y-125399996D01*
X178529680Y-126261750D01*
X178054246Y-127087878D01*
X177600773Y-127875932D01*
X177170669Y-128623467D01*
X176765342Y-129328037D01*
X176386200Y-129987193D01*
X176034648Y-130598492D01*
X175712096Y-131159485D01*
X175419949Y-131667727D01*
X175159615Y-132120771D01*
X174932503Y-132516171D01*
X174740018Y-132851480D01*
X174583568Y-133124252D01*
X174464561Y-133332041D01*
X174384404Y-133472400D01*
X174344504Y-133542883D01*
X174340081Y-133551083D01*
X174351469Y-133562296D01*
X174398422Y-133571901D01*
X174486134Y-133580002D01*
X174619803Y-133586703D01*
X174804622Y-133592109D01*
X175045787Y-133596325D01*
X175348493Y-133599455D01*
X175717935Y-133601603D01*
X176159308Y-133602874D01*
X176677808Y-133603374D01*
X176938221Y-133603374D01*
X179556833Y-133602749D01*
X181319823Y-130481291D01*
X183082812Y-127359833D01*
X189775909Y-127338666D01*
X190521857Y-127336149D01*
X191244601Y-127333402D01*
X191939623Y-127330455D01*
X192602408Y-127327341D01*
X193228437Y-127324090D01*
X193813194Y-127320733D01*
X194352162Y-127317304D01*
X194840824Y-127313831D01*
X195274664Y-127310348D01*
X195649164Y-127306885D01*
X195959807Y-127303474D01*
X196202076Y-127300146D01*
X196371455Y-127296933D01*
X196463427Y-127293866D01*
X196479586Y-127292088D01*
X196466287Y-127249181D01*
X196424239Y-127134782D01*
X196356205Y-126955983D01*
X196264950Y-126719877D01*
X196153237Y-126433554D01*
X196023830Y-126104108D01*
X195879495Y-125738629D01*
X195722994Y-125344209D01*
X195601167Y-125038353D01*
X194712167Y-122810029D01*
X190214250Y-122809514D01*
X189604899Y-122809267D01*
X189019861Y-122808685D01*
X188464635Y-122807790D01*
X187944719Y-122806608D01*
X187465611Y-122805163D01*
X187032810Y-122803479D01*
X186651814Y-122801579D01*
X186328122Y-122799488D01*
X186067231Y-122797231D01*
X185874642Y-122794831D01*
X185755851Y-122792313D01*
X185716333Y-122789762D01*
X185737441Y-122750986D01*
X185798898Y-122644104D01*
X185897904Y-122473855D01*
X186031660Y-122244979D01*
X186197365Y-121962218D01*
X186392220Y-121630310D01*
X186613425Y-121253996D01*
X186858180Y-120838016D01*
X187123686Y-120387110D01*
X187407143Y-119906019D01*
X187705750Y-119399481D01*
X188016708Y-118872237D01*
X188337218Y-118329028D01*
X188664479Y-117774593D01*
X188995692Y-117213673D01*
X189328057Y-116651007D01*
X189658774Y-116091335D01*
X189985043Y-115539398D01*
X190304065Y-114999936D01*
X190613040Y-114477689D01*
X190909167Y-113977396D01*
X191189648Y-113503799D01*
X191451682Y-113061636D01*
X191692469Y-112655649D01*
X191909211Y-112290576D01*
X192099106Y-111971159D01*
X192259355Y-111702137D01*
X192387159Y-111488251D01*
X192479718Y-111334240D01*
X192534231Y-111244844D01*
X192548293Y-111223209D01*
X192561566Y-111238595D01*
X192591577Y-111296883D01*
X192639072Y-111399909D01*
X192704799Y-111549510D01*
X192789504Y-111747520D01*
X192893935Y-111995776D01*
X193018838Y-112296114D01*
X193164960Y-112650370D01*
X193333050Y-113060379D01*
X193523852Y-113527977D01*
X193738116Y-114055000D01*
X193976587Y-114643283D01*
X194240012Y-115294664D01*
X194529139Y-116010977D01*
X194844715Y-116794058D01*
X195187486Y-117645744D01*
X195558200Y-118567869D01*
X195957604Y-119562271D01*
X196386444Y-120630784D01*
X196845468Y-121775244D01*
X197078655Y-122356876D01*
X197452543Y-123289451D01*
X197818354Y-124201636D01*
X198174829Y-125090302D01*
X198520709Y-125952318D01*
X198854735Y-126784554D01*
X199175649Y-127583879D01*
X199482191Y-128347165D01*
X199773103Y-129071280D01*
X200047127Y-129753094D01*
X200303003Y-130389477D01*
X200539472Y-130977298D01*
X200755276Y-131513428D01*
X200949157Y-131994737D01*
X201119855Y-132418094D01*
X201266111Y-132780368D01*
X201386668Y-133078431D01*
X201480265Y-133309150D01*
X201545644Y-133469397D01*
X201581547Y-133556041D01*
X201588406Y-133571384D01*
X201613101Y-133540572D01*
X201676236Y-133441733D01*
X201774505Y-133280498D01*
X201904604Y-133062501D01*
X202063230Y-132793374D01*
X202247077Y-132478751D01*
X202452841Y-132124265D01*
X202677219Y-131735549D01*
X202916905Y-131318234D01*
X203168596Y-130877956D01*
X203176557Y-130863998D01*
X203428640Y-130421332D01*
X203668065Y-129999683D01*
X203891569Y-129604870D01*
X204095890Y-129242714D01*
X204277765Y-128919036D01*
X204433930Y-128639657D01*
X204561124Y-128410398D01*
X204656084Y-128237079D01*
X204715546Y-128125522D01*
X204736249Y-128081547D01*
X204736249Y-128081447D01*
X204720516Y-128039089D01*
X204674421Y-127921174D01*
X204599165Y-127730706D01*
X204495952Y-127470690D01*
X204365984Y-127144130D01*
X204210463Y-126754032D01*
X204030591Y-126303401D01*
X203827573Y-125795241D01*
X203602609Y-125232558D01*
X203356902Y-124618355D01*
X203091655Y-123955638D01*
X202808071Y-123247412D01*
X202507351Y-122496682D01*
X202190699Y-121706452D01*
X201859316Y-120879728D01*
X201514406Y-120019513D01*
X201157171Y-119128814D01*
X200788813Y-118210635D01*
X200410536Y-117267980D01*
X200023540Y-116303855D01*
X199856386Y-115887500D01*
X199465929Y-114914986D01*
X199083558Y-113962611D01*
X198710481Y-113033386D01*
X198347907Y-112130316D01*
X197997041Y-111256411D01*
X197659093Y-110414680D01*
X197335271Y-109608130D01*
X197026781Y-108839769D01*
X196734832Y-108112607D01*
X196460632Y-107429650D01*
X196205388Y-106793909D01*
X195970309Y-106208390D01*
X195756601Y-105676102D01*
X195565474Y-105200054D01*
X195398134Y-104783254D01*
X195255789Y-104428710D01*
X195139648Y-104139430D01*
X195050918Y-103918423D01*
X194990806Y-103768697D01*
X194960521Y-103693260D01*
X194956981Y-103684440D01*
X194934453Y-103670628D01*
X194874727Y-103659545D01*
X194771275Y-103651028D01*
X194617571Y-103644918D01*
X194407086Y-103641052D01*
X194133293Y-103639270D01*
X193789665Y-103639411D01*
G36*
X261709594Y-115865572D02*
G01*
X256740354Y-128098271D01*
X258276634Y-130798218D01*
X258527326Y-131238395D01*
X258766540Y-131657639D01*
X258990881Y-132050049D01*
X259196955Y-132409723D01*
X259381366Y-132730757D01*
X259540719Y-133007250D01*
X259671619Y-133233301D01*
X259770671Y-133403006D01*
X259834479Y-133510463D01*
X259859208Y-133549354D01*
X259872666Y-133533554D01*
X259903341Y-133473690D01*
X259951965Y-133367959D01*
X260019271Y-133214563D01*
X260105993Y-133011700D01*
X260212863Y-132757571D01*
X260340616Y-132450376D01*
X260489984Y-132088314D01*
X260661700Y-131669585D01*
X260856498Y-131192389D01*
X261075110Y-130654925D01*
X261318271Y-130055395D01*
X261586712Y-129391996D01*
X261881168Y-128662930D01*
X262202371Y-127866396D01*
X262551055Y-127000593D01*
X262927952Y-126063722D01*
X263333797Y-125053982D01*
X263769321Y-123969574D01*
X264235259Y-122808697D01*
X264341991Y-122542687D01*
X264714680Y-121613831D01*
X265079569Y-120704540D01*
X265435373Y-119818013D01*
X265780807Y-118957445D01*
X266114587Y-118126033D01*
X266435428Y-117326975D01*
X266742045Y-116563467D01*
X267033153Y-115838707D01*
X267307469Y-115155891D01*
X267563706Y-114518216D01*
X267800581Y-113928879D01*
X268016809Y-113391078D01*
X268211104Y-112908009D01*
X268382183Y-112482868D01*
X268528761Y-112118854D01*
X268649552Y-111819162D01*
X268743272Y-111586991D01*
X268808637Y-111425536D01*
X268844362Y-111337995D01*
X268850491Y-111323422D01*
X268922500Y-111162012D01*
X272355064Y-116974922D01*
X275787628Y-122787833D01*
X271280632Y-122809000D01*
X266773636Y-122830166D01*
X265890152Y-125050332D01*
X265726865Y-125461252D01*
X265573358Y-125848702D01*
X265432430Y-126205533D01*
X265306885Y-126524598D01*
X265199523Y-126798747D01*
X265113145Y-127020832D01*
X265050555Y-127183706D01*
X265014553Y-127280218D01*
X265006667Y-127304582D01*
X265048249Y-127308383D01*
X265169993Y-127312077D01*
X265367393Y-127315639D01*
X265635943Y-127319045D01*
X265971138Y-127322274D01*
X266368473Y-127325300D01*
X266823443Y-127328100D01*
X267331542Y-127330651D01*
X267888265Y-127332930D01*
X268489106Y-127334913D01*
X269129560Y-127336575D01*
X269805122Y-127337895D01*
X270511286Y-127338848D01*
X271243547Y-127339410D01*
X271705917Y-127339552D01*
X278405167Y-127340438D01*
X280166615Y-130461635D01*
X281928064Y-133582833D01*
X284559952Y-133593737D01*
X287191839Y-133604641D01*
X287128709Y-133487904D01*
X287103380Y-133443373D01*
X287037257Y-133327916D01*
X286931758Y-133144000D01*
X286788301Y-132894092D01*
X286608304Y-132580660D01*
X286393185Y-132206171D01*
X286144364Y-131773092D01*
X285863257Y-131283890D01*
X285551284Y-130741031D01*
X285209862Y-130146985D01*
X284840409Y-129504217D01*
X284444345Y-128815194D01*
X284023086Y-128082385D01*
X283578051Y-127308255D01*
X283110659Y-126495273D01*
X282622327Y-125645905D01*
X282114473Y-124762619D01*
X281588517Y-123847881D01*
X281045876Y-122904159D01*
X280487968Y-121933921D01*
X279916212Y-120939633D01*
X279332025Y-119923762D01*
X278736827Y-118888775D01*
X278520242Y-118512166D01*
X269974905Y-103653166D01*
X268326869Y-103643019D01*
X266678833Y-103632873D01*
X261709594Y-115865572D01*
G37*
X261709594Y-115865572D02*
X256740354Y-128098271D01*
X258276634Y-130798218D01*
X258527326Y-131238395D01*
X258766540Y-131657639D01*
X258990881Y-132050049D01*
X259196955Y-132409723D01*
X259381366Y-132730757D01*
X259540719Y-133007250D01*
X259671619Y-133233301D01*
X259770671Y-133403006D01*
X259834479Y-133510463D01*
X259859208Y-133549354D01*
X259872666Y-133533554D01*
X259903341Y-133473690D01*
X259951965Y-133367959D01*
X260019271Y-133214563D01*
X260105993Y-133011700D01*
X260212863Y-132757571D01*
X260340616Y-132450376D01*
X260489984Y-132088314D01*
X260661700Y-131669585D01*
X260856498Y-131192389D01*
X261075110Y-130654925D01*
X261318271Y-130055395D01*
X261586712Y-129391996D01*
X261881168Y-128662930D01*
X262202371Y-127866396D01*
X262551055Y-127000593D01*
X262927952Y-126063722D01*
X263333797Y-125053982D01*
X263769321Y-123969574D01*
X264235259Y-122808697D01*
X264341991Y-122542687D01*
X264714680Y-121613831D01*
X265079569Y-120704540D01*
X265435373Y-119818013D01*
X265780807Y-118957445D01*
X266114587Y-118126033D01*
X266435428Y-117326975D01*
X266742045Y-116563467D01*
X267033153Y-115838707D01*
X267307469Y-115155891D01*
X267563706Y-114518216D01*
X267800581Y-113928879D01*
X268016809Y-113391078D01*
X268211104Y-112908009D01*
X268382183Y-112482868D01*
X268528761Y-112118854D01*
X268649552Y-111819162D01*
X268743272Y-111586991D01*
X268808637Y-111425536D01*
X268844362Y-111337995D01*
X268850491Y-111323422D01*
X268922500Y-111162012D01*
X272355064Y-116974922D01*
X275787628Y-122787833D01*
X271280632Y-122809000D01*
X266773636Y-122830166D01*
X265890152Y-125050332D01*
X265726865Y-125461252D01*
X265573358Y-125848702D01*
X265432430Y-126205533D01*
X265306885Y-126524598D01*
X265199523Y-126798747D01*
X265113145Y-127020832D01*
X265050555Y-127183706D01*
X265014553Y-127280218D01*
X265006667Y-127304582D01*
X265048249Y-127308383D01*
X265169993Y-127312077D01*
X265367393Y-127315639D01*
X265635943Y-127319045D01*
X265971138Y-127322274D01*
X266368473Y-127325300D01*
X266823443Y-127328100D01*
X267331542Y-127330651D01*
X267888265Y-127332930D01*
X268489106Y-127334913D01*
X269129560Y-127336575D01*
X269805122Y-127337895D01*
X270511286Y-127338848D01*
X271243547Y-127339410D01*
X271705917Y-127339552D01*
X278405167Y-127340438D01*
X280166615Y-130461635D01*
X281928064Y-133582833D01*
X284559952Y-133593737D01*
X287191839Y-133604641D01*
X287128709Y-133487904D01*
X287103380Y-133443373D01*
X287037257Y-133327916D01*
X286931758Y-133144000D01*
X286788301Y-132894092D01*
X286608304Y-132580660D01*
X286393185Y-132206171D01*
X286144364Y-131773092D01*
X285863257Y-131283890D01*
X285551284Y-130741031D01*
X285209862Y-130146985D01*
X284840409Y-129504217D01*
X284444345Y-128815194D01*
X284023086Y-128082385D01*
X283578051Y-127308255D01*
X283110659Y-126495273D01*
X282622327Y-125645905D01*
X282114473Y-124762619D01*
X281588517Y-123847881D01*
X281045876Y-122904159D01*
X280487968Y-121933921D01*
X279916212Y-120939633D01*
X279332025Y-119923762D01*
X278736827Y-118888775D01*
X278520242Y-118512166D01*
X269974905Y-103653166D01*
X268326869Y-103643019D01*
X266678833Y-103632873D01*
X261709594Y-115865572D01*
G36*
X118856317Y-103653166D02*
G01*
X117484119Y-106002666D01*
X117245530Y-106411428D01*
X117019447Y-106799237D01*
X116809519Y-107159806D01*
X116619391Y-107486851D01*
X116452709Y-107774085D01*
X116313120Y-108015224D01*
X116204271Y-108203981D01*
X116129807Y-108334070D01*
X116093375Y-108399208D01*
X116090432Y-108405083D01*
X116102503Y-108412077D01*
X116146792Y-108418466D01*
X116226509Y-108424274D01*
X116344864Y-108429524D01*
X116505069Y-108434242D01*
X116710333Y-108438451D01*
X116963868Y-108442174D01*
X117268885Y-108445436D01*
X117628593Y-108448261D01*
X118046204Y-108450672D01*
X118524929Y-108452694D01*
X119067978Y-108454350D01*
X119678562Y-108455665D01*
X120359892Y-108456662D01*
X121115178Y-108457366D01*
X121947632Y-108457799D01*
X122860463Y-108457987D01*
X123185471Y-108458000D01*
X123954792Y-108458136D01*
X124700928Y-108458536D01*
X125419506Y-108459186D01*
X126106155Y-108460071D01*
X126756504Y-108461176D01*
X127366183Y-108462488D01*
X127930818Y-108463991D01*
X128446040Y-108465672D01*
X128907477Y-108467516D01*
X129310758Y-108469509D01*
X129651511Y-108471637D01*
X129925366Y-108473885D01*
X130127950Y-108476238D01*
X130254893Y-108478683D01*
X130301823Y-108481205D01*
X130302000Y-108481370D01*
X130281523Y-108520754D01*
X130222050Y-108628494D01*
X130126519Y-108799394D01*
X129997867Y-109028258D01*
X129839032Y-109309889D01*
X129652952Y-109639091D01*
X129442563Y-110010667D01*
X129210804Y-110419421D01*
X128960612Y-110860157D01*
X128694925Y-111327678D01*
X128416680Y-111816787D01*
X128387508Y-111868037D01*
X126473016Y-115231333D01*
X121216493Y-115231333D01*
X120402940Y-115231428D01*
X119669157Y-115231799D01*
X119010247Y-115232575D01*
X118421313Y-115233888D01*
X117897460Y-115235865D01*
X117433791Y-115238638D01*
X117025409Y-115242336D01*
X116667417Y-115247088D01*
X116354919Y-115253025D01*
X116083019Y-115260275D01*
X115846819Y-115268970D01*
X115641423Y-115279238D01*
X115461936Y-115291210D01*
X115303459Y-115305014D01*
X115161096Y-115320782D01*
X115029952Y-115338642D01*
X114905128Y-115358725D01*
X114781730Y-115381160D01*
X114659833Y-115405076D01*
X113954859Y-115583755D01*
X113279298Y-115831606D01*
X112630364Y-116150662D01*
X112005268Y-116542956D01*
X111401222Y-117010520D01*
X110815438Y-117555386D01*
X110245128Y-118179587D01*
X109687503Y-118885155D01*
X109468169Y-119189500D01*
X109415108Y-119272029D01*
X109323915Y-119422128D01*
X109198107Y-119633650D01*
X109041198Y-119900449D01*
X108856706Y-120216381D01*
X108648146Y-120575299D01*
X108419035Y-120971057D01*
X108172889Y-121397510D01*
X107913224Y-121848512D01*
X107643555Y-122317917D01*
X107367400Y-122799580D01*
X107088274Y-123287355D01*
X106809694Y-123775096D01*
X106535175Y-124256657D01*
X106268235Y-124725893D01*
X106012388Y-125176658D01*
X105771151Y-125602806D01*
X105548040Y-125998192D01*
X105346571Y-126356669D01*
X105170261Y-126672093D01*
X105022626Y-126938317D01*
X104907181Y-127149195D01*
X104827443Y-127298583D01*
X104815408Y-127321871D01*
X104495715Y-128005839D01*
X104250529Y-128668232D01*
X104076705Y-129321216D01*
X103971096Y-129976956D01*
X103930558Y-130647617D01*
X103929895Y-130746500D01*
X103944591Y-131141787D01*
X103992739Y-131484650D01*
X104080179Y-131802699D01*
X104212748Y-132123546D01*
X104227634Y-132154622D01*
X104424297Y-132486009D01*
X104678625Y-132800045D01*
X104971401Y-133077048D01*
X105283405Y-133297337D01*
X105410000Y-133365512D01*
X105479595Y-133400244D01*
X105542295Y-133431978D01*
X105602007Y-133460852D01*
X105662637Y-133486999D01*
X105728091Y-133510555D01*
X105802276Y-133531656D01*
X105889097Y-133550435D01*
X105992461Y-133567029D01*
X106116274Y-133581572D01*
X106264442Y-133594201D01*
X106440871Y-133605048D01*
X106649468Y-133614251D01*
X106894138Y-133621944D01*
X107178789Y-133628263D01*
X107507325Y-133633341D01*
X107883653Y-133637316D01*
X108311680Y-133640321D01*
X108795312Y-133642492D01*
X109338454Y-133643964D01*
X109945013Y-133644872D01*
X110618895Y-133645351D01*
X111364006Y-133645537D01*
X112184253Y-133645564D01*
X113083541Y-133645568D01*
X113505274Y-133645598D01*
X120690382Y-133646333D01*
X120751283Y-133551083D01*
X120782228Y-133497749D01*
X120850343Y-133376993D01*
X120951897Y-133195523D01*
X121083160Y-132960048D01*
X121240401Y-132677279D01*
X121419889Y-132353923D01*
X121617894Y-131996691D01*
X121830685Y-131612291D01*
X122054531Y-131207433D01*
X122063612Y-131191000D01*
X123315039Y-128926166D01*
X116997769Y-128905000D01*
X110680500Y-128883833D01*
X110398718Y-128788107D01*
X110146840Y-128674283D01*
X109963690Y-128523169D01*
X109844548Y-128326984D01*
X109784695Y-128077945D01*
X109779409Y-127768267D01*
X109779483Y-127767025D01*
X109819642Y-127467763D01*
X109910241Y-127184731D01*
X109925532Y-127148166D01*
X109969307Y-127058078D01*
X110051199Y-126901899D01*
X110167086Y-126686919D01*
X110312846Y-126420426D01*
X110484360Y-126109708D01*
X110677505Y-125762054D01*
X110888161Y-125384753D01*
X111112207Y-124985093D01*
X111345521Y-124570363D01*
X111583983Y-124147851D01*
X111823471Y-123724847D01*
X112059864Y-123308638D01*
X112289042Y-122906514D01*
X112506883Y-122525762D01*
X112709266Y-122173672D01*
X112892070Y-121857532D01*
X113051173Y-121584631D01*
X113182456Y-121362257D01*
X113281797Y-121197699D01*
X113345074Y-121098246D01*
X113351416Y-121089089D01*
X113670432Y-120709864D01*
X114046550Y-120388674D01*
X114469348Y-120132969D01*
X114928404Y-119950198D01*
X114956167Y-119941921D01*
X114993654Y-119932106D01*
X115038612Y-119923170D01*
X115095052Y-119915064D01*
X115166987Y-119907739D01*
X115258428Y-119901144D01*
X115373387Y-119895230D01*
X115515877Y-119889947D01*
X115689909Y-119885246D01*
X115899496Y-119881077D01*
X116148650Y-119877391D01*
X116441382Y-119874137D01*
X116781705Y-119871266D01*
X117173631Y-119868728D01*
X117621171Y-119866475D01*
X118128339Y-119864455D01*
X118699145Y-119862620D01*
X119337602Y-119860919D01*
X120047722Y-119859304D01*
X120833517Y-119857724D01*
X121698999Y-119856130D01*
X121920097Y-119855738D01*
X128630027Y-119843907D01*
X133201930Y-111942737D01*
X133640815Y-111184245D01*
X134069318Y-110443679D01*
X134485437Y-109724494D01*
X134887174Y-109030148D01*
X135272529Y-108364098D01*
X135639501Y-107729802D01*
X135986091Y-107130715D01*
X136310299Y-106570296D01*
X136610125Y-106052001D01*
X136883570Y-105579287D01*
X137128633Y-105155611D01*
X137343315Y-104784430D01*
X137525615Y-104469202D01*
X137673535Y-104213383D01*
X137785074Y-104020430D01*
X137858232Y-103893801D01*
X137891010Y-103836951D01*
X137891159Y-103836691D01*
X138008485Y-103631816D01*
X118856317Y-103653166D01*
G37*
X118856317Y-103653166D02*
X117484119Y-106002666D01*
X117245530Y-106411428D01*
X117019447Y-106799237D01*
X116809519Y-107159806D01*
X116619391Y-107486851D01*
X116452709Y-107774085D01*
X116313120Y-108015224D01*
X116204271Y-108203981D01*
X116129807Y-108334070D01*
X116093375Y-108399208D01*
X116090432Y-108405083D01*
X116102503Y-108412077D01*
X116146792Y-108418466D01*
X116226509Y-108424274D01*
X116344864Y-108429524D01*
X116505069Y-108434242D01*
X116710333Y-108438451D01*
X116963868Y-108442174D01*
X117268885Y-108445436D01*
X117628593Y-108448261D01*
X118046204Y-108450672D01*
X118524929Y-108452694D01*
X119067978Y-108454350D01*
X119678562Y-108455665D01*
X120359892Y-108456662D01*
X121115178Y-108457366D01*
X121947632Y-108457799D01*
X122860463Y-108457987D01*
X123185471Y-108458000D01*
X123954792Y-108458136D01*
X124700928Y-108458536D01*
X125419506Y-108459186D01*
X126106155Y-108460071D01*
X126756504Y-108461176D01*
X127366183Y-108462488D01*
X127930818Y-108463991D01*
X128446040Y-108465672D01*
X128907477Y-108467516D01*
X129310758Y-108469509D01*
X129651511Y-108471637D01*
X129925366Y-108473885D01*
X130127950Y-108476238D01*
X130254893Y-108478683D01*
X130301823Y-108481205D01*
X130302000Y-108481370D01*
X130281523Y-108520754D01*
X130222050Y-108628494D01*
X130126519Y-108799394D01*
X129997867Y-109028258D01*
X129839032Y-109309889D01*
X129652952Y-109639091D01*
X129442563Y-110010667D01*
X129210804Y-110419421D01*
X128960612Y-110860157D01*
X128694925Y-111327678D01*
X128416680Y-111816787D01*
X128387508Y-111868037D01*
X126473016Y-115231333D01*
X121216493Y-115231333D01*
X120402940Y-115231428D01*
X119669157Y-115231799D01*
X119010247Y-115232575D01*
X118421313Y-115233888D01*
X117897460Y-115235865D01*
X117433791Y-115238638D01*
X117025409Y-115242336D01*
X116667417Y-115247088D01*
X116354919Y-115253025D01*
X116083019Y-115260275D01*
X115846819Y-115268970D01*
X115641423Y-115279238D01*
X115461936Y-115291210D01*
X115303459Y-115305014D01*
X115161096Y-115320782D01*
X115029952Y-115338642D01*
X114905128Y-115358725D01*
X114781730Y-115381160D01*
X114659833Y-115405076D01*
X113954859Y-115583755D01*
X113279298Y-115831606D01*
X112630364Y-116150662D01*
X112005268Y-116542956D01*
X111401222Y-117010520D01*
X110815438Y-117555386D01*
X110245128Y-118179587D01*
X109687503Y-118885155D01*
X109468169Y-119189500D01*
X109415108Y-119272029D01*
X109323915Y-119422128D01*
X109198107Y-119633650D01*
X109041198Y-119900449D01*
X108856706Y-120216381D01*
X108648146Y-120575299D01*
X108419035Y-120971057D01*
X108172889Y-121397510D01*
X107913224Y-121848512D01*
X107643555Y-122317917D01*
X107367400Y-122799580D01*
X107088274Y-123287355D01*
X106809694Y-123775096D01*
X106535175Y-124256657D01*
X106268235Y-124725893D01*
X106012388Y-125176658D01*
X105771151Y-125602806D01*
X105548040Y-125998192D01*
X105346571Y-126356669D01*
X105170261Y-126672093D01*
X105022626Y-126938317D01*
X104907181Y-127149195D01*
X104827443Y-127298583D01*
X104815408Y-127321871D01*
X104495715Y-128005839D01*
X104250529Y-128668232D01*
X104076705Y-129321216D01*
X103971096Y-129976956D01*
X103930558Y-130647617D01*
X103929895Y-130746500D01*
X103944591Y-131141787D01*
X103992739Y-131484650D01*
X104080179Y-131802699D01*
X104212748Y-132123546D01*
X104227634Y-132154622D01*
X104424297Y-132486009D01*
X104678625Y-132800045D01*
X104971401Y-133077048D01*
X105283405Y-133297337D01*
X105410000Y-133365512D01*
X105479595Y-133400244D01*
X105542295Y-133431978D01*
X105602007Y-133460852D01*
X105662637Y-133486999D01*
X105728091Y-133510555D01*
X105802276Y-133531656D01*
X105889097Y-133550435D01*
X105992461Y-133567029D01*
X106116274Y-133581572D01*
X106264442Y-133594201D01*
X106440871Y-133605048D01*
X106649468Y-133614251D01*
X106894138Y-133621944D01*
X107178789Y-133628263D01*
X107507325Y-133633341D01*
X107883653Y-133637316D01*
X108311680Y-133640321D01*
X108795312Y-133642492D01*
X109338454Y-133643964D01*
X109945013Y-133644872D01*
X110618895Y-133645351D01*
X111364006Y-133645537D01*
X112184253Y-133645564D01*
X113083541Y-133645568D01*
X113505274Y-133645598D01*
X120690382Y-133646333D01*
X120751283Y-133551083D01*
X120782228Y-133497749D01*
X120850343Y-133376993D01*
X120951897Y-133195523D01*
X121083160Y-132960048D01*
X121240401Y-132677279D01*
X121419889Y-132353923D01*
X121617894Y-131996691D01*
X121830685Y-131612291D01*
X122054531Y-131207433D01*
X122063612Y-131191000D01*
X123315039Y-128926166D01*
X116997769Y-128905000D01*
X110680500Y-128883833D01*
X110398718Y-128788107D01*
X110146840Y-128674283D01*
X109963690Y-128523169D01*
X109844548Y-128326984D01*
X109784695Y-128077945D01*
X109779409Y-127768267D01*
X109779483Y-127767025D01*
X109819642Y-127467763D01*
X109910241Y-127184731D01*
X109925532Y-127148166D01*
X109969307Y-127058078D01*
X110051199Y-126901899D01*
X110167086Y-126686919D01*
X110312846Y-126420426D01*
X110484360Y-126109708D01*
X110677505Y-125762054D01*
X110888161Y-125384753D01*
X111112207Y-124985093D01*
X111345521Y-124570363D01*
X111583983Y-124147851D01*
X111823471Y-123724847D01*
X112059864Y-123308638D01*
X112289042Y-122906514D01*
X112506883Y-122525762D01*
X112709266Y-122173672D01*
X112892070Y-121857532D01*
X113051173Y-121584631D01*
X113182456Y-121362257D01*
X113281797Y-121197699D01*
X113345074Y-121098246D01*
X113351416Y-121089089D01*
X113670432Y-120709864D01*
X114046550Y-120388674D01*
X114469348Y-120132969D01*
X114928404Y-119950198D01*
X114956167Y-119941921D01*
X114993654Y-119932106D01*
X115038612Y-119923170D01*
X115095052Y-119915064D01*
X115166987Y-119907739D01*
X115258428Y-119901144D01*
X115373387Y-119895230D01*
X115515877Y-119889947D01*
X115689909Y-119885246D01*
X115899496Y-119881077D01*
X116148650Y-119877391D01*
X116441382Y-119874137D01*
X116781705Y-119871266D01*
X117173631Y-119868728D01*
X117621171Y-119866475D01*
X118128339Y-119864455D01*
X118699145Y-119862620D01*
X119337602Y-119860919D01*
X120047722Y-119859304D01*
X120833517Y-119857724D01*
X121698999Y-119856130D01*
X121920097Y-119855738D01*
X128630027Y-119843907D01*
X133201930Y-111942737D01*
X133640815Y-111184245D01*
X134069318Y-110443679D01*
X134485437Y-109724494D01*
X134887174Y-109030148D01*
X135272529Y-108364098D01*
X135639501Y-107729802D01*
X135986091Y-107130715D01*
X136310299Y-106570296D01*
X136610125Y-106052001D01*
X136883570Y-105579287D01*
X137128633Y-105155611D01*
X137343315Y-104784430D01*
X137525615Y-104469202D01*
X137673535Y-104213383D01*
X137785074Y-104020430D01*
X137858232Y-103893801D01*
X137891010Y-103836951D01*
X137891159Y-103836691D01*
X138008485Y-103631816D01*
X118856317Y-103653166D01*
G36*
X136144829Y-118607416D02*
G01*
X135539172Y-119650700D01*
X134944296Y-120675429D01*
X134361612Y-121679174D01*
X133792529Y-122659504D01*
X133238460Y-123613989D01*
X132700813Y-124540199D01*
X132181001Y-125435702D01*
X131680433Y-126298070D01*
X131200520Y-127124871D01*
X130742673Y-127913675D01*
X130308301Y-128662052D01*
X129898817Y-129367571D01*
X129515629Y-130027803D01*
X129160150Y-130640316D01*
X128833788Y-131202681D01*
X128537956Y-131712467D01*
X128274063Y-132167244D01*
X128043521Y-132564581D01*
X127847739Y-132902048D01*
X127688128Y-133177214D01*
X127566099Y-133387651D01*
X127483062Y-133530926D01*
X127440428Y-133604610D01*
X127434710Y-133614583D01*
X127472983Y-133620070D01*
X127588922Y-133625257D01*
X127775526Y-133630062D01*
X128025795Y-133634403D01*
X128332727Y-133638197D01*
X128689323Y-133641364D01*
X129088581Y-133643821D01*
X129523501Y-133645486D01*
X129987083Y-133646277D01*
X130148866Y-133646333D01*
X132879395Y-133646333D01*
X133108755Y-133254750D01*
X133205249Y-133089688D01*
X133339345Y-132859810D01*
X133509313Y-132568092D01*
X133713426Y-132217513D01*
X133949954Y-131811049D01*
X134217170Y-131351679D01*
X134513344Y-130842379D01*
X134836747Y-130286127D01*
X135185652Y-129685901D01*
X135558329Y-129044679D01*
X135953051Y-128365437D01*
X136368087Y-127651153D01*
X136801710Y-126904805D01*
X137252191Y-126129370D01*
X137717801Y-125327826D01*
X138196812Y-124503150D01*
X138687495Y-123658321D01*
X139188121Y-122796314D01*
X139696963Y-121920108D01*
X140212290Y-121032681D01*
X140732375Y-120137009D01*
X141255489Y-119236071D01*
X141779903Y-118332844D01*
X142303889Y-117430305D01*
X142825718Y-116531431D01*
X143343661Y-115639202D01*
X143855990Y-114756593D01*
X144360976Y-113886582D01*
X144856891Y-113032148D01*
X145342005Y-112196267D01*
X145814591Y-111381917D01*
X146272919Y-110592075D01*
X146715261Y-109829719D01*
X147139889Y-109097827D01*
X147545073Y-108399376D01*
X147929085Y-107737343D01*
X148290197Y-107114706D01*
X148626680Y-106534443D01*
X148936804Y-105999531D01*
X149218842Y-105512947D01*
X149471065Y-105077670D01*
X149691745Y-104696676D01*
X149879152Y-104372943D01*
X150031558Y-104109449D01*
X150147234Y-103909170D01*
X150224452Y-103775086D01*
X150261483Y-103710172D01*
X150264639Y-103704322D01*
X150266149Y-103689780D01*
X150254693Y-103677321D01*
X150224294Y-103666786D01*
X150168976Y-103658014D01*
X150082762Y-103650846D01*
X149959676Y-103645120D01*
X149793740Y-103640678D01*
X149578979Y-103637359D01*
X149309415Y-103635002D01*
X148979073Y-103633448D01*
X148581974Y-103632536D01*
X148112143Y-103632107D01*
X147565484Y-103632000D01*
X144838576Y-103632000D01*
X136144829Y-118607416D01*
G37*
X136144829Y-118607416D02*
X135539172Y-119650700D01*
X134944296Y-120675429D01*
X134361612Y-121679174D01*
X133792529Y-122659504D01*
X133238460Y-123613989D01*
X132700813Y-124540199D01*
X132181001Y-125435702D01*
X131680433Y-126298070D01*
X131200520Y-127124871D01*
X130742673Y-127913675D01*
X130308301Y-128662052D01*
X129898817Y-129367571D01*
X129515629Y-130027803D01*
X129160150Y-130640316D01*
X128833788Y-131202681D01*
X128537956Y-131712467D01*
X128274063Y-132167244D01*
X128043521Y-132564581D01*
X127847739Y-132902048D01*
X127688128Y-133177214D01*
X127566099Y-133387651D01*
X127483062Y-133530926D01*
X127440428Y-133604610D01*
X127434710Y-133614583D01*
X127472983Y-133620070D01*
X127588922Y-133625257D01*
X127775526Y-133630062D01*
X128025795Y-133634403D01*
X128332727Y-133638197D01*
X128689323Y-133641364D01*
X129088581Y-133643821D01*
X129523501Y-133645486D01*
X129987083Y-133646277D01*
X130148866Y-133646333D01*
X132879395Y-133646333D01*
X133108755Y-133254750D01*
X133205249Y-133089688D01*
X133339345Y-132859810D01*
X133509313Y-132568092D01*
X133713426Y-132217513D01*
X133949954Y-131811049D01*
X134217170Y-131351679D01*
X134513344Y-130842379D01*
X134836747Y-130286127D01*
X135185652Y-129685901D01*
X135558329Y-129044679D01*
X135953051Y-128365437D01*
X136368087Y-127651153D01*
X136801710Y-126904805D01*
X137252191Y-126129370D01*
X137717801Y-125327826D01*
X138196812Y-124503150D01*
X138687495Y-123658321D01*
X139188121Y-122796314D01*
X139696963Y-121920108D01*
X140212290Y-121032681D01*
X140732375Y-120137009D01*
X141255489Y-119236071D01*
X141779903Y-118332844D01*
X142303889Y-117430305D01*
X142825718Y-116531431D01*
X143343661Y-115639202D01*
X143855990Y-114756593D01*
X144360976Y-113886582D01*
X144856891Y-113032148D01*
X145342005Y-112196267D01*
X145814591Y-111381917D01*
X146272919Y-110592075D01*
X146715261Y-109829719D01*
X147139889Y-109097827D01*
X147545073Y-108399376D01*
X147929085Y-107737343D01*
X148290197Y-107114706D01*
X148626680Y-106534443D01*
X148936804Y-105999531D01*
X149218842Y-105512947D01*
X149471065Y-105077670D01*
X149691745Y-104696676D01*
X149879152Y-104372943D01*
X150031558Y-104109449D01*
X150147234Y-103909170D01*
X150224452Y-103775086D01*
X150261483Y-103710172D01*
X150264639Y-103704322D01*
X150266149Y-103689780D01*
X150254693Y-103677321D01*
X150224294Y-103666786D01*
X150168976Y-103658014D01*
X150082762Y-103650846D01*
X149959676Y-103645120D01*
X149793740Y-103640678D01*
X149578979Y-103637359D01*
X149309415Y-103635002D01*
X148979073Y-103633448D01*
X148581974Y-103632536D01*
X148112143Y-103632107D01*
X147565484Y-103632000D01*
X144838576Y-103632000D01*
X136144829Y-118607416D01*
G36*
X156678430Y-106034416D02*
G01*
X155277124Y-108436833D01*
X162394377Y-108447539D01*
X163304670Y-108448940D01*
X164134031Y-108450309D01*
X164886199Y-108451689D01*
X165564908Y-108453125D01*
X166173895Y-108454663D01*
X166716896Y-108456347D01*
X167197647Y-108458221D01*
X167619884Y-108460330D01*
X167987344Y-108462719D01*
X168303762Y-108465432D01*
X168572875Y-108468513D01*
X168798419Y-108472009D01*
X168984129Y-108475962D01*
X169133743Y-108480419D01*
X169250995Y-108485423D01*
X169339623Y-108491018D01*
X169403362Y-108497251D01*
X169445949Y-108504164D01*
X169471119Y-108511804D01*
X169482609Y-108520214D01*
X169484155Y-108529439D01*
X169483303Y-108532206D01*
X169458587Y-108579187D01*
X169394953Y-108694374D01*
X169295422Y-108872421D01*
X169163015Y-109107985D01*
X169000753Y-109395720D01*
X168811656Y-109730281D01*
X168598746Y-110106325D01*
X168365043Y-110518507D01*
X168113568Y-110961482D01*
X167847341Y-111429905D01*
X167570214Y-111916974D01*
X165685453Y-115227783D01*
X160196310Y-115241879D01*
X159402446Y-115243937D01*
X158688552Y-115245877D01*
X158049932Y-115247782D01*
X157481889Y-115249735D01*
X156979726Y-115251821D01*
X156538748Y-115254122D01*
X156154258Y-115256722D01*
X155821560Y-115259705D01*
X155535956Y-115263153D01*
X155292751Y-115267151D01*
X155087248Y-115271781D01*
X154914752Y-115277128D01*
X154770564Y-115283275D01*
X154649990Y-115290305D01*
X154548332Y-115298302D01*
X154460894Y-115307348D01*
X154382980Y-115317529D01*
X154309893Y-115328927D01*
X154236937Y-115341625D01*
X154199167Y-115348465D01*
X153691070Y-115451381D01*
X153242654Y-115566582D01*
X152829039Y-115702100D01*
X152425345Y-115865966D01*
X152061333Y-116038596D01*
X151448981Y-116389657D01*
X150846765Y-116822378D01*
X150257565Y-117334066D01*
X149684264Y-117922026D01*
X149129743Y-118583564D01*
X148669112Y-119210666D01*
X148603952Y-119311626D01*
X148500958Y-119480177D01*
X148363698Y-119710057D01*
X148195742Y-119995004D01*
X148000658Y-120328755D01*
X147782016Y-120705049D01*
X147543384Y-121117624D01*
X147288331Y-121560218D01*
X147020426Y-122026568D01*
X146743238Y-122510413D01*
X146460336Y-123005492D01*
X146175288Y-123505540D01*
X145891664Y-124004298D01*
X145613032Y-124495503D01*
X145342961Y-124972892D01*
X145085021Y-125430204D01*
X144842779Y-125861177D01*
X144619805Y-126259548D01*
X144419668Y-126619057D01*
X144245937Y-126933440D01*
X144102180Y-127196436D01*
X143991967Y-127401783D01*
X143918866Y-127543219D01*
X143910622Y-127559972D01*
X143634370Y-128180778D01*
X143424543Y-128778223D01*
X143275614Y-129373572D01*
X143182056Y-129988092D01*
X143143108Y-130513666D01*
X143137125Y-130922318D01*
X143160515Y-131272286D01*
X143217118Y-131585610D01*
X143310775Y-131884331D01*
X143429712Y-132158477D01*
X143652440Y-132530597D01*
X143938389Y-132866685D01*
X144273852Y-133155531D01*
X144645124Y-133385929D01*
X145038498Y-133546671D01*
X145171432Y-133582663D01*
X145214399Y-133590709D01*
X145274458Y-133598053D01*
X145355331Y-133604725D01*
X145460736Y-133610757D01*
X145594394Y-133616181D01*
X145760025Y-133621027D01*
X145961347Y-133625327D01*
X146202082Y-133629112D01*
X146485949Y-133632413D01*
X146816668Y-133635261D01*
X147197958Y-133637688D01*
X147633540Y-133639726D01*
X148127134Y-133641404D01*
X148682458Y-133642755D01*
X149303234Y-133643810D01*
X149993181Y-133644599D01*
X150756018Y-133645155D01*
X151595466Y-133645509D01*
X152515244Y-133645691D01*
X152675651Y-133645707D01*
X159915135Y-133646333D01*
X161205817Y-131313976D01*
X161432242Y-130904617D01*
X161646455Y-130516964D01*
X161844942Y-130157399D01*
X162024192Y-129832301D01*
X162180691Y-129548052D01*
X162310928Y-129311033D01*
X162411390Y-129127624D01*
X162478564Y-129004206D01*
X162508937Y-128947161D01*
X162510299Y-128944245D01*
X162470346Y-128939603D01*
X162349690Y-128935011D01*
X162152296Y-128930500D01*
X161882129Y-128926100D01*
X161543151Y-128921843D01*
X161139329Y-128917758D01*
X160674625Y-128913877D01*
X160153004Y-128910230D01*
X159578431Y-128906848D01*
X158954870Y-128903761D01*
X158286284Y-128901001D01*
X157576639Y-128898598D01*
X156829899Y-128896582D01*
X156181466Y-128895220D01*
X155322416Y-128893598D01*
X154543915Y-128892005D01*
X153841848Y-128890386D01*
X153212098Y-128888688D01*
X152650548Y-128886855D01*
X152153081Y-128884833D01*
X151715582Y-128882569D01*
X151333932Y-128880007D01*
X151004017Y-128877094D01*
X150721718Y-128873774D01*
X150482920Y-128869994D01*
X150283506Y-128865700D01*
X150119359Y-128860836D01*
X149986363Y-128855349D01*
X149880401Y-128849184D01*
X149797356Y-128842287D01*
X149733112Y-128834604D01*
X149683553Y-128826080D01*
X149644561Y-128816660D01*
X149618591Y-128808574D01*
X149355972Y-128681913D01*
X149159984Y-128505633D01*
X149031311Y-128283217D01*
X148970637Y-128018147D01*
X148978648Y-127713903D01*
X149056028Y-127373967D01*
X149203461Y-127001820D01*
X149246167Y-126914381D01*
X149294234Y-126823774D01*
X149379735Y-126667662D01*
X149498412Y-126453565D01*
X149646009Y-126189001D01*
X149818267Y-125881491D01*
X150010931Y-125538555D01*
X150219742Y-125167711D01*
X150440443Y-124776480D01*
X150668778Y-124372380D01*
X150900490Y-123962933D01*
X151131321Y-123555656D01*
X151357014Y-123158071D01*
X151573312Y-122777696D01*
X151775957Y-122422051D01*
X151960694Y-122098656D01*
X152123264Y-121815030D01*
X152259410Y-121578693D01*
X152364876Y-121397165D01*
X152435403Y-121277965D01*
X152457139Y-121242666D01*
X152761301Y-120841436D01*
X153121872Y-120498608D01*
X153530456Y-120220544D01*
X153978659Y-120013605D01*
X154155878Y-119955450D01*
X154196155Y-119943983D01*
X154237769Y-119933559D01*
X154284782Y-119924120D01*
X154341258Y-119915608D01*
X154411259Y-119907964D01*
X154498846Y-119901131D01*
X154608081Y-119895052D01*
X154743029Y-119889667D01*
X154907749Y-119884918D01*
X155106305Y-119880749D01*
X155342760Y-119877100D01*
X155621174Y-119873915D01*
X155945611Y-119871134D01*
X156320133Y-119868700D01*
X156748802Y-119866554D01*
X157235680Y-119864640D01*
X157784830Y-119862898D01*
X158400313Y-119861271D01*
X159086193Y-119859701D01*
X159846531Y-119858129D01*
X160685390Y-119856499D01*
X161147440Y-119855621D01*
X167841713Y-119842939D01*
X172510318Y-111769219D01*
X172952224Y-111004989D01*
X173382935Y-110260096D01*
X173800530Y-109537861D01*
X174203087Y-108841608D01*
X174588688Y-108174659D01*
X174955410Y-107540338D01*
X175301332Y-106941967D01*
X175624535Y-106382869D01*
X175923098Y-105866368D01*
X176195099Y-105395785D01*
X176438618Y-104974443D01*
X176651734Y-104605666D01*
X176832526Y-104292777D01*
X176979074Y-104039097D01*
X177089457Y-103847951D01*
X177161755Y-103722660D01*
X177194046Y-103666549D01*
X177195626Y-103663750D01*
X177155498Y-103660784D01*
X177034464Y-103657893D01*
X176836286Y-103655090D01*
X176564726Y-103652387D01*
X176223546Y-103649796D01*
X175816506Y-103647331D01*
X175347369Y-103645002D01*
X174819895Y-103642824D01*
X174237846Y-103640808D01*
X173604984Y-103638967D01*
X172925070Y-103637314D01*
X172201866Y-103635860D01*
X171439133Y-103634619D01*
X170640632Y-103633603D01*
X169810125Y-103632825D01*
X168951374Y-103632296D01*
X168068140Y-103632030D01*
X167646033Y-103632000D01*
X158079736Y-103632000D01*
X156678430Y-106034416D01*
G37*
X156678430Y-106034416D02*
X155277124Y-108436833D01*
X162394377Y-108447539D01*
X163304670Y-108448940D01*
X164134031Y-108450309D01*
X164886199Y-108451689D01*
X165564908Y-108453125D01*
X166173895Y-108454663D01*
X166716896Y-108456347D01*
X167197647Y-108458221D01*
X167619884Y-108460330D01*
X167987344Y-108462719D01*
X168303762Y-108465432D01*
X168572875Y-108468513D01*
X168798419Y-108472009D01*
X168984129Y-108475962D01*
X169133743Y-108480419D01*
X169250995Y-108485423D01*
X169339623Y-108491018D01*
X169403362Y-108497251D01*
X169445949Y-108504164D01*
X169471119Y-108511804D01*
X169482609Y-108520214D01*
X169484155Y-108529439D01*
X169483303Y-108532206D01*
X169458587Y-108579187D01*
X169394953Y-108694374D01*
X169295422Y-108872421D01*
X169163015Y-109107985D01*
X169000753Y-109395720D01*
X168811656Y-109730281D01*
X168598746Y-110106325D01*
X168365043Y-110518507D01*
X168113568Y-110961482D01*
X167847341Y-111429905D01*
X167570214Y-111916974D01*
X165685453Y-115227783D01*
X160196310Y-115241879D01*
X159402446Y-115243937D01*
X158688552Y-115245877D01*
X158049932Y-115247782D01*
X157481889Y-115249735D01*
X156979726Y-115251821D01*
X156538748Y-115254122D01*
X156154258Y-115256722D01*
X155821560Y-115259705D01*
X155535956Y-115263153D01*
X155292751Y-115267151D01*
X155087248Y-115271781D01*
X154914752Y-115277128D01*
X154770564Y-115283275D01*
X154649990Y-115290305D01*
X154548332Y-115298302D01*
X154460894Y-115307348D01*
X154382980Y-115317529D01*
X154309893Y-115328927D01*
X154236937Y-115341625D01*
X154199167Y-115348465D01*
X153691070Y-115451381D01*
X153242654Y-115566582D01*
X152829039Y-115702100D01*
X152425345Y-115865966D01*
X152061333Y-116038596D01*
X151448981Y-116389657D01*
X150846765Y-116822378D01*
X150257565Y-117334066D01*
X149684264Y-117922026D01*
X149129743Y-118583564D01*
X148669112Y-119210666D01*
X148603952Y-119311626D01*
X148500958Y-119480177D01*
X148363698Y-119710057D01*
X148195742Y-119995004D01*
X148000658Y-120328755D01*
X147782016Y-120705049D01*
X147543384Y-121117624D01*
X147288331Y-121560218D01*
X147020426Y-122026568D01*
X146743238Y-122510413D01*
X146460336Y-123005492D01*
X146175288Y-123505540D01*
X145891664Y-124004298D01*
X145613032Y-124495503D01*
X145342961Y-124972892D01*
X145085021Y-125430204D01*
X144842779Y-125861177D01*
X144619805Y-126259548D01*
X144419668Y-126619057D01*
X144245937Y-126933440D01*
X144102180Y-127196436D01*
X143991967Y-127401783D01*
X143918866Y-127543219D01*
X143910622Y-127559972D01*
X143634370Y-128180778D01*
X143424543Y-128778223D01*
X143275614Y-129373572D01*
X143182056Y-129988092D01*
X143143108Y-130513666D01*
X143137125Y-130922318D01*
X143160515Y-131272286D01*
X143217118Y-131585610D01*
X143310775Y-131884331D01*
X143429712Y-132158477D01*
X143652440Y-132530597D01*
X143938389Y-132866685D01*
X144273852Y-133155531D01*
X144645124Y-133385929D01*
X145038498Y-133546671D01*
X145171432Y-133582663D01*
X145214399Y-133590709D01*
X145274458Y-133598053D01*
X145355331Y-133604725D01*
X145460736Y-133610757D01*
X145594394Y-133616181D01*
X145760025Y-133621027D01*
X145961347Y-133625327D01*
X146202082Y-133629112D01*
X146485949Y-133632413D01*
X146816668Y-133635261D01*
X147197958Y-133637688D01*
X147633540Y-133639726D01*
X148127134Y-133641404D01*
X148682458Y-133642755D01*
X149303234Y-133643810D01*
X149993181Y-133644599D01*
X150756018Y-133645155D01*
X151595466Y-133645509D01*
X152515244Y-133645691D01*
X152675651Y-133645707D01*
X159915135Y-133646333D01*
X161205817Y-131313976D01*
X161432242Y-130904617D01*
X161646455Y-130516964D01*
X161844942Y-130157399D01*
X162024192Y-129832301D01*
X162180691Y-129548052D01*
X162310928Y-129311033D01*
X162411390Y-129127624D01*
X162478564Y-129004206D01*
X162508937Y-128947161D01*
X162510299Y-128944245D01*
X162470346Y-128939603D01*
X162349690Y-128935011D01*
X162152296Y-128930500D01*
X161882129Y-128926100D01*
X161543151Y-128921843D01*
X161139329Y-128917758D01*
X160674625Y-128913877D01*
X160153004Y-128910230D01*
X159578431Y-128906848D01*
X158954870Y-128903761D01*
X158286284Y-128901001D01*
X157576639Y-128898598D01*
X156829899Y-128896582D01*
X156181466Y-128895220D01*
X155322416Y-128893598D01*
X154543915Y-128892005D01*
X153841848Y-128890386D01*
X153212098Y-128888688D01*
X152650548Y-128886855D01*
X152153081Y-128884833D01*
X151715582Y-128882569D01*
X151333932Y-128880007D01*
X151004017Y-128877094D01*
X150721718Y-128873774D01*
X150482920Y-128869994D01*
X150283506Y-128865700D01*
X150119359Y-128860836D01*
X149986363Y-128855349D01*
X149880401Y-128849184D01*
X149797356Y-128842287D01*
X149733112Y-128834604D01*
X149683553Y-128826080D01*
X149644561Y-128816660D01*
X149618591Y-128808574D01*
X149355972Y-128681913D01*
X149159984Y-128505633D01*
X149031311Y-128283217D01*
X148970637Y-128018147D01*
X148978648Y-127713903D01*
X149056028Y-127373967D01*
X149203461Y-127001820D01*
X149246167Y-126914381D01*
X149294234Y-126823774D01*
X149379735Y-126667662D01*
X149498412Y-126453565D01*
X149646009Y-126189001D01*
X149818267Y-125881491D01*
X150010931Y-125538555D01*
X150219742Y-125167711D01*
X150440443Y-124776480D01*
X150668778Y-124372380D01*
X150900490Y-123962933D01*
X151131321Y-123555656D01*
X151357014Y-123158071D01*
X151573312Y-122777696D01*
X151775957Y-122422051D01*
X151960694Y-122098656D01*
X152123264Y-121815030D01*
X152259410Y-121578693D01*
X152364876Y-121397165D01*
X152435403Y-121277965D01*
X152457139Y-121242666D01*
X152761301Y-120841436D01*
X153121872Y-120498608D01*
X153530456Y-120220544D01*
X153978659Y-120013605D01*
X154155878Y-119955450D01*
X154196155Y-119943983D01*
X154237769Y-119933559D01*
X154284782Y-119924120D01*
X154341258Y-119915608D01*
X154411259Y-119907964D01*
X154498846Y-119901131D01*
X154608081Y-119895052D01*
X154743029Y-119889667D01*
X154907749Y-119884918D01*
X155106305Y-119880749D01*
X155342760Y-119877100D01*
X155621174Y-119873915D01*
X155945611Y-119871134D01*
X156320133Y-119868700D01*
X156748802Y-119866554D01*
X157235680Y-119864640D01*
X157784830Y-119862898D01*
X158400313Y-119861271D01*
X159086193Y-119859701D01*
X159846531Y-119858129D01*
X160685390Y-119856499D01*
X161147440Y-119855621D01*
X167841713Y-119842939D01*
X172510318Y-111769219D01*
X172952224Y-111004989D01*
X173382935Y-110260096D01*
X173800530Y-109537861D01*
X174203087Y-108841608D01*
X174588688Y-108174659D01*
X174955410Y-107540338D01*
X175301332Y-106941967D01*
X175624535Y-106382869D01*
X175923098Y-105866368D01*
X176195099Y-105395785D01*
X176438618Y-104974443D01*
X176651734Y-104605666D01*
X176832526Y-104292777D01*
X176979074Y-104039097D01*
X177089457Y-103847951D01*
X177161755Y-103722660D01*
X177194046Y-103666549D01*
X177195626Y-103663750D01*
X177155498Y-103660784D01*
X177034464Y-103657893D01*
X176836286Y-103655090D01*
X176564726Y-103652387D01*
X176223546Y-103649796D01*
X175816506Y-103647331D01*
X175347369Y-103645002D01*
X174819895Y-103642824D01*
X174237846Y-103640808D01*
X173604984Y-103638967D01*
X172925070Y-103637314D01*
X172201866Y-103635860D01*
X171439133Y-103634619D01*
X170640632Y-103633603D01*
X169810125Y-103632825D01*
X168951374Y-103632296D01*
X168068140Y-103632030D01*
X167646033Y-103632000D01*
X158079736Y-103632000D01*
X156678430Y-106034416D01*
G36*
X208778990Y-124364750D02*
G01*
X208308736Y-125178714D01*
X207849494Y-125973815D01*
X207403073Y-126746910D01*
X206971283Y-127494857D01*
X206555936Y-128214515D01*
X206158841Y-128902741D01*
X205781809Y-129556395D01*
X205426650Y-130172333D01*
X205095175Y-130747415D01*
X204789193Y-131278499D01*
X204510517Y-131762442D01*
X204260955Y-132196104D01*
X204042319Y-132576341D01*
X203856418Y-132900013D01*
X203705064Y-133163977D01*
X203590066Y-133365092D01*
X203513236Y-133500216D01*
X203476382Y-133566207D01*
X203473313Y-133572250D01*
X203470927Y-133588121D01*
X203481183Y-133601555D01*
X203510489Y-133612753D01*
X203565251Y-133621918D01*
X203651876Y-133629253D01*
X203776773Y-133634958D01*
X203946348Y-133639238D01*
X204167008Y-133642294D01*
X204445161Y-133644328D01*
X204787215Y-133645544D01*
X205199575Y-133646143D01*
X205688650Y-133646328D01*
X205818753Y-133646333D01*
X208192564Y-133646333D01*
X208421870Y-133254750D01*
X208464028Y-133182231D01*
X208546544Y-133039775D01*
X208667456Y-132830777D01*
X208824805Y-132558630D01*
X209016630Y-132226731D01*
X209240970Y-131838474D01*
X209495864Y-131397253D01*
X209779352Y-130906463D01*
X210089474Y-130369500D01*
X210424268Y-129789758D01*
X210781775Y-129170631D01*
X211160033Y-128515516D01*
X211557083Y-127827806D01*
X211970962Y-127110896D01*
X212399712Y-126368181D01*
X212841370Y-125603057D01*
X213293978Y-124818917D01*
X213635520Y-124227166D01*
X214093203Y-123434179D01*
X214540431Y-122659316D01*
X214975307Y-121905865D01*
X215395932Y-121177115D01*
X215800409Y-120476353D01*
X216186840Y-119806867D01*
X216553326Y-119171945D01*
X216897971Y-118574875D01*
X217218875Y-118018945D01*
X217514141Y-117507442D01*
X217781872Y-117043655D01*
X218020169Y-116630872D01*
X218227133Y-116272380D01*
X218400869Y-115971467D01*
X218539477Y-115731422D01*
X218641059Y-115555532D01*
X218703718Y-115447084D01*
X218724454Y-115411250D01*
X218829045Y-115231333D01*
X214056295Y-115231333D01*
X208778990Y-124364750D01*
G37*
X208778990Y-124364750D02*
X208308736Y-125178714D01*
X207849494Y-125973815D01*
X207403073Y-126746910D01*
X206971283Y-127494857D01*
X206555936Y-128214515D01*
X206158841Y-128902741D01*
X205781809Y-129556395D01*
X205426650Y-130172333D01*
X205095175Y-130747415D01*
X204789193Y-131278499D01*
X204510517Y-131762442D01*
X204260955Y-132196104D01*
X204042319Y-132576341D01*
X203856418Y-132900013D01*
X203705064Y-133163977D01*
X203590066Y-133365092D01*
X203513236Y-133500216D01*
X203476382Y-133566207D01*
X203473313Y-133572250D01*
X203470927Y-133588121D01*
X203481183Y-133601555D01*
X203510489Y-133612753D01*
X203565251Y-133621918D01*
X203651876Y-133629253D01*
X203776773Y-133634958D01*
X203946348Y-133639238D01*
X204167008Y-133642294D01*
X204445161Y-133644328D01*
X204787215Y-133645544D01*
X205199575Y-133646143D01*
X205688650Y-133646328D01*
X205818753Y-133646333D01*
X208192564Y-133646333D01*
X208421870Y-133254750D01*
X208464028Y-133182231D01*
X208546544Y-133039775D01*
X208667456Y-132830777D01*
X208824805Y-132558630D01*
X209016630Y-132226731D01*
X209240970Y-131838474D01*
X209495864Y-131397253D01*
X209779352Y-130906463D01*
X210089474Y-130369500D01*
X210424268Y-129789758D01*
X210781775Y-129170631D01*
X211160033Y-128515516D01*
X211557083Y-127827806D01*
X211970962Y-127110896D01*
X212399712Y-126368181D01*
X212841370Y-125603057D01*
X213293978Y-124818917D01*
X213635520Y-124227166D01*
X214093203Y-123434179D01*
X214540431Y-122659316D01*
X214975307Y-121905865D01*
X215395932Y-121177115D01*
X215800409Y-120476353D01*
X216186840Y-119806867D01*
X216553326Y-119171945D01*
X216897971Y-118574875D01*
X217218875Y-118018945D01*
X217514141Y-117507442D01*
X217781872Y-117043655D01*
X218020169Y-116630872D01*
X218227133Y-116272380D01*
X218400869Y-115971467D01*
X218539477Y-115731422D01*
X218641059Y-115555532D01*
X218703718Y-115447084D01*
X218724454Y-115411250D01*
X218829045Y-115231333D01*
X214056295Y-115231333D01*
X208778990Y-124364750D01*
G36*
X227638465Y-103674412D02*
G01*
X226603761Y-103674658D01*
X225648263Y-103675087D01*
X224769240Y-103675712D01*
X223963963Y-103676548D01*
X223229701Y-103677611D01*
X222563724Y-103678914D01*
X221963302Y-103680473D01*
X221425704Y-103682301D01*
X220948200Y-103684414D01*
X220528060Y-103686826D01*
X220162554Y-103689551D01*
X219848951Y-103692605D01*
X219584521Y-103696002D01*
X219366533Y-103699757D01*
X219192259Y-103703884D01*
X219058966Y-103708398D01*
X218963925Y-103713313D01*
X218904406Y-103718644D01*
X218877679Y-103724406D01*
X218875661Y-103727250D01*
X218900177Y-103772217D01*
X218963660Y-103884016D01*
X219062453Y-104056321D01*
X219192902Y-104282808D01*
X219351354Y-104557149D01*
X219534153Y-104873020D01*
X219737645Y-105224096D01*
X219958175Y-105604050D01*
X220192090Y-106006557D01*
X220251378Y-106108500D01*
X221605711Y-108436833D01*
X224975785Y-108447670D01*
X228345860Y-108458506D01*
X228356513Y-121041836D01*
X228367167Y-133625166D01*
X233129667Y-133647038D01*
X233129667Y-108458414D01*
X237270131Y-108447624D01*
X241410595Y-108436833D01*
X240033265Y-106055583D01*
X238655936Y-103674333D01*
X228755106Y-103674333D01*
X227638465Y-103674412D01*
G37*
X227638465Y-103674412D02*
X226603761Y-103674658D01*
X225648263Y-103675087D01*
X224769240Y-103675712D01*
X223963963Y-103676548D01*
X223229701Y-103677611D01*
X222563724Y-103678914D01*
X221963302Y-103680473D01*
X221425704Y-103682301D01*
X220948200Y-103684414D01*
X220528060Y-103686826D01*
X220162554Y-103689551D01*
X219848951Y-103692605D01*
X219584521Y-103696002D01*
X219366533Y-103699757D01*
X219192259Y-103703884D01*
X219058966Y-103708398D01*
X218963925Y-103713313D01*
X218904406Y-103718644D01*
X218877679Y-103724406D01*
X218875661Y-103727250D01*
X218900177Y-103772217D01*
X218963660Y-103884016D01*
X219062453Y-104056321D01*
X219192902Y-104282808D01*
X219351354Y-104557149D01*
X219534153Y-104873020D01*
X219737645Y-105224096D01*
X219958175Y-105604050D01*
X220192090Y-106006557D01*
X220251378Y-106108500D01*
X221605711Y-108436833D01*
X224975785Y-108447670D01*
X228345860Y-108458506D01*
X228356513Y-121041836D01*
X228367167Y-133625166D01*
X233129667Y-133647038D01*
X233129667Y-108458414D01*
X237270131Y-108447624D01*
X241410595Y-108436833D01*
X240033265Y-106055583D01*
X238655936Y-103674333D01*
X228755106Y-103674333D01*
X227638465Y-103674412D01*
G36*
X245689016Y-103633464D02*
G01*
X245055313Y-103634147D01*
X244440264Y-103635179D01*
X243849306Y-103636560D01*
X243287877Y-103638291D01*
X242761413Y-103640374D01*
X242275353Y-103642810D01*
X241835133Y-103645601D01*
X241446191Y-103648748D01*
X241113964Y-103652252D01*
X240843890Y-103656114D01*
X240641405Y-103660335D01*
X240511948Y-103664918D01*
X240460956Y-103669863D01*
X240460389Y-103670587D01*
X240483514Y-103712995D01*
X240545513Y-103822433D01*
X240642805Y-103992675D01*
X240771809Y-104217500D01*
X240928944Y-104490682D01*
X241110629Y-104805998D01*
X241313283Y-105157224D01*
X241533325Y-105538136D01*
X241767173Y-105942512D01*
X241848430Y-106082925D01*
X243222360Y-108456676D01*
X253428500Y-108479166D01*
X253640167Y-108576394D01*
X253948478Y-108746346D01*
X254187963Y-108947076D01*
X254373018Y-109193786D01*
X254518037Y-109501683D01*
X254519217Y-109504813D01*
X254540667Y-109564538D01*
X254558577Y-109625024D01*
X254573334Y-109694335D01*
X254585320Y-109780533D01*
X254594922Y-109891682D01*
X254602523Y-110035845D01*
X254608508Y-110221084D01*
X254613261Y-110455462D01*
X254617167Y-110747042D01*
X254620611Y-111103887D01*
X254623977Y-111534061D01*
X254625409Y-111731549D01*
X254628374Y-112287799D01*
X254628664Y-112761346D01*
X254626251Y-113154110D01*
X254621105Y-113468013D01*
X254613199Y-113704977D01*
X254602502Y-113866922D01*
X254592250Y-113942173D01*
X254480954Y-114295319D01*
X254306395Y-114604381D01*
X254075805Y-114860198D01*
X253796418Y-115053609D01*
X253667560Y-115113504D01*
X253428500Y-115210166D01*
X248793000Y-115233691D01*
X248066023Y-115237417D01*
X247418644Y-115240873D01*
X246845797Y-115244170D01*
X246342414Y-115247423D01*
X245903430Y-115250744D01*
X245523776Y-115254247D01*
X245198387Y-115258045D01*
X244922194Y-115262252D01*
X244690130Y-115266980D01*
X244497130Y-115272343D01*
X244338125Y-115278453D01*
X244208050Y-115285426D01*
X244101836Y-115293372D01*
X244014416Y-115302407D01*
X243940725Y-115312642D01*
X243875695Y-115324192D01*
X243814258Y-115337169D01*
X243776500Y-115345807D01*
X243135113Y-115532189D01*
X242552350Y-115779557D01*
X242027951Y-116088168D01*
X241561656Y-116458277D01*
X241153203Y-116890140D01*
X240802333Y-117384012D01*
X240508785Y-117940150D01*
X240272298Y-118558808D01*
X240179528Y-118875967D01*
X240139532Y-119026517D01*
X240104122Y-119163583D01*
X240072994Y-119293087D01*
X240045846Y-119420949D01*
X240022373Y-119553090D01*
X240002272Y-119695431D01*
X239985241Y-119853892D01*
X239970977Y-120034394D01*
X239959174Y-120242859D01*
X239949532Y-120485207D01*
X239941745Y-120767358D01*
X239935511Y-121095233D01*
X239930527Y-121474754D01*
X239926489Y-121911840D01*
X239923095Y-122412414D01*
X239920040Y-122982394D01*
X239917021Y-123627703D01*
X239915177Y-124036666D01*
X239912016Y-124862488D01*
X239910369Y-125604561D01*
X239910241Y-126263787D01*
X239911638Y-126841071D01*
X239914566Y-127337316D01*
X239919030Y-127753426D01*
X239925037Y-128090304D01*
X239932592Y-128348854D01*
X239941702Y-128529980D01*
X239944119Y-128562022D01*
X240031373Y-129298677D01*
X240166834Y-129968395D01*
X240351979Y-130574845D01*
X240588286Y-131121695D01*
X240877233Y-131612612D01*
X241220297Y-132051263D01*
X241442412Y-132281030D01*
X241809302Y-132598119D01*
X242201946Y-132866353D01*
X242631578Y-133090852D01*
X243109431Y-133276736D01*
X243646737Y-133429122D01*
X244221000Y-133547266D01*
X244280321Y-133556619D01*
X244349493Y-133565155D01*
X244432571Y-133572923D01*
X244533612Y-133579972D01*
X244656674Y-133586351D01*
X244805813Y-133592109D01*
X244985085Y-133597295D01*
X245198547Y-133601959D01*
X245450255Y-133606149D01*
X245744267Y-133609914D01*
X246084639Y-133613305D01*
X246475428Y-133616369D01*
X246920689Y-133619155D01*
X247424481Y-133621714D01*
X247990859Y-133624094D01*
X248623881Y-133626343D01*
X249327602Y-133628512D01*
X250106080Y-133630650D01*
X250963370Y-133632804D01*
X251369349Y-133633777D01*
X258115531Y-133649748D01*
X257965925Y-133383457D01*
X257917025Y-133297276D01*
X257830288Y-133145356D01*
X257710101Y-132935346D01*
X257560849Y-132674894D01*
X257386919Y-132371649D01*
X257192697Y-132033260D01*
X256982570Y-131667374D01*
X256760923Y-131281640D01*
X256611473Y-131021666D01*
X255406628Y-128926166D01*
X250544064Y-128905000D01*
X245681500Y-128883833D01*
X245406333Y-128786030D01*
X245060460Y-128622636D01*
X244772597Y-128398594D01*
X244542225Y-128113201D01*
X244368822Y-127765749D01*
X244251867Y-127355534D01*
X244221801Y-127180867D01*
X244214049Y-127084573D01*
X244206831Y-126911143D01*
X244200256Y-126668107D01*
X244194428Y-126362995D01*
X244189456Y-126003337D01*
X244185446Y-125596662D01*
X244182504Y-125150500D01*
X244180738Y-124672380D01*
X244180240Y-124248333D01*
X244180430Y-123670445D01*
X244181359Y-123170514D01*
X244183497Y-122741832D01*
X244187310Y-122377688D01*
X244193268Y-122071375D01*
X244201839Y-121816183D01*
X244213491Y-121605403D01*
X244228691Y-121432326D01*
X244247909Y-121290243D01*
X244271613Y-121172446D01*
X244300270Y-121072224D01*
X244334350Y-120982869D01*
X244374319Y-120897673D01*
X244420142Y-120810854D01*
X244618198Y-120519791D01*
X244870315Y-120281058D01*
X245184521Y-120088427D01*
X245533333Y-119947233D01*
X245575158Y-119934707D01*
X245624157Y-119923533D01*
X245685392Y-119913596D01*
X245763922Y-119904783D01*
X245864809Y-119896979D01*
X245993115Y-119890071D01*
X246153900Y-119883944D01*
X246352224Y-119878485D01*
X246593150Y-119873580D01*
X246881737Y-119869114D01*
X247223047Y-119864973D01*
X247622141Y-119861044D01*
X248084080Y-119857213D01*
X248613924Y-119853365D01*
X249216735Y-119849387D01*
X249897573Y-119845165D01*
X250126500Y-119843781D01*
X250830843Y-119839496D01*
X251455797Y-119835534D01*
X252006640Y-119831769D01*
X252488647Y-119828071D01*
X252907096Y-119824315D01*
X253267264Y-119820373D01*
X253574426Y-119816118D01*
X253833861Y-119811423D01*
X254050845Y-119806159D01*
X254230654Y-119800201D01*
X254378566Y-119793421D01*
X254499857Y-119785691D01*
X254599804Y-119776885D01*
X254683684Y-119766875D01*
X254756774Y-119755534D01*
X254824350Y-119742734D01*
X254889000Y-119728942D01*
X255476616Y-119577642D01*
X255994302Y-119395885D01*
X256453087Y-119177992D01*
X256863999Y-118918286D01*
X257238069Y-118611089D01*
X257432315Y-118419603D01*
X257784478Y-117999874D01*
X258083858Y-117531221D01*
X258332709Y-117008399D01*
X258533281Y-116426165D01*
X258687827Y-115779277D01*
X258765476Y-115316000D01*
X258780543Y-115166721D01*
X258794699Y-114942014D01*
X258807853Y-114651112D01*
X258819917Y-114303249D01*
X258830802Y-113907659D01*
X258840419Y-113473577D01*
X258848679Y-113010235D01*
X258855492Y-112526869D01*
X258860769Y-112032711D01*
X258864422Y-111536996D01*
X258866362Y-111048959D01*
X258866498Y-110577831D01*
X258864743Y-110132849D01*
X258861007Y-109723245D01*
X258855200Y-109358254D01*
X258847235Y-109047110D01*
X258837021Y-108799046D01*
X258829495Y-108680657D01*
X258739274Y-107934805D01*
X258588171Y-107244704D01*
X258376825Y-106611343D01*
X258105872Y-106035712D01*
X257775951Y-105518801D01*
X257387699Y-105061598D01*
X256941754Y-104665092D01*
X256438754Y-104330274D01*
X255879335Y-104058132D01*
X255839971Y-104042211D01*
X255409448Y-103893561D01*
X254952646Y-103783736D01*
X254449838Y-103708683D01*
X254047197Y-103673831D01*
X253928295Y-103668797D01*
X253735612Y-103664089D01*
X253474585Y-103659708D01*
X253150651Y-103655656D01*
X252769248Y-103651934D01*
X252335814Y-103648543D01*
X251855784Y-103645484D01*
X251334598Y-103642759D01*
X250777692Y-103640369D01*
X250190504Y-103638315D01*
X249578471Y-103636599D01*
X248947029Y-103635221D01*
X248301618Y-103634184D01*
X247647674Y-103633489D01*
X246990634Y-103633136D01*
X246335935Y-103633127D01*
X245689016Y-103633464D01*
G37*
X245689016Y-103633464D02*
X245055313Y-103634147D01*
X244440264Y-103635179D01*
X243849306Y-103636560D01*
X243287877Y-103638291D01*
X242761413Y-103640374D01*
X242275353Y-103642810D01*
X241835133Y-103645601D01*
X241446191Y-103648748D01*
X241113964Y-103652252D01*
X240843890Y-103656114D01*
X240641405Y-103660335D01*
X240511948Y-103664918D01*
X240460956Y-103669863D01*
X240460389Y-103670587D01*
X240483514Y-103712995D01*
X240545513Y-103822433D01*
X240642805Y-103992675D01*
X240771809Y-104217500D01*
X240928944Y-104490682D01*
X241110629Y-104805998D01*
X241313283Y-105157224D01*
X241533325Y-105538136D01*
X241767173Y-105942512D01*
X241848430Y-106082925D01*
X243222360Y-108456676D01*
X253428500Y-108479166D01*
X253640167Y-108576394D01*
X253948478Y-108746346D01*
X254187963Y-108947076D01*
X254373018Y-109193786D01*
X254518037Y-109501683D01*
X254519217Y-109504813D01*
X254540667Y-109564538D01*
X254558577Y-109625024D01*
X254573334Y-109694335D01*
X254585320Y-109780533D01*
X254594922Y-109891682D01*
X254602523Y-110035845D01*
X254608508Y-110221084D01*
X254613261Y-110455462D01*
X254617167Y-110747042D01*
X254620611Y-111103887D01*
X254623977Y-111534061D01*
X254625409Y-111731549D01*
X254628374Y-112287799D01*
X254628664Y-112761346D01*
X254626251Y-113154110D01*
X254621105Y-113468013D01*
X254613199Y-113704977D01*
X254602502Y-113866922D01*
X254592250Y-113942173D01*
X254480954Y-114295319D01*
X254306395Y-114604381D01*
X254075805Y-114860198D01*
X253796418Y-115053609D01*
X253667560Y-115113504D01*
X253428500Y-115210166D01*
X248793000Y-115233691D01*
X248066023Y-115237417D01*
X247418644Y-115240873D01*
X246845797Y-115244170D01*
X246342414Y-115247423D01*
X245903430Y-115250744D01*
X245523776Y-115254247D01*
X245198387Y-115258045D01*
X244922194Y-115262252D01*
X244690130Y-115266980D01*
X244497130Y-115272343D01*
X244338125Y-115278453D01*
X244208050Y-115285426D01*
X244101836Y-115293372D01*
X244014416Y-115302407D01*
X243940725Y-115312642D01*
X243875695Y-115324192D01*
X243814258Y-115337169D01*
X243776500Y-115345807D01*
X243135113Y-115532189D01*
X242552350Y-115779557D01*
X242027951Y-116088168D01*
X241561656Y-116458277D01*
X241153203Y-116890140D01*
X240802333Y-117384012D01*
X240508785Y-117940150D01*
X240272298Y-118558808D01*
X240179528Y-118875967D01*
X240139532Y-119026517D01*
X240104122Y-119163583D01*
X240072994Y-119293087D01*
X240045846Y-119420949D01*
X240022373Y-119553090D01*
X240002272Y-119695431D01*
X239985241Y-119853892D01*
X239970977Y-120034394D01*
X239959174Y-120242859D01*
X239949532Y-120485207D01*
X239941745Y-120767358D01*
X239935511Y-121095233D01*
X239930527Y-121474754D01*
X239926489Y-121911840D01*
X239923095Y-122412414D01*
X239920040Y-122982394D01*
X239917021Y-123627703D01*
X239915177Y-124036666D01*
X239912016Y-124862488D01*
X239910369Y-125604561D01*
X239910241Y-126263787D01*
X239911638Y-126841071D01*
X239914566Y-127337316D01*
X239919030Y-127753426D01*
X239925037Y-128090304D01*
X239932592Y-128348854D01*
X239941702Y-128529980D01*
X239944119Y-128562022D01*
X240031373Y-129298677D01*
X240166834Y-129968395D01*
X240351979Y-130574845D01*
X240588286Y-131121695D01*
X240877233Y-131612612D01*
X241220297Y-132051263D01*
X241442412Y-132281030D01*
X241809302Y-132598119D01*
X242201946Y-132866353D01*
X242631578Y-133090852D01*
X243109431Y-133276736D01*
X243646737Y-133429122D01*
X244221000Y-133547266D01*
X244280321Y-133556619D01*
X244349493Y-133565155D01*
X244432571Y-133572923D01*
X244533612Y-133579972D01*
X244656674Y-133586351D01*
X244805813Y-133592109D01*
X244985085Y-133597295D01*
X245198547Y-133601959D01*
X245450255Y-133606149D01*
X245744267Y-133609914D01*
X246084639Y-133613305D01*
X246475428Y-133616369D01*
X246920689Y-133619155D01*
X247424481Y-133621714D01*
X247990859Y-133624094D01*
X248623881Y-133626343D01*
X249327602Y-133628512D01*
X250106080Y-133630650D01*
X250963370Y-133632804D01*
X251369349Y-133633777D01*
X258115531Y-133649748D01*
X257965925Y-133383457D01*
X257917025Y-133297276D01*
X257830288Y-133145356D01*
X257710101Y-132935346D01*
X257560849Y-132674894D01*
X257386919Y-132371649D01*
X257192697Y-132033260D01*
X256982570Y-131667374D01*
X256760923Y-131281640D01*
X256611473Y-131021666D01*
X255406628Y-128926166D01*
X250544064Y-128905000D01*
X245681500Y-128883833D01*
X245406333Y-128786030D01*
X245060460Y-128622636D01*
X244772597Y-128398594D01*
X244542225Y-128113201D01*
X244368822Y-127765749D01*
X244251867Y-127355534D01*
X244221801Y-127180867D01*
X244214049Y-127084573D01*
X244206831Y-126911143D01*
X244200256Y-126668107D01*
X244194428Y-126362995D01*
X244189456Y-126003337D01*
X244185446Y-125596662D01*
X244182504Y-125150500D01*
X244180738Y-124672380D01*
X244180240Y-124248333D01*
X244180430Y-123670445D01*
X244181359Y-123170514D01*
X244183497Y-122741832D01*
X244187310Y-122377688D01*
X244193268Y-122071375D01*
X244201839Y-121816183D01*
X244213491Y-121605403D01*
X244228691Y-121432326D01*
X244247909Y-121290243D01*
X244271613Y-121172446D01*
X244300270Y-121072224D01*
X244334350Y-120982869D01*
X244374319Y-120897673D01*
X244420142Y-120810854D01*
X244618198Y-120519791D01*
X244870315Y-120281058D01*
X245184521Y-120088427D01*
X245533333Y-119947233D01*
X245575158Y-119934707D01*
X245624157Y-119923533D01*
X245685392Y-119913596D01*
X245763922Y-119904783D01*
X245864809Y-119896979D01*
X245993115Y-119890071D01*
X246153900Y-119883944D01*
X246352224Y-119878485D01*
X246593150Y-119873580D01*
X246881737Y-119869114D01*
X247223047Y-119864973D01*
X247622141Y-119861044D01*
X248084080Y-119857213D01*
X248613924Y-119853365D01*
X249216735Y-119849387D01*
X249897573Y-119845165D01*
X250126500Y-119843781D01*
X250830843Y-119839496D01*
X251455797Y-119835534D01*
X252006640Y-119831769D01*
X252488647Y-119828071D01*
X252907096Y-119824315D01*
X253267264Y-119820373D01*
X253574426Y-119816118D01*
X253833861Y-119811423D01*
X254050845Y-119806159D01*
X254230654Y-119800201D01*
X254378566Y-119793421D01*
X254499857Y-119785691D01*
X254599804Y-119776885D01*
X254683684Y-119766875D01*
X254756774Y-119755534D01*
X254824350Y-119742734D01*
X254889000Y-119728942D01*
X255476616Y-119577642D01*
X255994302Y-119395885D01*
X256453087Y-119177992D01*
X256863999Y-118918286D01*
X257238069Y-118611089D01*
X257432315Y-118419603D01*
X257784478Y-117999874D01*
X258083858Y-117531221D01*
X258332709Y-117008399D01*
X258533281Y-116426165D01*
X258687827Y-115779277D01*
X258765476Y-115316000D01*
X258780543Y-115166721D01*
X258794699Y-114942014D01*
X258807853Y-114651112D01*
X258819917Y-114303249D01*
X258830802Y-113907659D01*
X258840419Y-113473577D01*
X258848679Y-113010235D01*
X258855492Y-112526869D01*
X258860769Y-112032711D01*
X258864422Y-111536996D01*
X258866362Y-111048959D01*
X258866498Y-110577831D01*
X258864743Y-110132849D01*
X258861007Y-109723245D01*
X258855200Y-109358254D01*
X258847235Y-109047110D01*
X258837021Y-108799046D01*
X258829495Y-108680657D01*
X258739274Y-107934805D01*
X258588171Y-107244704D01*
X258376825Y-106611343D01*
X258105872Y-106035712D01*
X257775951Y-105518801D01*
X257387699Y-105061598D01*
X256941754Y-104665092D01*
X256438754Y-104330274D01*
X255879335Y-104058132D01*
X255839971Y-104042211D01*
X255409448Y-103893561D01*
X254952646Y-103783736D01*
X254449838Y-103708683D01*
X254047197Y-103673831D01*
X253928295Y-103668797D01*
X253735612Y-103664089D01*
X253474585Y-103659708D01*
X253150651Y-103655656D01*
X252769248Y-103651934D01*
X252335814Y-103648543D01*
X251855784Y-103645484D01*
X251334598Y-103642759D01*
X250777692Y-103640369D01*
X250190504Y-103638315D01*
X249578471Y-103636599D01*
X248947029Y-103635221D01*
X248301618Y-103634184D01*
X247647674Y-103633489D01*
X246990634Y-103633136D01*
X246335935Y-103633127D01*
X245689016Y-103633464D01*
D11*
G36*
X319131112Y-150584566D02*
G01*
X319309917Y-150620133D01*
X319449448Y-150677929D01*
X319646776Y-150759664D01*
X319949943Y-150962234D01*
X320207766Y-151220057D01*
X320410336Y-151523224D01*
X320549867Y-151860084D01*
X320621000Y-152217691D01*
X320621000Y-152582309D01*
X320549867Y-152939916D01*
X320410336Y-153276776D01*
X320207766Y-153579943D01*
X319949943Y-153837766D01*
X319646776Y-154040336D01*
X319449448Y-154122071D01*
X319309917Y-154179867D01*
X319131112Y-154215434D01*
X318952309Y-154251000D01*
X318587691Y-154251000D01*
X318408887Y-154215433D01*
X318230083Y-154179867D01*
X318090552Y-154122071D01*
X317893224Y-154040336D01*
X317590057Y-153837766D01*
X317332234Y-153579943D01*
X317129664Y-153276776D01*
X316990133Y-152939916D01*
X316919000Y-152582309D01*
X316919000Y-152217691D01*
X316990133Y-151860084D01*
X317129664Y-151523224D01*
X317332234Y-151220057D01*
X317590057Y-150962234D01*
X317893224Y-150759664D01*
X318090552Y-150677929D01*
X318230083Y-150620133D01*
X318408888Y-150584566D01*
X318587691Y-150549000D01*
X318952309Y-150549000D01*
X319131112Y-150584566D01*
G37*
G36*
X71481112Y-150584566D02*
G01*
X71659917Y-150620133D01*
X71799448Y-150677929D01*
X71996776Y-150759664D01*
X72299943Y-150962234D01*
X72557766Y-151220057D01*
X72760336Y-151523224D01*
X72899867Y-151860084D01*
X72971000Y-152217691D01*
X72971000Y-152582309D01*
X72899867Y-152939916D01*
X72760336Y-153276776D01*
X72557766Y-153579943D01*
X72299943Y-153837766D01*
X71996776Y-154040336D01*
X71799448Y-154122071D01*
X71659917Y-154179867D01*
X71481113Y-154215433D01*
X71302309Y-154251000D01*
X70937691Y-154251000D01*
X70758887Y-154215433D01*
X70580083Y-154179867D01*
X70440552Y-154122071D01*
X70243224Y-154040336D01*
X69940057Y-153837766D01*
X69682234Y-153579943D01*
X69479664Y-153276776D01*
X69340133Y-152939916D01*
X69269000Y-152582309D01*
X69269000Y-152217691D01*
X69340133Y-151860084D01*
X69479664Y-151523224D01*
X69682234Y-151220057D01*
X69940057Y-150962234D01*
X70243224Y-150759664D01*
X70440552Y-150677929D01*
X70580083Y-150620133D01*
X70758888Y-150584566D01*
X70937691Y-150549000D01*
X71302309Y-150549000D01*
X71481112Y-150584566D01*
G37*
G36*
X166731112Y-150584566D02*
G01*
X166909917Y-150620133D01*
X167049448Y-150677929D01*
X167246776Y-150759664D01*
X167549943Y-150962234D01*
X167807766Y-151220057D01*
X168010336Y-151523224D01*
X168149867Y-151860084D01*
X168221000Y-152217691D01*
X168221000Y-152582309D01*
X168149867Y-152939916D01*
X168010336Y-153276776D01*
X167807766Y-153579943D01*
X167549943Y-153837766D01*
X167246776Y-154040336D01*
X167049448Y-154122071D01*
X166909917Y-154179867D01*
X166731113Y-154215433D01*
X166552309Y-154251000D01*
X166187691Y-154251000D01*
X166008887Y-154215433D01*
X165830083Y-154179867D01*
X165690552Y-154122071D01*
X165493224Y-154040336D01*
X165190057Y-153837766D01*
X164932234Y-153579943D01*
X164729664Y-153276776D01*
X164590133Y-152939916D01*
X164519000Y-152582309D01*
X164519000Y-152217691D01*
X164590133Y-151860084D01*
X164729664Y-151523224D01*
X164932234Y-151220057D01*
X165190057Y-150962234D01*
X165493224Y-150759664D01*
X165690552Y-150677929D01*
X165830083Y-150620133D01*
X166008888Y-150584566D01*
X166187691Y-150549000D01*
X166552309Y-150549000D01*
X166731112Y-150584566D01*
G37*
G36*
X223881112Y-150584566D02*
G01*
X224059917Y-150620133D01*
X224199448Y-150677929D01*
X224396776Y-150759664D01*
X224699943Y-150962234D01*
X224957766Y-151220057D01*
X225160336Y-151523224D01*
X225299867Y-151860084D01*
X225371000Y-152217691D01*
X225371000Y-152582309D01*
X225299867Y-152939916D01*
X225160336Y-153276776D01*
X224957766Y-153579943D01*
X224699943Y-153837766D01*
X224396776Y-154040336D01*
X224199448Y-154122071D01*
X224059917Y-154179867D01*
X223881113Y-154215433D01*
X223702309Y-154251000D01*
X223337691Y-154251000D01*
X223158887Y-154215433D01*
X222980083Y-154179867D01*
X222840552Y-154122071D01*
X222643224Y-154040336D01*
X222340057Y-153837766D01*
X222082234Y-153579943D01*
X221879664Y-153276776D01*
X221740133Y-152939916D01*
X221669000Y-152582309D01*
X221669000Y-152217691D01*
X221740133Y-151860084D01*
X221879664Y-151523224D01*
X222082234Y-151220057D01*
X222340057Y-150962234D01*
X222643224Y-150759664D01*
X222840552Y-150677929D01*
X222980083Y-150620133D01*
X223158888Y-150584566D01*
X223337691Y-150549000D01*
X223702309Y-150549000D01*
X223881112Y-150584566D01*
G37*
G36*
X223881113Y-93434567D02*
G01*
X224059917Y-93470133D01*
X224199448Y-93527929D01*
X224396776Y-93609664D01*
X224699943Y-93812234D01*
X224957766Y-94070057D01*
X225160336Y-94373224D01*
X225299867Y-94710084D01*
X225371000Y-95067691D01*
X225371000Y-95432309D01*
X225299867Y-95789916D01*
X225160336Y-96126776D01*
X224957766Y-96429943D01*
X224699943Y-96687766D01*
X224396776Y-96890336D01*
X224199448Y-96972071D01*
X224059917Y-97029867D01*
X223881113Y-97065433D01*
X223702309Y-97101000D01*
X223337691Y-97101000D01*
X223158887Y-97065433D01*
X222980083Y-97029867D01*
X222840552Y-96972071D01*
X222643224Y-96890336D01*
X222340057Y-96687766D01*
X222082234Y-96429943D01*
X221879664Y-96126776D01*
X221740133Y-95789916D01*
X221669000Y-95432309D01*
X221669000Y-95067691D01*
X221740133Y-94710084D01*
X221879664Y-94373224D01*
X222082234Y-94070057D01*
X222340057Y-93812234D01*
X222643224Y-93609664D01*
X222840552Y-93527929D01*
X222980083Y-93470133D01*
X223158888Y-93434566D01*
X223337691Y-93399000D01*
X223702309Y-93399000D01*
X223881113Y-93434567D01*
G37*
G36*
X166731113Y-93434567D02*
G01*
X166909917Y-93470133D01*
X167049448Y-93527929D01*
X167246776Y-93609664D01*
X167549943Y-93812234D01*
X167807766Y-94070057D01*
X168010336Y-94373224D01*
X168149867Y-94710084D01*
X168221000Y-95067691D01*
X168221000Y-95432309D01*
X168149867Y-95789916D01*
X168010336Y-96126776D01*
X167807766Y-96429943D01*
X167549943Y-96687766D01*
X167246776Y-96890336D01*
X167049448Y-96972071D01*
X166909917Y-97029867D01*
X166731113Y-97065433D01*
X166552309Y-97101000D01*
X166187691Y-97101000D01*
X166008887Y-97065433D01*
X165830083Y-97029867D01*
X165690552Y-96972071D01*
X165493224Y-96890336D01*
X165190057Y-96687766D01*
X164932234Y-96429943D01*
X164729664Y-96126776D01*
X164590133Y-95789916D01*
X164519000Y-95432309D01*
X164519000Y-95067691D01*
X164590133Y-94710084D01*
X164729664Y-94373224D01*
X164932234Y-94070057D01*
X165190057Y-93812234D01*
X165493224Y-93609664D01*
X165690552Y-93527929D01*
X165830083Y-93470133D01*
X166008888Y-93434566D01*
X166187691Y-93399000D01*
X166552309Y-93399000D01*
X166731113Y-93434567D01*
G37*
G36*
X71481113Y-93434567D02*
G01*
X71659917Y-93470133D01*
X71799448Y-93527929D01*
X71996776Y-93609664D01*
X72299943Y-93812234D01*
X72557766Y-94070057D01*
X72760336Y-94373224D01*
X72899867Y-94710084D01*
X72971000Y-95067691D01*
X72971000Y-95432309D01*
X72899867Y-95789916D01*
X72760336Y-96126776D01*
X72557766Y-96429943D01*
X72299943Y-96687766D01*
X71996776Y-96890336D01*
X71799448Y-96972071D01*
X71659917Y-97029867D01*
X71481113Y-97065433D01*
X71302309Y-97101000D01*
X70937691Y-97101000D01*
X70758887Y-97065433D01*
X70580083Y-97029867D01*
X70440552Y-96972071D01*
X70243224Y-96890336D01*
X69940057Y-96687766D01*
X69682234Y-96429943D01*
X69479664Y-96126776D01*
X69340133Y-95789916D01*
X69269000Y-95432309D01*
X69269000Y-95067691D01*
X69340133Y-94710084D01*
X69479664Y-94373224D01*
X69682234Y-94070057D01*
X69940057Y-93812234D01*
X70243224Y-93609664D01*
X70440552Y-93527929D01*
X70580083Y-93470133D01*
X70758888Y-93434566D01*
X70937691Y-93399000D01*
X71302309Y-93399000D01*
X71481113Y-93434567D01*
G37*
G36*
X319131113Y-93434567D02*
G01*
X319309917Y-93470133D01*
X319449448Y-93527929D01*
X319646776Y-93609664D01*
X319949943Y-93812234D01*
X320207766Y-94070057D01*
X320410336Y-94373224D01*
X320549867Y-94710084D01*
X320621000Y-95067691D01*
X320621000Y-95432309D01*
X320549867Y-95789916D01*
X320410336Y-96126776D01*
X320207766Y-96429943D01*
X319949943Y-96687766D01*
X319646776Y-96890336D01*
X319449448Y-96972071D01*
X319309917Y-97029867D01*
X319131113Y-97065433D01*
X318952309Y-97101000D01*
X318587691Y-97101000D01*
X318408887Y-97065433D01*
X318230083Y-97029867D01*
X318090552Y-96972071D01*
X317893224Y-96890336D01*
X317590057Y-96687766D01*
X317332234Y-96429943D01*
X317129664Y-96126776D01*
X316990133Y-95789916D01*
X316919000Y-95432309D01*
X316919000Y-95067691D01*
X316990133Y-94710084D01*
X317129664Y-94373224D01*
X317332234Y-94070057D01*
X317590057Y-93812234D01*
X317893224Y-93609664D01*
X318090552Y-93527929D01*
X318230083Y-93470133D01*
X318408888Y-93434566D01*
X318587691Y-93399000D01*
X318952309Y-93399000D01*
X319131113Y-93434567D01*
G37*
G36*
X335641113Y-70574567D02*
G01*
X335819917Y-70610133D01*
X335959448Y-70667929D01*
X336156776Y-70749664D01*
X336459943Y-70952234D01*
X336717766Y-71210057D01*
X336920336Y-71513224D01*
X337059867Y-71850084D01*
X337131000Y-72207691D01*
X337131000Y-72572309D01*
X337059867Y-72929916D01*
X336920336Y-73266776D01*
X336717766Y-73569943D01*
X336459943Y-73827766D01*
X336156776Y-74030336D01*
X335959448Y-74112071D01*
X335819917Y-74169867D01*
X335641113Y-74205433D01*
X335462309Y-74241000D01*
X335097691Y-74241000D01*
X334918887Y-74205433D01*
X334740083Y-74169867D01*
X334600552Y-74112071D01*
X334403224Y-74030336D01*
X334100057Y-73827766D01*
X333842234Y-73569943D01*
X333639664Y-73266776D01*
X333500133Y-72929916D01*
X333429000Y-72572309D01*
X333429000Y-72207691D01*
X333500133Y-71850084D01*
X333639664Y-71513224D01*
X333842234Y-71210057D01*
X334100057Y-70952234D01*
X334403224Y-70749664D01*
X334600552Y-70667929D01*
X334740083Y-70610133D01*
X334918887Y-70574567D01*
X335097691Y-70539000D01*
X335462309Y-70539000D01*
X335641113Y-70574567D01*
G37*
G36*
X54971113Y-70574567D02*
G01*
X55149917Y-70610133D01*
X55289448Y-70667929D01*
X55486776Y-70749664D01*
X55789943Y-70952234D01*
X56047766Y-71210057D01*
X56250336Y-71513224D01*
X56389867Y-71850084D01*
X56461000Y-72207691D01*
X56461000Y-72572309D01*
X56389867Y-72929916D01*
X56250336Y-73266776D01*
X56047766Y-73569943D01*
X55789943Y-73827766D01*
X55486776Y-74030336D01*
X55289448Y-74112071D01*
X55149917Y-74169867D01*
X54971113Y-74205433D01*
X54792309Y-74241000D01*
X54427691Y-74241000D01*
X54248887Y-74205433D01*
X54070083Y-74169867D01*
X53930552Y-74112071D01*
X53733224Y-74030336D01*
X53430057Y-73827766D01*
X53172234Y-73569943D01*
X52969664Y-73266776D01*
X52830133Y-72929916D01*
X52759000Y-72572309D01*
X52759000Y-72207691D01*
X52830133Y-71850084D01*
X52969664Y-71513224D01*
X53172234Y-71210057D01*
X53430057Y-70952234D01*
X53733224Y-70749664D01*
X53930552Y-70667929D01*
X54070083Y-70610133D01*
X54248887Y-70574567D01*
X54427691Y-70539000D01*
X54792309Y-70539000D01*
X54971113Y-70574567D01*
G37*
G36*
X54971112Y-52794566D02*
G01*
X55149917Y-52830133D01*
X55289448Y-52887929D01*
X55486776Y-52969664D01*
X55789943Y-53172234D01*
X56047766Y-53430057D01*
X56250336Y-53733224D01*
X56389867Y-54070084D01*
X56461000Y-54427691D01*
X56461000Y-54792309D01*
X56389867Y-55149916D01*
X56250336Y-55486776D01*
X56047766Y-55789943D01*
X55789943Y-56047766D01*
X55486776Y-56250336D01*
X55289448Y-56332071D01*
X55149917Y-56389867D01*
X54971113Y-56425433D01*
X54792309Y-56461000D01*
X54427691Y-56461000D01*
X54248887Y-56425433D01*
X54070083Y-56389867D01*
X53930552Y-56332071D01*
X53733224Y-56250336D01*
X53430057Y-56047766D01*
X53172234Y-55789943D01*
X52969664Y-55486776D01*
X52830133Y-55149916D01*
X52759000Y-54792309D01*
X52759000Y-54427691D01*
X52830133Y-54070084D01*
X52969664Y-53733224D01*
X53172234Y-53430057D01*
X53430057Y-53172234D01*
X53733224Y-52969664D01*
X53930552Y-52887929D01*
X54070083Y-52830133D01*
X54248888Y-52794566D01*
X54427691Y-52759000D01*
X54792309Y-52759000D01*
X54971112Y-52794566D01*
G37*
G36*
X335641112Y-52794566D02*
G01*
X335819917Y-52830133D01*
X335959448Y-52887929D01*
X336156776Y-52969664D01*
X336459943Y-53172234D01*
X336717766Y-53430057D01*
X336920336Y-53733224D01*
X337059867Y-54070084D01*
X337131000Y-54427691D01*
X337131000Y-54792309D01*
X337059867Y-55149916D01*
X336920336Y-55486776D01*
X336717766Y-55789943D01*
X336459943Y-56047766D01*
X336156776Y-56250336D01*
X335959448Y-56332071D01*
X335819917Y-56389867D01*
X335641113Y-56425433D01*
X335462309Y-56461000D01*
X335097691Y-56461000D01*
X334918887Y-56425433D01*
X334740083Y-56389867D01*
X334600552Y-56332071D01*
X334403224Y-56250336D01*
X334100057Y-56047766D01*
X333842234Y-55789943D01*
X333639664Y-55486776D01*
X333500133Y-55149916D01*
X333429000Y-54792309D01*
X333429000Y-54427691D01*
X333500133Y-54070084D01*
X333639664Y-53733224D01*
X333842234Y-53430057D01*
X334100057Y-53172234D01*
X334403224Y-52969664D01*
X334600552Y-52887929D01*
X334740083Y-52830133D01*
X334918887Y-52794567D01*
X335097691Y-52759000D01*
X335462309Y-52759000D01*
X335641112Y-52794566D01*
G37*
M02*
