G04 #@! TF.GenerationSoftware,KiCad,Pcbnew,(5.1.5)-2*
G04 #@! TF.CreationDate,2020-10-19T23:10:20+09:00*
G04 #@! TF.ProjectId,astra515_bottom,61737472-6135-4313-955f-626f74746f6d,rev?*
G04 #@! TF.SameCoordinates,Original*
G04 #@! TF.FileFunction,Soldermask,Top*
G04 #@! TF.FilePolarity,Negative*
%FSLAX46Y46*%
G04 Gerber Fmt 4.6, Leading zero omitted, Abs format (unit mm)*
G04 Created by KiCad (PCBNEW (5.1.5)-2) date 2020-10-19 23:10:20*
%MOMM*%
%LPD*%
G04 APERTURE LIST*
%ADD10C,0.100000*%
G04 APERTURE END LIST*
D10*
G36*
X319131112Y-150584566D02*
G01*
X319309917Y-150620133D01*
X319449448Y-150677929D01*
X319646776Y-150759664D01*
X319949943Y-150962234D01*
X320207766Y-151220057D01*
X320410336Y-151523224D01*
X320549867Y-151860084D01*
X320621000Y-152217691D01*
X320621000Y-152582309D01*
X320549867Y-152939916D01*
X320410336Y-153276776D01*
X320207766Y-153579943D01*
X319949943Y-153837766D01*
X319646776Y-154040336D01*
X319449448Y-154122071D01*
X319309917Y-154179867D01*
X319131112Y-154215434D01*
X318952309Y-154251000D01*
X318587691Y-154251000D01*
X318408887Y-154215433D01*
X318230083Y-154179867D01*
X318090552Y-154122071D01*
X317893224Y-154040336D01*
X317590057Y-153837766D01*
X317332234Y-153579943D01*
X317129664Y-153276776D01*
X316990133Y-152939916D01*
X316919000Y-152582309D01*
X316919000Y-152217691D01*
X316990133Y-151860084D01*
X317129664Y-151523224D01*
X317332234Y-151220057D01*
X317590057Y-150962234D01*
X317893224Y-150759664D01*
X318090552Y-150677929D01*
X318230083Y-150620133D01*
X318408888Y-150584566D01*
X318587691Y-150549000D01*
X318952309Y-150549000D01*
X319131112Y-150584566D01*
G37*
G36*
X71481112Y-150584566D02*
G01*
X71659917Y-150620133D01*
X71799448Y-150677929D01*
X71996776Y-150759664D01*
X72299943Y-150962234D01*
X72557766Y-151220057D01*
X72760336Y-151523224D01*
X72899867Y-151860084D01*
X72971000Y-152217691D01*
X72971000Y-152582309D01*
X72899867Y-152939916D01*
X72760336Y-153276776D01*
X72557766Y-153579943D01*
X72299943Y-153837766D01*
X71996776Y-154040336D01*
X71799448Y-154122071D01*
X71659917Y-154179867D01*
X71481113Y-154215433D01*
X71302309Y-154251000D01*
X70937691Y-154251000D01*
X70758887Y-154215433D01*
X70580083Y-154179867D01*
X70440552Y-154122071D01*
X70243224Y-154040336D01*
X69940057Y-153837766D01*
X69682234Y-153579943D01*
X69479664Y-153276776D01*
X69340133Y-152939916D01*
X69269000Y-152582309D01*
X69269000Y-152217691D01*
X69340133Y-151860084D01*
X69479664Y-151523224D01*
X69682234Y-151220057D01*
X69940057Y-150962234D01*
X70243224Y-150759664D01*
X70440552Y-150677929D01*
X70580083Y-150620133D01*
X70758888Y-150584566D01*
X70937691Y-150549000D01*
X71302309Y-150549000D01*
X71481112Y-150584566D01*
G37*
G36*
X166731112Y-150584566D02*
G01*
X166909917Y-150620133D01*
X167049448Y-150677929D01*
X167246776Y-150759664D01*
X167549943Y-150962234D01*
X167807766Y-151220057D01*
X168010336Y-151523224D01*
X168149867Y-151860084D01*
X168221000Y-152217691D01*
X168221000Y-152582309D01*
X168149867Y-152939916D01*
X168010336Y-153276776D01*
X167807766Y-153579943D01*
X167549943Y-153837766D01*
X167246776Y-154040336D01*
X167049448Y-154122071D01*
X166909917Y-154179867D01*
X166731113Y-154215433D01*
X166552309Y-154251000D01*
X166187691Y-154251000D01*
X166008887Y-154215433D01*
X165830083Y-154179867D01*
X165690552Y-154122071D01*
X165493224Y-154040336D01*
X165190057Y-153837766D01*
X164932234Y-153579943D01*
X164729664Y-153276776D01*
X164590133Y-152939916D01*
X164519000Y-152582309D01*
X164519000Y-152217691D01*
X164590133Y-151860084D01*
X164729664Y-151523224D01*
X164932234Y-151220057D01*
X165190057Y-150962234D01*
X165493224Y-150759664D01*
X165690552Y-150677929D01*
X165830083Y-150620133D01*
X166008888Y-150584566D01*
X166187691Y-150549000D01*
X166552309Y-150549000D01*
X166731112Y-150584566D01*
G37*
G36*
X223881112Y-150584566D02*
G01*
X224059917Y-150620133D01*
X224199448Y-150677929D01*
X224396776Y-150759664D01*
X224699943Y-150962234D01*
X224957766Y-151220057D01*
X225160336Y-151523224D01*
X225299867Y-151860084D01*
X225371000Y-152217691D01*
X225371000Y-152582309D01*
X225299867Y-152939916D01*
X225160336Y-153276776D01*
X224957766Y-153579943D01*
X224699943Y-153837766D01*
X224396776Y-154040336D01*
X224199448Y-154122071D01*
X224059917Y-154179867D01*
X223881113Y-154215433D01*
X223702309Y-154251000D01*
X223337691Y-154251000D01*
X223158887Y-154215433D01*
X222980083Y-154179867D01*
X222840552Y-154122071D01*
X222643224Y-154040336D01*
X222340057Y-153837766D01*
X222082234Y-153579943D01*
X221879664Y-153276776D01*
X221740133Y-152939916D01*
X221669000Y-152582309D01*
X221669000Y-152217691D01*
X221740133Y-151860084D01*
X221879664Y-151523224D01*
X222082234Y-151220057D01*
X222340057Y-150962234D01*
X222643224Y-150759664D01*
X222840552Y-150677929D01*
X222980083Y-150620133D01*
X223158888Y-150584566D01*
X223337691Y-150549000D01*
X223702309Y-150549000D01*
X223881112Y-150584566D01*
G37*
G36*
X223881113Y-93434567D02*
G01*
X224059917Y-93470133D01*
X224199448Y-93527929D01*
X224396776Y-93609664D01*
X224699943Y-93812234D01*
X224957766Y-94070057D01*
X225160336Y-94373224D01*
X225299867Y-94710084D01*
X225371000Y-95067691D01*
X225371000Y-95432309D01*
X225299867Y-95789916D01*
X225160336Y-96126776D01*
X224957766Y-96429943D01*
X224699943Y-96687766D01*
X224396776Y-96890336D01*
X224199448Y-96972071D01*
X224059917Y-97029867D01*
X223881113Y-97065433D01*
X223702309Y-97101000D01*
X223337691Y-97101000D01*
X223158887Y-97065433D01*
X222980083Y-97029867D01*
X222840552Y-96972071D01*
X222643224Y-96890336D01*
X222340057Y-96687766D01*
X222082234Y-96429943D01*
X221879664Y-96126776D01*
X221740133Y-95789916D01*
X221669000Y-95432309D01*
X221669000Y-95067691D01*
X221740133Y-94710084D01*
X221879664Y-94373224D01*
X222082234Y-94070057D01*
X222340057Y-93812234D01*
X222643224Y-93609664D01*
X222840552Y-93527929D01*
X222980083Y-93470133D01*
X223158888Y-93434566D01*
X223337691Y-93399000D01*
X223702309Y-93399000D01*
X223881113Y-93434567D01*
G37*
G36*
X166731113Y-93434567D02*
G01*
X166909917Y-93470133D01*
X167049448Y-93527929D01*
X167246776Y-93609664D01*
X167549943Y-93812234D01*
X167807766Y-94070057D01*
X168010336Y-94373224D01*
X168149867Y-94710084D01*
X168221000Y-95067691D01*
X168221000Y-95432309D01*
X168149867Y-95789916D01*
X168010336Y-96126776D01*
X167807766Y-96429943D01*
X167549943Y-96687766D01*
X167246776Y-96890336D01*
X167049448Y-96972071D01*
X166909917Y-97029867D01*
X166731113Y-97065433D01*
X166552309Y-97101000D01*
X166187691Y-97101000D01*
X166008887Y-97065433D01*
X165830083Y-97029867D01*
X165690552Y-96972071D01*
X165493224Y-96890336D01*
X165190057Y-96687766D01*
X164932234Y-96429943D01*
X164729664Y-96126776D01*
X164590133Y-95789916D01*
X164519000Y-95432309D01*
X164519000Y-95067691D01*
X164590133Y-94710084D01*
X164729664Y-94373224D01*
X164932234Y-94070057D01*
X165190057Y-93812234D01*
X165493224Y-93609664D01*
X165690552Y-93527929D01*
X165830083Y-93470133D01*
X166008888Y-93434566D01*
X166187691Y-93399000D01*
X166552309Y-93399000D01*
X166731113Y-93434567D01*
G37*
G36*
X71481113Y-93434567D02*
G01*
X71659917Y-93470133D01*
X71799448Y-93527929D01*
X71996776Y-93609664D01*
X72299943Y-93812234D01*
X72557766Y-94070057D01*
X72760336Y-94373224D01*
X72899867Y-94710084D01*
X72971000Y-95067691D01*
X72971000Y-95432309D01*
X72899867Y-95789916D01*
X72760336Y-96126776D01*
X72557766Y-96429943D01*
X72299943Y-96687766D01*
X71996776Y-96890336D01*
X71799448Y-96972071D01*
X71659917Y-97029867D01*
X71481113Y-97065433D01*
X71302309Y-97101000D01*
X70937691Y-97101000D01*
X70758887Y-97065433D01*
X70580083Y-97029867D01*
X70440552Y-96972071D01*
X70243224Y-96890336D01*
X69940057Y-96687766D01*
X69682234Y-96429943D01*
X69479664Y-96126776D01*
X69340133Y-95789916D01*
X69269000Y-95432309D01*
X69269000Y-95067691D01*
X69340133Y-94710084D01*
X69479664Y-94373224D01*
X69682234Y-94070057D01*
X69940057Y-93812234D01*
X70243224Y-93609664D01*
X70440552Y-93527929D01*
X70580083Y-93470133D01*
X70758888Y-93434566D01*
X70937691Y-93399000D01*
X71302309Y-93399000D01*
X71481113Y-93434567D01*
G37*
G36*
X319131113Y-93434567D02*
G01*
X319309917Y-93470133D01*
X319449448Y-93527929D01*
X319646776Y-93609664D01*
X319949943Y-93812234D01*
X320207766Y-94070057D01*
X320410336Y-94373224D01*
X320549867Y-94710084D01*
X320621000Y-95067691D01*
X320621000Y-95432309D01*
X320549867Y-95789916D01*
X320410336Y-96126776D01*
X320207766Y-96429943D01*
X319949943Y-96687766D01*
X319646776Y-96890336D01*
X319449448Y-96972071D01*
X319309917Y-97029867D01*
X319131113Y-97065433D01*
X318952309Y-97101000D01*
X318587691Y-97101000D01*
X318408887Y-97065433D01*
X318230083Y-97029867D01*
X318090552Y-96972071D01*
X317893224Y-96890336D01*
X317590057Y-96687766D01*
X317332234Y-96429943D01*
X317129664Y-96126776D01*
X316990133Y-95789916D01*
X316919000Y-95432309D01*
X316919000Y-95067691D01*
X316990133Y-94710084D01*
X317129664Y-94373224D01*
X317332234Y-94070057D01*
X317590057Y-93812234D01*
X317893224Y-93609664D01*
X318090552Y-93527929D01*
X318230083Y-93470133D01*
X318408888Y-93434566D01*
X318587691Y-93399000D01*
X318952309Y-93399000D01*
X319131113Y-93434567D01*
G37*
G36*
X335641113Y-70574567D02*
G01*
X335819917Y-70610133D01*
X335959448Y-70667929D01*
X336156776Y-70749664D01*
X336459943Y-70952234D01*
X336717766Y-71210057D01*
X336920336Y-71513224D01*
X337059867Y-71850084D01*
X337131000Y-72207691D01*
X337131000Y-72572309D01*
X337059867Y-72929916D01*
X336920336Y-73266776D01*
X336717766Y-73569943D01*
X336459943Y-73827766D01*
X336156776Y-74030336D01*
X335959448Y-74112071D01*
X335819917Y-74169867D01*
X335641113Y-74205433D01*
X335462309Y-74241000D01*
X335097691Y-74241000D01*
X334918887Y-74205433D01*
X334740083Y-74169867D01*
X334600552Y-74112071D01*
X334403224Y-74030336D01*
X334100057Y-73827766D01*
X333842234Y-73569943D01*
X333639664Y-73266776D01*
X333500133Y-72929916D01*
X333429000Y-72572309D01*
X333429000Y-72207691D01*
X333500133Y-71850084D01*
X333639664Y-71513224D01*
X333842234Y-71210057D01*
X334100057Y-70952234D01*
X334403224Y-70749664D01*
X334600552Y-70667929D01*
X334740083Y-70610133D01*
X334918887Y-70574567D01*
X335097691Y-70539000D01*
X335462309Y-70539000D01*
X335641113Y-70574567D01*
G37*
G36*
X54971113Y-70574567D02*
G01*
X55149917Y-70610133D01*
X55289448Y-70667929D01*
X55486776Y-70749664D01*
X55789943Y-70952234D01*
X56047766Y-71210057D01*
X56250336Y-71513224D01*
X56389867Y-71850084D01*
X56461000Y-72207691D01*
X56461000Y-72572309D01*
X56389867Y-72929916D01*
X56250336Y-73266776D01*
X56047766Y-73569943D01*
X55789943Y-73827766D01*
X55486776Y-74030336D01*
X55289448Y-74112071D01*
X55149917Y-74169867D01*
X54971113Y-74205433D01*
X54792309Y-74241000D01*
X54427691Y-74241000D01*
X54248887Y-74205433D01*
X54070083Y-74169867D01*
X53930552Y-74112071D01*
X53733224Y-74030336D01*
X53430057Y-73827766D01*
X53172234Y-73569943D01*
X52969664Y-73266776D01*
X52830133Y-72929916D01*
X52759000Y-72572309D01*
X52759000Y-72207691D01*
X52830133Y-71850084D01*
X52969664Y-71513224D01*
X53172234Y-71210057D01*
X53430057Y-70952234D01*
X53733224Y-70749664D01*
X53930552Y-70667929D01*
X54070083Y-70610133D01*
X54248887Y-70574567D01*
X54427691Y-70539000D01*
X54792309Y-70539000D01*
X54971113Y-70574567D01*
G37*
G36*
X54971112Y-52794566D02*
G01*
X55149917Y-52830133D01*
X55289448Y-52887929D01*
X55486776Y-52969664D01*
X55789943Y-53172234D01*
X56047766Y-53430057D01*
X56250336Y-53733224D01*
X56389867Y-54070084D01*
X56461000Y-54427691D01*
X56461000Y-54792309D01*
X56389867Y-55149916D01*
X56250336Y-55486776D01*
X56047766Y-55789943D01*
X55789943Y-56047766D01*
X55486776Y-56250336D01*
X55289448Y-56332071D01*
X55149917Y-56389867D01*
X54971113Y-56425433D01*
X54792309Y-56461000D01*
X54427691Y-56461000D01*
X54248887Y-56425433D01*
X54070083Y-56389867D01*
X53930552Y-56332071D01*
X53733224Y-56250336D01*
X53430057Y-56047766D01*
X53172234Y-55789943D01*
X52969664Y-55486776D01*
X52830133Y-55149916D01*
X52759000Y-54792309D01*
X52759000Y-54427691D01*
X52830133Y-54070084D01*
X52969664Y-53733224D01*
X53172234Y-53430057D01*
X53430057Y-53172234D01*
X53733224Y-52969664D01*
X53930552Y-52887929D01*
X54070083Y-52830133D01*
X54248888Y-52794566D01*
X54427691Y-52759000D01*
X54792309Y-52759000D01*
X54971112Y-52794566D01*
G37*
G36*
X335641112Y-52794566D02*
G01*
X335819917Y-52830133D01*
X335959448Y-52887929D01*
X336156776Y-52969664D01*
X336459943Y-53172234D01*
X336717766Y-53430057D01*
X336920336Y-53733224D01*
X337059867Y-54070084D01*
X337131000Y-54427691D01*
X337131000Y-54792309D01*
X337059867Y-55149916D01*
X336920336Y-55486776D01*
X336717766Y-55789943D01*
X336459943Y-56047766D01*
X336156776Y-56250336D01*
X335959448Y-56332071D01*
X335819917Y-56389867D01*
X335641113Y-56425433D01*
X335462309Y-56461000D01*
X335097691Y-56461000D01*
X334918887Y-56425433D01*
X334740083Y-56389867D01*
X334600552Y-56332071D01*
X334403224Y-56250336D01*
X334100057Y-56047766D01*
X333842234Y-55789943D01*
X333639664Y-55486776D01*
X333500133Y-55149916D01*
X333429000Y-54792309D01*
X333429000Y-54427691D01*
X333500133Y-54070084D01*
X333639664Y-53733224D01*
X333842234Y-53430057D01*
X334100057Y-53172234D01*
X334403224Y-52969664D01*
X334600552Y-52887929D01*
X334740083Y-52830133D01*
X334918887Y-52794567D01*
X335097691Y-52759000D01*
X335462309Y-52759000D01*
X335641112Y-52794566D01*
G37*
M02*
