G04 #@! TF.GenerationSoftware,KiCad,Pcbnew,(5.1.5)-2*
G04 #@! TF.CreationDate,2020-10-19T23:10:20+09:00*
G04 #@! TF.ProjectId,astra515_bottom,61737472-6135-4313-955f-626f74746f6d,rev?*
G04 #@! TF.SameCoordinates,Original*
G04 #@! TF.FileFunction,Copper,L1,Top*
G04 #@! TF.FilePolarity,Positive*
%FSLAX46Y46*%
G04 Gerber Fmt 4.6, Leading zero omitted, Abs format (unit mm)*
G04 Created by KiCad (PCBNEW (5.1.5)-2) date 2020-10-19 23:10:20*
%MOMM*%
%LPD*%
G04 APERTURE LIST*
%ADD10C,3.600000*%
%ADD11C,0.254000*%
G04 APERTURE END LIST*
D10*
X335280000Y-54610000D03*
X335280000Y-72390000D03*
X318770000Y-95250000D03*
X318770000Y-152400000D03*
X223520000Y-95250000D03*
X166370000Y-95250000D03*
X223520000Y-152400000D03*
X166370000Y-152400000D03*
X71120000Y-152400000D03*
X71120000Y-95250000D03*
X54610000Y-72390000D03*
X54610000Y-54610000D03*
D11*
G36*
X336904785Y-51548191D02*
G01*
X337246060Y-51651228D01*
X337560822Y-51818590D01*
X337837083Y-52043903D01*
X338064317Y-52318582D01*
X338233870Y-52632164D01*
X338339286Y-52972708D01*
X338380000Y-53360072D01*
X338380001Y-171415269D01*
X338341809Y-171804784D01*
X338238771Y-172146063D01*
X338071409Y-172460825D01*
X337846097Y-172737083D01*
X337571418Y-172964317D01*
X337257838Y-173133869D01*
X336917288Y-173239287D01*
X336529928Y-173280000D01*
X53374720Y-173280000D01*
X52985216Y-173241809D01*
X52643937Y-173138771D01*
X52329175Y-172971409D01*
X52052917Y-172746097D01*
X51825683Y-172471418D01*
X51656131Y-172157838D01*
X51550713Y-171817288D01*
X51510000Y-171429928D01*
X51510000Y-152160173D01*
X68685000Y-152160173D01*
X68685000Y-152639827D01*
X68778576Y-153110263D01*
X68962131Y-153553405D01*
X69228612Y-153952222D01*
X69567778Y-154291388D01*
X69966595Y-154557869D01*
X70409737Y-154741424D01*
X70880173Y-154835000D01*
X71359827Y-154835000D01*
X71830263Y-154741424D01*
X72273405Y-154557869D01*
X72672222Y-154291388D01*
X73011388Y-153952222D01*
X73277869Y-153553405D01*
X73461424Y-153110263D01*
X73555000Y-152639827D01*
X73555000Y-152160173D01*
X163935000Y-152160173D01*
X163935000Y-152639827D01*
X164028576Y-153110263D01*
X164212131Y-153553405D01*
X164478612Y-153952222D01*
X164817778Y-154291388D01*
X165216595Y-154557869D01*
X165659737Y-154741424D01*
X166130173Y-154835000D01*
X166609827Y-154835000D01*
X167080263Y-154741424D01*
X167523405Y-154557869D01*
X167922222Y-154291388D01*
X168261388Y-153952222D01*
X168527869Y-153553405D01*
X168711424Y-153110263D01*
X168805000Y-152639827D01*
X168805000Y-152160173D01*
X221085000Y-152160173D01*
X221085000Y-152639827D01*
X221178576Y-153110263D01*
X221362131Y-153553405D01*
X221628612Y-153952222D01*
X221967778Y-154291388D01*
X222366595Y-154557869D01*
X222809737Y-154741424D01*
X223280173Y-154835000D01*
X223759827Y-154835000D01*
X224230263Y-154741424D01*
X224673405Y-154557869D01*
X225072222Y-154291388D01*
X225411388Y-153952222D01*
X225677869Y-153553405D01*
X225861424Y-153110263D01*
X225955000Y-152639827D01*
X225955000Y-152160173D01*
X316335000Y-152160173D01*
X316335000Y-152639827D01*
X316428576Y-153110263D01*
X316612131Y-153553405D01*
X316878612Y-153952222D01*
X317217778Y-154291388D01*
X317616595Y-154557869D01*
X318059737Y-154741424D01*
X318530173Y-154835000D01*
X319009827Y-154835000D01*
X319480263Y-154741424D01*
X319923405Y-154557869D01*
X320322222Y-154291388D01*
X320661388Y-153952222D01*
X320927869Y-153553405D01*
X321111424Y-153110263D01*
X321205000Y-152639827D01*
X321205000Y-152160173D01*
X321111424Y-151689737D01*
X320927869Y-151246595D01*
X320661388Y-150847778D01*
X320322222Y-150508612D01*
X319923405Y-150242131D01*
X319480263Y-150058576D01*
X319009827Y-149965000D01*
X318530173Y-149965000D01*
X318059737Y-150058576D01*
X317616595Y-150242131D01*
X317217778Y-150508612D01*
X316878612Y-150847778D01*
X316612131Y-151246595D01*
X316428576Y-151689737D01*
X316335000Y-152160173D01*
X225955000Y-152160173D01*
X225861424Y-151689737D01*
X225677869Y-151246595D01*
X225411388Y-150847778D01*
X225072222Y-150508612D01*
X224673405Y-150242131D01*
X224230263Y-150058576D01*
X223759827Y-149965000D01*
X223280173Y-149965000D01*
X222809737Y-150058576D01*
X222366595Y-150242131D01*
X221967778Y-150508612D01*
X221628612Y-150847778D01*
X221362131Y-151246595D01*
X221178576Y-151689737D01*
X221085000Y-152160173D01*
X168805000Y-152160173D01*
X168711424Y-151689737D01*
X168527869Y-151246595D01*
X168261388Y-150847778D01*
X167922222Y-150508612D01*
X167523405Y-150242131D01*
X167080263Y-150058576D01*
X166609827Y-149965000D01*
X166130173Y-149965000D01*
X165659737Y-150058576D01*
X165216595Y-150242131D01*
X164817778Y-150508612D01*
X164478612Y-150847778D01*
X164212131Y-151246595D01*
X164028576Y-151689737D01*
X163935000Y-152160173D01*
X73555000Y-152160173D01*
X73461424Y-151689737D01*
X73277869Y-151246595D01*
X73011388Y-150847778D01*
X72672222Y-150508612D01*
X72273405Y-150242131D01*
X71830263Y-150058576D01*
X71359827Y-149965000D01*
X70880173Y-149965000D01*
X70409737Y-150058576D01*
X69966595Y-150242131D01*
X69567778Y-150508612D01*
X69228612Y-150847778D01*
X68962131Y-151246595D01*
X68778576Y-151689737D01*
X68685000Y-152160173D01*
X51510000Y-152160173D01*
X51510000Y-95010173D01*
X68685000Y-95010173D01*
X68685000Y-95489827D01*
X68778576Y-95960263D01*
X68962131Y-96403405D01*
X69228612Y-96802222D01*
X69567778Y-97141388D01*
X69966595Y-97407869D01*
X70409737Y-97591424D01*
X70880173Y-97685000D01*
X71359827Y-97685000D01*
X71830263Y-97591424D01*
X72273405Y-97407869D01*
X72672222Y-97141388D01*
X73011388Y-96802222D01*
X73277869Y-96403405D01*
X73461424Y-95960263D01*
X73555000Y-95489827D01*
X73555000Y-95010173D01*
X163935000Y-95010173D01*
X163935000Y-95489827D01*
X164028576Y-95960263D01*
X164212131Y-96403405D01*
X164478612Y-96802222D01*
X164817778Y-97141388D01*
X165216595Y-97407869D01*
X165659737Y-97591424D01*
X166130173Y-97685000D01*
X166609827Y-97685000D01*
X167080263Y-97591424D01*
X167523405Y-97407869D01*
X167922222Y-97141388D01*
X168261388Y-96802222D01*
X168527869Y-96403405D01*
X168711424Y-95960263D01*
X168805000Y-95489827D01*
X168805000Y-95010173D01*
X221085000Y-95010173D01*
X221085000Y-95489827D01*
X221178576Y-95960263D01*
X221362131Y-96403405D01*
X221628612Y-96802222D01*
X221967778Y-97141388D01*
X222366595Y-97407869D01*
X222809737Y-97591424D01*
X223280173Y-97685000D01*
X223759827Y-97685000D01*
X224230263Y-97591424D01*
X224673405Y-97407869D01*
X225072222Y-97141388D01*
X225411388Y-96802222D01*
X225677869Y-96403405D01*
X225861424Y-95960263D01*
X225955000Y-95489827D01*
X225955000Y-95010173D01*
X316335000Y-95010173D01*
X316335000Y-95489827D01*
X316428576Y-95960263D01*
X316612131Y-96403405D01*
X316878612Y-96802222D01*
X317217778Y-97141388D01*
X317616595Y-97407869D01*
X318059737Y-97591424D01*
X318530173Y-97685000D01*
X319009827Y-97685000D01*
X319480263Y-97591424D01*
X319923405Y-97407869D01*
X320322222Y-97141388D01*
X320661388Y-96802222D01*
X320927869Y-96403405D01*
X321111424Y-95960263D01*
X321205000Y-95489827D01*
X321205000Y-95010173D01*
X321111424Y-94539737D01*
X320927869Y-94096595D01*
X320661388Y-93697778D01*
X320322222Y-93358612D01*
X319923405Y-93092131D01*
X319480263Y-92908576D01*
X319009827Y-92815000D01*
X318530173Y-92815000D01*
X318059737Y-92908576D01*
X317616595Y-93092131D01*
X317217778Y-93358612D01*
X316878612Y-93697778D01*
X316612131Y-94096595D01*
X316428576Y-94539737D01*
X316335000Y-95010173D01*
X225955000Y-95010173D01*
X225861424Y-94539737D01*
X225677869Y-94096595D01*
X225411388Y-93697778D01*
X225072222Y-93358612D01*
X224673405Y-93092131D01*
X224230263Y-92908576D01*
X223759827Y-92815000D01*
X223280173Y-92815000D01*
X222809737Y-92908576D01*
X222366595Y-93092131D01*
X221967778Y-93358612D01*
X221628612Y-93697778D01*
X221362131Y-94096595D01*
X221178576Y-94539737D01*
X221085000Y-95010173D01*
X168805000Y-95010173D01*
X168711424Y-94539737D01*
X168527869Y-94096595D01*
X168261388Y-93697778D01*
X167922222Y-93358612D01*
X167523405Y-93092131D01*
X167080263Y-92908576D01*
X166609827Y-92815000D01*
X166130173Y-92815000D01*
X165659737Y-92908576D01*
X165216595Y-93092131D01*
X164817778Y-93358612D01*
X164478612Y-93697778D01*
X164212131Y-94096595D01*
X164028576Y-94539737D01*
X163935000Y-95010173D01*
X73555000Y-95010173D01*
X73461424Y-94539737D01*
X73277869Y-94096595D01*
X73011388Y-93697778D01*
X72672222Y-93358612D01*
X72273405Y-93092131D01*
X71830263Y-92908576D01*
X71359827Y-92815000D01*
X70880173Y-92815000D01*
X70409737Y-92908576D01*
X69966595Y-93092131D01*
X69567778Y-93358612D01*
X69228612Y-93697778D01*
X68962131Y-94096595D01*
X68778576Y-94539737D01*
X68685000Y-95010173D01*
X51510000Y-95010173D01*
X51510000Y-72150173D01*
X52175000Y-72150173D01*
X52175000Y-72629827D01*
X52268576Y-73100263D01*
X52452131Y-73543405D01*
X52718612Y-73942222D01*
X53057778Y-74281388D01*
X53456595Y-74547869D01*
X53899737Y-74731424D01*
X54370173Y-74825000D01*
X54849827Y-74825000D01*
X55320263Y-74731424D01*
X55763405Y-74547869D01*
X56162222Y-74281388D01*
X56501388Y-73942222D01*
X56767869Y-73543405D01*
X56951424Y-73100263D01*
X57045000Y-72629827D01*
X57045000Y-72150173D01*
X332845000Y-72150173D01*
X332845000Y-72629827D01*
X332938576Y-73100263D01*
X333122131Y-73543405D01*
X333388612Y-73942222D01*
X333727778Y-74281388D01*
X334126595Y-74547869D01*
X334569737Y-74731424D01*
X335040173Y-74825000D01*
X335519827Y-74825000D01*
X335990263Y-74731424D01*
X336433405Y-74547869D01*
X336832222Y-74281388D01*
X337171388Y-73942222D01*
X337437869Y-73543405D01*
X337621424Y-73100263D01*
X337715000Y-72629827D01*
X337715000Y-72150173D01*
X337621424Y-71679737D01*
X337437869Y-71236595D01*
X337171388Y-70837778D01*
X336832222Y-70498612D01*
X336433405Y-70232131D01*
X335990263Y-70048576D01*
X335519827Y-69955000D01*
X335040173Y-69955000D01*
X334569737Y-70048576D01*
X334126595Y-70232131D01*
X333727778Y-70498612D01*
X333388612Y-70837778D01*
X333122131Y-71236595D01*
X332938576Y-71679737D01*
X332845000Y-72150173D01*
X57045000Y-72150173D01*
X56951424Y-71679737D01*
X56767869Y-71236595D01*
X56501388Y-70837778D01*
X56162222Y-70498612D01*
X55763405Y-70232131D01*
X55320263Y-70048576D01*
X54849827Y-69955000D01*
X54370173Y-69955000D01*
X53899737Y-70048576D01*
X53456595Y-70232131D01*
X53057778Y-70498612D01*
X52718612Y-70837778D01*
X52452131Y-71236595D01*
X52268576Y-71679737D01*
X52175000Y-72150173D01*
X51510000Y-72150173D01*
X51510000Y-54370173D01*
X52175000Y-54370173D01*
X52175000Y-54849827D01*
X52268576Y-55320263D01*
X52452131Y-55763405D01*
X52718612Y-56162222D01*
X53057778Y-56501388D01*
X53456595Y-56767869D01*
X53899737Y-56951424D01*
X54370173Y-57045000D01*
X54849827Y-57045000D01*
X55320263Y-56951424D01*
X55763405Y-56767869D01*
X56162222Y-56501388D01*
X56501388Y-56162222D01*
X56767869Y-55763405D01*
X56951424Y-55320263D01*
X57045000Y-54849827D01*
X57045000Y-54370173D01*
X332845000Y-54370173D01*
X332845000Y-54849827D01*
X332938576Y-55320263D01*
X333122131Y-55763405D01*
X333388612Y-56162222D01*
X333727778Y-56501388D01*
X334126595Y-56767869D01*
X334569737Y-56951424D01*
X335040173Y-57045000D01*
X335519827Y-57045000D01*
X335990263Y-56951424D01*
X336433405Y-56767869D01*
X336832222Y-56501388D01*
X337171388Y-56162222D01*
X337437869Y-55763405D01*
X337621424Y-55320263D01*
X337715000Y-54849827D01*
X337715000Y-54370173D01*
X337621424Y-53899737D01*
X337437869Y-53456595D01*
X337171388Y-53057778D01*
X336832222Y-52718612D01*
X336433405Y-52452131D01*
X335990263Y-52268576D01*
X335519827Y-52175000D01*
X335040173Y-52175000D01*
X334569737Y-52268576D01*
X334126595Y-52452131D01*
X333727778Y-52718612D01*
X333388612Y-53057778D01*
X333122131Y-53456595D01*
X332938576Y-53899737D01*
X332845000Y-54370173D01*
X57045000Y-54370173D01*
X56951424Y-53899737D01*
X56767869Y-53456595D01*
X56501388Y-53057778D01*
X56162222Y-52718612D01*
X55763405Y-52452131D01*
X55320263Y-52268576D01*
X54849827Y-52175000D01*
X54370173Y-52175000D01*
X53899737Y-52268576D01*
X53456595Y-52452131D01*
X53057778Y-52718612D01*
X52718612Y-53057778D01*
X52452131Y-53456595D01*
X52268576Y-53899737D01*
X52175000Y-54370173D01*
X51510000Y-54370173D01*
X51510000Y-53374720D01*
X51548191Y-52985215D01*
X51651228Y-52643940D01*
X51818590Y-52329178D01*
X52043903Y-52052917D01*
X52318582Y-51825683D01*
X52632164Y-51656130D01*
X52972708Y-51550714D01*
X53360072Y-51510000D01*
X336515280Y-51510000D01*
X336904785Y-51548191D01*
G37*
X336904785Y-51548191D02*
X337246060Y-51651228D01*
X337560822Y-51818590D01*
X337837083Y-52043903D01*
X338064317Y-52318582D01*
X338233870Y-52632164D01*
X338339286Y-52972708D01*
X338380000Y-53360072D01*
X338380001Y-171415269D01*
X338341809Y-171804784D01*
X338238771Y-172146063D01*
X338071409Y-172460825D01*
X337846097Y-172737083D01*
X337571418Y-172964317D01*
X337257838Y-173133869D01*
X336917288Y-173239287D01*
X336529928Y-173280000D01*
X53374720Y-173280000D01*
X52985216Y-173241809D01*
X52643937Y-173138771D01*
X52329175Y-172971409D01*
X52052917Y-172746097D01*
X51825683Y-172471418D01*
X51656131Y-172157838D01*
X51550713Y-171817288D01*
X51510000Y-171429928D01*
X51510000Y-152160173D01*
X68685000Y-152160173D01*
X68685000Y-152639827D01*
X68778576Y-153110263D01*
X68962131Y-153553405D01*
X69228612Y-153952222D01*
X69567778Y-154291388D01*
X69966595Y-154557869D01*
X70409737Y-154741424D01*
X70880173Y-154835000D01*
X71359827Y-154835000D01*
X71830263Y-154741424D01*
X72273405Y-154557869D01*
X72672222Y-154291388D01*
X73011388Y-153952222D01*
X73277869Y-153553405D01*
X73461424Y-153110263D01*
X73555000Y-152639827D01*
X73555000Y-152160173D01*
X163935000Y-152160173D01*
X163935000Y-152639827D01*
X164028576Y-153110263D01*
X164212131Y-153553405D01*
X164478612Y-153952222D01*
X164817778Y-154291388D01*
X165216595Y-154557869D01*
X165659737Y-154741424D01*
X166130173Y-154835000D01*
X166609827Y-154835000D01*
X167080263Y-154741424D01*
X167523405Y-154557869D01*
X167922222Y-154291388D01*
X168261388Y-153952222D01*
X168527869Y-153553405D01*
X168711424Y-153110263D01*
X168805000Y-152639827D01*
X168805000Y-152160173D01*
X221085000Y-152160173D01*
X221085000Y-152639827D01*
X221178576Y-153110263D01*
X221362131Y-153553405D01*
X221628612Y-153952222D01*
X221967778Y-154291388D01*
X222366595Y-154557869D01*
X222809737Y-154741424D01*
X223280173Y-154835000D01*
X223759827Y-154835000D01*
X224230263Y-154741424D01*
X224673405Y-154557869D01*
X225072222Y-154291388D01*
X225411388Y-153952222D01*
X225677869Y-153553405D01*
X225861424Y-153110263D01*
X225955000Y-152639827D01*
X225955000Y-152160173D01*
X316335000Y-152160173D01*
X316335000Y-152639827D01*
X316428576Y-153110263D01*
X316612131Y-153553405D01*
X316878612Y-153952222D01*
X317217778Y-154291388D01*
X317616595Y-154557869D01*
X318059737Y-154741424D01*
X318530173Y-154835000D01*
X319009827Y-154835000D01*
X319480263Y-154741424D01*
X319923405Y-154557869D01*
X320322222Y-154291388D01*
X320661388Y-153952222D01*
X320927869Y-153553405D01*
X321111424Y-153110263D01*
X321205000Y-152639827D01*
X321205000Y-152160173D01*
X321111424Y-151689737D01*
X320927869Y-151246595D01*
X320661388Y-150847778D01*
X320322222Y-150508612D01*
X319923405Y-150242131D01*
X319480263Y-150058576D01*
X319009827Y-149965000D01*
X318530173Y-149965000D01*
X318059737Y-150058576D01*
X317616595Y-150242131D01*
X317217778Y-150508612D01*
X316878612Y-150847778D01*
X316612131Y-151246595D01*
X316428576Y-151689737D01*
X316335000Y-152160173D01*
X225955000Y-152160173D01*
X225861424Y-151689737D01*
X225677869Y-151246595D01*
X225411388Y-150847778D01*
X225072222Y-150508612D01*
X224673405Y-150242131D01*
X224230263Y-150058576D01*
X223759827Y-149965000D01*
X223280173Y-149965000D01*
X222809737Y-150058576D01*
X222366595Y-150242131D01*
X221967778Y-150508612D01*
X221628612Y-150847778D01*
X221362131Y-151246595D01*
X221178576Y-151689737D01*
X221085000Y-152160173D01*
X168805000Y-152160173D01*
X168711424Y-151689737D01*
X168527869Y-151246595D01*
X168261388Y-150847778D01*
X167922222Y-150508612D01*
X167523405Y-150242131D01*
X167080263Y-150058576D01*
X166609827Y-149965000D01*
X166130173Y-149965000D01*
X165659737Y-150058576D01*
X165216595Y-150242131D01*
X164817778Y-150508612D01*
X164478612Y-150847778D01*
X164212131Y-151246595D01*
X164028576Y-151689737D01*
X163935000Y-152160173D01*
X73555000Y-152160173D01*
X73461424Y-151689737D01*
X73277869Y-151246595D01*
X73011388Y-150847778D01*
X72672222Y-150508612D01*
X72273405Y-150242131D01*
X71830263Y-150058576D01*
X71359827Y-149965000D01*
X70880173Y-149965000D01*
X70409737Y-150058576D01*
X69966595Y-150242131D01*
X69567778Y-150508612D01*
X69228612Y-150847778D01*
X68962131Y-151246595D01*
X68778576Y-151689737D01*
X68685000Y-152160173D01*
X51510000Y-152160173D01*
X51510000Y-95010173D01*
X68685000Y-95010173D01*
X68685000Y-95489827D01*
X68778576Y-95960263D01*
X68962131Y-96403405D01*
X69228612Y-96802222D01*
X69567778Y-97141388D01*
X69966595Y-97407869D01*
X70409737Y-97591424D01*
X70880173Y-97685000D01*
X71359827Y-97685000D01*
X71830263Y-97591424D01*
X72273405Y-97407869D01*
X72672222Y-97141388D01*
X73011388Y-96802222D01*
X73277869Y-96403405D01*
X73461424Y-95960263D01*
X73555000Y-95489827D01*
X73555000Y-95010173D01*
X163935000Y-95010173D01*
X163935000Y-95489827D01*
X164028576Y-95960263D01*
X164212131Y-96403405D01*
X164478612Y-96802222D01*
X164817778Y-97141388D01*
X165216595Y-97407869D01*
X165659737Y-97591424D01*
X166130173Y-97685000D01*
X166609827Y-97685000D01*
X167080263Y-97591424D01*
X167523405Y-97407869D01*
X167922222Y-97141388D01*
X168261388Y-96802222D01*
X168527869Y-96403405D01*
X168711424Y-95960263D01*
X168805000Y-95489827D01*
X168805000Y-95010173D01*
X221085000Y-95010173D01*
X221085000Y-95489827D01*
X221178576Y-95960263D01*
X221362131Y-96403405D01*
X221628612Y-96802222D01*
X221967778Y-97141388D01*
X222366595Y-97407869D01*
X222809737Y-97591424D01*
X223280173Y-97685000D01*
X223759827Y-97685000D01*
X224230263Y-97591424D01*
X224673405Y-97407869D01*
X225072222Y-97141388D01*
X225411388Y-96802222D01*
X225677869Y-96403405D01*
X225861424Y-95960263D01*
X225955000Y-95489827D01*
X225955000Y-95010173D01*
X316335000Y-95010173D01*
X316335000Y-95489827D01*
X316428576Y-95960263D01*
X316612131Y-96403405D01*
X316878612Y-96802222D01*
X317217778Y-97141388D01*
X317616595Y-97407869D01*
X318059737Y-97591424D01*
X318530173Y-97685000D01*
X319009827Y-97685000D01*
X319480263Y-97591424D01*
X319923405Y-97407869D01*
X320322222Y-97141388D01*
X320661388Y-96802222D01*
X320927869Y-96403405D01*
X321111424Y-95960263D01*
X321205000Y-95489827D01*
X321205000Y-95010173D01*
X321111424Y-94539737D01*
X320927869Y-94096595D01*
X320661388Y-93697778D01*
X320322222Y-93358612D01*
X319923405Y-93092131D01*
X319480263Y-92908576D01*
X319009827Y-92815000D01*
X318530173Y-92815000D01*
X318059737Y-92908576D01*
X317616595Y-93092131D01*
X317217778Y-93358612D01*
X316878612Y-93697778D01*
X316612131Y-94096595D01*
X316428576Y-94539737D01*
X316335000Y-95010173D01*
X225955000Y-95010173D01*
X225861424Y-94539737D01*
X225677869Y-94096595D01*
X225411388Y-93697778D01*
X225072222Y-93358612D01*
X224673405Y-93092131D01*
X224230263Y-92908576D01*
X223759827Y-92815000D01*
X223280173Y-92815000D01*
X222809737Y-92908576D01*
X222366595Y-93092131D01*
X221967778Y-93358612D01*
X221628612Y-93697778D01*
X221362131Y-94096595D01*
X221178576Y-94539737D01*
X221085000Y-95010173D01*
X168805000Y-95010173D01*
X168711424Y-94539737D01*
X168527869Y-94096595D01*
X168261388Y-93697778D01*
X167922222Y-93358612D01*
X167523405Y-93092131D01*
X167080263Y-92908576D01*
X166609827Y-92815000D01*
X166130173Y-92815000D01*
X165659737Y-92908576D01*
X165216595Y-93092131D01*
X164817778Y-93358612D01*
X164478612Y-93697778D01*
X164212131Y-94096595D01*
X164028576Y-94539737D01*
X163935000Y-95010173D01*
X73555000Y-95010173D01*
X73461424Y-94539737D01*
X73277869Y-94096595D01*
X73011388Y-93697778D01*
X72672222Y-93358612D01*
X72273405Y-93092131D01*
X71830263Y-92908576D01*
X71359827Y-92815000D01*
X70880173Y-92815000D01*
X70409737Y-92908576D01*
X69966595Y-93092131D01*
X69567778Y-93358612D01*
X69228612Y-93697778D01*
X68962131Y-94096595D01*
X68778576Y-94539737D01*
X68685000Y-95010173D01*
X51510000Y-95010173D01*
X51510000Y-72150173D01*
X52175000Y-72150173D01*
X52175000Y-72629827D01*
X52268576Y-73100263D01*
X52452131Y-73543405D01*
X52718612Y-73942222D01*
X53057778Y-74281388D01*
X53456595Y-74547869D01*
X53899737Y-74731424D01*
X54370173Y-74825000D01*
X54849827Y-74825000D01*
X55320263Y-74731424D01*
X55763405Y-74547869D01*
X56162222Y-74281388D01*
X56501388Y-73942222D01*
X56767869Y-73543405D01*
X56951424Y-73100263D01*
X57045000Y-72629827D01*
X57045000Y-72150173D01*
X332845000Y-72150173D01*
X332845000Y-72629827D01*
X332938576Y-73100263D01*
X333122131Y-73543405D01*
X333388612Y-73942222D01*
X333727778Y-74281388D01*
X334126595Y-74547869D01*
X334569737Y-74731424D01*
X335040173Y-74825000D01*
X335519827Y-74825000D01*
X335990263Y-74731424D01*
X336433405Y-74547869D01*
X336832222Y-74281388D01*
X337171388Y-73942222D01*
X337437869Y-73543405D01*
X337621424Y-73100263D01*
X337715000Y-72629827D01*
X337715000Y-72150173D01*
X337621424Y-71679737D01*
X337437869Y-71236595D01*
X337171388Y-70837778D01*
X336832222Y-70498612D01*
X336433405Y-70232131D01*
X335990263Y-70048576D01*
X335519827Y-69955000D01*
X335040173Y-69955000D01*
X334569737Y-70048576D01*
X334126595Y-70232131D01*
X333727778Y-70498612D01*
X333388612Y-70837778D01*
X333122131Y-71236595D01*
X332938576Y-71679737D01*
X332845000Y-72150173D01*
X57045000Y-72150173D01*
X56951424Y-71679737D01*
X56767869Y-71236595D01*
X56501388Y-70837778D01*
X56162222Y-70498612D01*
X55763405Y-70232131D01*
X55320263Y-70048576D01*
X54849827Y-69955000D01*
X54370173Y-69955000D01*
X53899737Y-70048576D01*
X53456595Y-70232131D01*
X53057778Y-70498612D01*
X52718612Y-70837778D01*
X52452131Y-71236595D01*
X52268576Y-71679737D01*
X52175000Y-72150173D01*
X51510000Y-72150173D01*
X51510000Y-54370173D01*
X52175000Y-54370173D01*
X52175000Y-54849827D01*
X52268576Y-55320263D01*
X52452131Y-55763405D01*
X52718612Y-56162222D01*
X53057778Y-56501388D01*
X53456595Y-56767869D01*
X53899737Y-56951424D01*
X54370173Y-57045000D01*
X54849827Y-57045000D01*
X55320263Y-56951424D01*
X55763405Y-56767869D01*
X56162222Y-56501388D01*
X56501388Y-56162222D01*
X56767869Y-55763405D01*
X56951424Y-55320263D01*
X57045000Y-54849827D01*
X57045000Y-54370173D01*
X332845000Y-54370173D01*
X332845000Y-54849827D01*
X332938576Y-55320263D01*
X333122131Y-55763405D01*
X333388612Y-56162222D01*
X333727778Y-56501388D01*
X334126595Y-56767869D01*
X334569737Y-56951424D01*
X335040173Y-57045000D01*
X335519827Y-57045000D01*
X335990263Y-56951424D01*
X336433405Y-56767869D01*
X336832222Y-56501388D01*
X337171388Y-56162222D01*
X337437869Y-55763405D01*
X337621424Y-55320263D01*
X337715000Y-54849827D01*
X337715000Y-54370173D01*
X337621424Y-53899737D01*
X337437869Y-53456595D01*
X337171388Y-53057778D01*
X336832222Y-52718612D01*
X336433405Y-52452131D01*
X335990263Y-52268576D01*
X335519827Y-52175000D01*
X335040173Y-52175000D01*
X334569737Y-52268576D01*
X334126595Y-52452131D01*
X333727778Y-52718612D01*
X333388612Y-53057778D01*
X333122131Y-53456595D01*
X332938576Y-53899737D01*
X332845000Y-54370173D01*
X57045000Y-54370173D01*
X56951424Y-53899737D01*
X56767869Y-53456595D01*
X56501388Y-53057778D01*
X56162222Y-52718612D01*
X55763405Y-52452131D01*
X55320263Y-52268576D01*
X54849827Y-52175000D01*
X54370173Y-52175000D01*
X53899737Y-52268576D01*
X53456595Y-52452131D01*
X53057778Y-52718612D01*
X52718612Y-53057778D01*
X52452131Y-53456595D01*
X52268576Y-53899737D01*
X52175000Y-54370173D01*
X51510000Y-54370173D01*
X51510000Y-53374720D01*
X51548191Y-52985215D01*
X51651228Y-52643940D01*
X51818590Y-52329178D01*
X52043903Y-52052917D01*
X52318582Y-51825683D01*
X52632164Y-51656130D01*
X52972708Y-51550714D01*
X53360072Y-51510000D01*
X336515280Y-51510000D01*
X336904785Y-51548191D01*
M02*
